<svg id="svg" version="1.1" xmlns="http://www.w3.org/2000/svg" xmlns:xlink="http://www.w3.org/1999/xlink" width="400" height="440.14869888475835" viewBox="0, 0, 400,440.14869888475835"><g id="svgg"><path id="path0" d="M163.015 9.071 C 158.212 13.968,154.676 18.369,155.158 18.850 C 155.639 19.332,154.422 20.993,152.454 22.541 C 150.485 24.089,148.452 26.687,147.936 28.313 C 147.420 29.939,146.372 30.883,145.607 30.411 C 144.843 29.938,143.803 30.631,143.297 31.950 C 142.790 33.269,139.780 37.050,136.608 40.352 C 133.435 43.654,131.174 46.896,131.582 47.557 C 131.991 48.218,131.325 49.143,130.103 49.612 C 128.881 50.081,127.881 51.459,127.881 52.675 C 127.881 53.891,124.351 58.501,120.037 62.920 C 115.723 67.338,111.416 72.660,110.466 74.746 C 107.551 81.143,98.032 92.737,92.745 96.329 C 89.988 98.203,87.732 100.420,87.732 101.257 C 87.732 102.093,87.097 102.385,86.320 101.905 C 83.192 99.972,81.632 106.945,83.226 115.734 C 85.126 126.215,83.796 130.960,75.499 143.294 C 71.705 148.934,69.906 153.067,70.409 154.990 C 71.236 158.153,68.878 163.532,65.799 165.501 C 64.777 166.155,63.941 167.635,63.941 168.789 C 63.941 169.943,62.515 172.216,60.772 173.840 C 59.029 175.464,56.722 178.334,55.645 180.218 C 51.041 188.273,40.149 210.769,40.149 212.223 C 40.149 213.095,39.272 214.145,38.200 214.556 C 37.128 214.967,35.380 218.217,34.315 221.778 C 33.249 225.339,31.234 229.926,29.836 231.970 C 28.438 234.015,26.084 238.364,24.604 241.636 C 23.125 244.907,19.660 250.373,16.905 253.782 C 14.150 257.191,11.896 260.622,11.896 261.406 C 11.896 262.191,10.892 263.666,9.665 264.684 C 8.439 265.702,7.435 267.776,7.435 269.293 C 7.435 270.809,5.762 273.147,3.717 274.486 C -0.446 277.214,-1.351 283.590,2.230 284.964 C 3.457 285.435,4.461 286.631,4.461 287.623 C 4.461 288.615,6.134 290.881,8.178 292.659 C 10.223 294.437,11.896 296.445,11.896 297.122 C 11.896 298.834,24.922 312.268,26.582 312.268 C 27.326 312.268,28.332 313.305,28.819 314.572 C 29.305 315.839,33.330 318.480,37.763 320.441 C 42.196 322.401,46.259 324.710,46.791 325.571 C 47.324 326.433,49.337 327.138,51.266 327.138 C 53.194 327.138,57.671 328.372,61.215 329.881 C 64.759 331.390,68.515 332.331,69.563 331.972 C 70.611 331.613,71.280 332.160,71.050 333.187 C 70.802 334.295,73.043 335.582,76.554 336.349 C 79.811 337.061,83.124 338.291,83.915 339.082 C 84.706 339.873,86.454 340.520,87.799 340.520 C 89.145 340.520,91.457 341.859,92.937 343.494 C 94.417 345.130,96.428 346.468,97.405 346.468 C 98.382 346.468,101.845 348.398,105.101 350.756 C 108.356 353.114,113.094 355.499,115.630 356.056 C 118.166 356.613,121.048 358.042,122.035 359.231 C 123.022 360.420,126.247 362.509,129.201 363.873 C 136.360 367.178,147.172 378.611,148.254 384.019 C 148.731 386.406,150.030 388.708,151.141 389.134 C 152.251 389.561,153.160 390.790,153.160 391.867 C 153.160 394.207,160.292 402.974,162.196 402.974 C 162.931 402.974,166.050 405.694,169.127 409.019 C 172.204 412.344,177.161 416.337,180.142 417.892 C 183.124 419.447,186.470 421.618,187.577 422.716 C 189.672 424.792,200.668 428.672,209.665 430.508 C 212.528 431.092,215.698 432.237,216.710 433.052 C 217.722 433.867,227.424 435.100,238.271 435.793 C 249.118 436.486,260.669 437.733,263.941 438.565 C 273.199 440.920,396.237 440.661,398.210 438.283 C 399.330 436.934,398.654 434.771,395.773 430.476 C 393.581 427.209,390.963 422.862,389.956 420.818 C 388.949 418.773,387.526 416.097,386.794 414.870 C 383.959 410.123,377.695 396.158,377.695 394.585 C 377.695 393.674,376.734 392.132,375.560 391.157 C 374.386 390.183,372.963 387.279,372.397 384.704 C 371.832 382.130,370.814 378.998,370.136 377.744 C 369.458 376.490,367.804 371.450,366.460 366.543 C 365.116 361.636,362.076 354.743,359.703 351.227 C 357.331 347.710,355.390 344.287,355.390 343.620 C 355.390 342.954,354.139 340.813,352.610 338.862 C 351.081 336.912,349.331 333.030,348.720 330.235 C 348.110 327.441,346.352 323.092,344.814 320.570 C 342.214 316.305,342.018 312.200,342.004 261.710 C 341.992 218.248,341.577 206.644,339.919 203.467 C 338.780 201.285,337.362 196.616,336.766 193.091 C 336.171 189.566,334.808 185.329,333.738 183.676 C 332.668 182.022,331.000 177.491,330.032 173.606 C 329.064 169.721,327.773 166.543,327.163 166.543 C 326.554 166.543,325.641 163.527,325.136 159.840 C 324.631 156.154,323.034 151.332,321.588 149.126 C 319.384 145.764,318.827 140.416,318.142 116.052 C 317.313 86.585,315.392 76.205,309.643 70.132 C 308.608 69.038,306.020 65.860,303.890 63.068 C 301.761 60.277,299.211 57.993,298.224 57.993 C 297.237 57.993,294.915 56.381,293.064 54.411 C 289.723 50.855,289.442 50.825,254.515 50.284 C 205.592 49.526,203.301 48.324,183.293 12.916 C 182.283 11.128,181.447 8.576,181.435 7.245 C 181.409 4.439,177.755 1.041,174.204 0.524 C 172.850 0.327,167.826 4.164,163.015 9.071 " stroke="none" fill="#000000" fill-rule="evenodd"></path></g></svg>