<svg id="svg" version="1.1" xmlns="http://www.w3.org/2000/svg" xmlns:xlink="http://www.w3.org/1999/xlink" width="400" height="298.60724233983285" viewBox="0, 0, 400,298.60724233983285"><g id="svgg"><path id="path0" d="M283.565 2.270 C 278.663 3.454,273.836 4.897,272.839 5.477 C 271.842 6.058,269.167 6.882,266.894 7.308 C 264.621 7.734,259.788 9.524,256.154 11.284 C 252.520 13.044,248.998 14.485,248.328 14.485 C 246.376 14.485,233.732 21.463,230.160 24.511 C 226.300 27.806,215.647 37.266,211.711 40.896 C 208.468 43.886,207.227 44.118,186.630 45.599 C 170.267 46.776,142.039 45.029,139.026 42.654 C 138.244 42.037,136.314 41.226,134.738 40.850 C 133.161 40.475,129.651 38.498,126.938 36.457 C 117.269 29.182,104.248 26.972,100.150 31.910 C 99.458 32.744,98.075 33.440,97.078 33.457 C 94.882 33.495,90.533 37.889,86.358 44.290 C 84.659 46.894,82.868 49.025,82.378 49.025 C 81.888 49.025,81.143 50.153,80.723 51.532 C 80.303 52.911,79.316 54.791,78.530 55.710 C 77.743 56.630,76.461 59.638,75.681 62.396 C 74.900 65.153,73.723 68.112,73.064 68.971 C 72.298 69.969,71.665 83.063,71.309 105.292 C 70.859 133.370,70.442 140.425,69.141 141.991 C 68.094 143.251,67.359 147.485,67.044 154.076 C 66.673 161.830,65.961 165.346,64.024 168.990 C 61.124 174.444,57.434 179.387,56.263 179.387 C 55.825 179.387,52.655 181.956,49.219 185.096 C 45.783 188.236,40.950 192.061,38.478 193.595 C 36.006 195.130,32.102 198.452,29.802 200.978 C 27.502 203.504,24.933 206.323,24.093 207.242 C 23.254 208.162,22.233 209.997,21.825 211.320 C 21.417 212.643,20.351 214.334,19.455 215.078 C 18.560 215.821,17.827 217.293,17.827 218.348 C 17.827 219.404,16.825 221.175,15.599 222.284 C 14.373 223.393,13.370 225.023,13.370 225.906 C 13.370 226.789,12.401 228.873,11.216 230.537 C 10.031 232.201,8.723 234.910,8.310 236.558 C 7.896 238.206,7.154 239.554,6.660 239.554 C 2.871 239.554,-0.063 250.163,0.245 262.750 L 0.557 275.517 8.839 278.821 C 14.440 281.055,19.669 282.263,24.995 282.551 C 36.247 283.161,39.845 283.671,47.075 285.683 C 50.599 286.663,56.365 288.238,59.889 289.183 C 69.775 291.834,72.423 293.123,72.423 295.281 C 72.423 303.079,141.658 297.414,150.151 288.921 C 152.177 286.895,154.636 285.237,155.616 285.237 C 158.625 285.237,165.092 280.652,164.449 278.976 C 163.947 277.669,166.115 276.794,167.571 277.716 C 167.813 277.869,169.067 277.039,170.357 275.872 C 171.647 274.704,172.702 274.094,172.702 274.515 C 172.702 274.936,174.885 274.062,177.553 272.572 C 180.222 271.082,184.238 269.616,186.478 269.315 C 188.718 269.013,191.884 267.892,193.513 266.825 C 197.755 264.045,210.585 257.311,210.585 257.864 C 210.585 258.808,221.754 254.361,223.657 252.659 C 224.741 251.690,228.302 250.029,231.573 248.966 C 234.843 247.904,237.762 246.399,238.060 245.623 C 238.358 244.847,239.693 243.935,241.028 243.596 C 242.362 243.256,245.034 241.530,246.965 239.759 C 252.939 234.279,264.017 226.184,265.541 226.184 C 266.338 226.184,268.011 224.805,269.258 223.120 C 270.505 221.435,273.733 218.938,276.432 217.573 C 281.471 215.022,286.655 210.135,290.048 204.735 C 291.107 203.050,292.726 201.671,293.647 201.671 C 294.567 201.671,295.780 200.461,296.343 198.981 C 296.905 197.502,298.396 195.964,299.655 195.564 C 300.914 195.165,302.242 193.654,302.605 192.207 C 302.968 190.760,304.024 189.285,304.952 188.929 C 305.879 188.573,306.367 187.576,306.036 186.712 C 305.704 185.849,306.185 184.854,307.105 184.501 C 308.024 184.148,308.464 183.355,308.083 182.738 C 307.701 182.121,307.904 181.616,308.533 181.616 C 309.162 181.616,311.675 178.969,314.117 175.735 C 316.559 172.501,321.589 167.892,325.295 165.494 C 329.001 163.096,332.033 160.642,332.033 160.042 C 332.033 159.441,332.692 158.158,333.497 157.191 C 334.302 156.223,336.402 151.671,338.164 147.075 C 339.926 142.479,341.888 138.029,342.525 137.185 C 343.161 136.342,343.787 130.601,343.916 124.428 C 344.388 101.784,348.070 98.860,376.045 98.914 C 399.181 98.959,397.479 100.757,399.551 74.084 C 400.391 63.263,398.101 61.498,381.329 60.041 C 374.848 59.479,369.002 58.590,368.338 58.067 C 367.674 57.543,365.295 56.524,363.050 55.801 C 356.417 53.666,346.518 39.862,346.518 32.748 C 346.518 31.686,345.779 29.999,344.875 29.001 C 343.937 27.964,342.904 23.653,342.467 18.954 C 341.696 10.659,337.718 2.251,333.865 0.773 C 329.451 -0.921,292.187 0.188,283.565 2.270 " stroke="none" fill="#000000" fill-rule="evenodd"></path></g></svg>