<svg id="svg" version="1.1" xmlns="http://www.w3.org/2000/svg" xmlns:xlink="http://www.w3.org/1999/xlink" width="400" height="296.7741935483871" viewBox="0, 0, 400,296.7741935483871"><g id="svgg"><path id="path0" d="M192.727 1.335 C 191.993 2.069,191.266 2.670,191.111 2.670 C 190.957 2.670,190.191 3.269,189.409 4.002 C 188.627 4.735,187.758 5.336,187.478 5.337 C 187.198 5.338,186.325 5.940,185.539 6.674 C 184.754 7.408,184.021 8.009,183.911 8.009 C 183.801 8.009,182.271 9.217,180.510 10.693 C 174.312 15.890,173.595 16.463,173.279 16.463 C 173.104 16.463,172.510 16.913,171.959 17.464 C 171.408 18.014,169.999 19.266,168.828 20.245 C 165.599 22.944,163.001 25.263,159.306 28.746 C 157.461 30.485,154.950 32.787,153.726 33.863 C 152.503 34.938,151.383 35.979,151.238 36.176 C 150.337 37.398,144.978 42.646,144.407 42.866 C 144.026 43.012,143.715 43.379,143.715 43.681 C 143.715 44.837,128.415 59.177,127.182 59.177 C 126.924 59.177,125.955 59.778,125.028 60.512 C 124.101 61.246,123.145 61.846,122.904 61.846 C 122.663 61.846,121.391 62.508,120.076 63.317 C 118.762 64.125,116.711 65.376,115.518 66.097 C 112.170 68.122,108.586 70.989,107.408 72.586 L 106.340 74.033 106.340 90.425 C 106.340 103.987,106.452 106.987,106.985 107.802 C 107.339 108.344,107.808 109.929,108.027 111.324 C 108.409 113.769,111.503 118.799,112.624 118.799 C 112.839 118.799,113.014 119.092,113.014 119.450 C 113.014 119.809,113.416 120.317,113.908 120.580 C 117.664 122.591,119.255 127.402,116.985 129.888 L 115.616 131.387 110.675 131.086 C 107.915 130.919,105.447 130.549,105.086 130.249 C 104.202 129.516,66.418 129.267,65.548 129.989 C 65.086 130.373,64.961 133.330,64.961 143.938 C 64.961 154.993,64.849 157.493,64.332 157.921 C 63.987 158.208,63.565 159.484,63.395 160.757 C 63.225 162.029,62.830 163.370,62.519 163.737 C 62.207 164.105,61.813 164.861,61.643 165.419 C 61.473 165.977,60.638 167.478,59.788 168.756 C 58.938 170.034,58.130 171.619,57.991 172.280 C 57.853 172.940,57.362 173.822,56.901 174.240 C 56.440 174.657,56.062 175.347,56.062 175.772 C 56.062 176.198,55.788 176.651,55.452 176.780 C 55.117 176.908,54.702 177.581,54.531 178.273 C 54.081 180.100,52.433 183.410,51.515 184.333 C 51.079 184.771,50.723 185.515,50.723 185.986 C 50.723 186.457,50.323 187.057,49.833 187.319 C 49.344 187.581,48.943 188.082,48.943 188.432 C 48.943 188.781,48.556 189.275,48.084 189.528 C 47.611 189.781,47.110 190.339,46.972 190.767 C 46.833 191.196,46.019 192.022,45.162 192.605 C 44.305 193.187,43.604 193.938,43.604 194.273 C 43.604 194.609,43.450 194.883,43.262 194.883 C 43.073 194.883,42.122 195.898,41.148 197.139 C 40.174 198.379,38.776 200.045,38.042 200.840 C 30.914 208.560,29.865 210.126,29.296 213.893 C 29.046 215.551,28.667 217.308,28.455 217.798 C 28.242 218.287,27.852 219.538,27.588 220.578 C 27.323 221.618,26.918 222.469,26.688 222.469 C 26.457 222.469,26.134 223.007,25.969 223.663 C 25.804 224.320,25.250 225.513,24.737 226.315 C 24.224 227.117,23.204 228.701,22.469 229.836 C 21.735 230.971,20.934 232.230,20.690 232.633 C 20.445 233.036,19.532 234.268,18.661 235.371 C 17.791 236.473,16.165 238.780,15.049 240.498 C 13.933 242.215,12.693 243.892,12.294 244.223 C 11.895 244.554,11.568 245.070,11.568 245.370 C 11.568 245.670,11.168 246.377,10.679 246.941 C 10.189 247.505,9.789 248.196,9.789 248.476 C 9.789 248.756,9.488 249.376,9.121 249.854 C 7.573 251.871,6.229 254.144,6.229 254.747 C 6.229 255.103,6.026 255.395,5.777 255.395 C 5.528 255.395,4.978 256.140,4.553 257.050 C 4.129 257.960,3.432 259.061,3.003 259.497 C 2.575 259.933,2.225 260.590,2.225 260.957 C 2.225 261.324,2.039 261.624,1.812 261.624 C 1.586 261.624,1.113 262.199,0.762 262.903 C 0.106 264.218,0.448 265.628,1.424 265.628 C 1.693 265.628,2.935 266.126,4.183 266.735 C 5.431 267.343,7.514 268.041,8.813 268.285 C 10.111 268.530,11.477 269.033,11.848 269.404 C 12.218 269.774,13.215 270.078,14.062 270.078 C 14.909 270.078,16.320 270.378,17.199 270.745 C 18.077 271.112,19.228 271.413,19.755 271.413 C 20.283 271.413,21.109 271.678,21.592 272.002 C 22.074 272.326,23.617 272.841,25.020 273.145 C 26.423 273.449,27.686 273.884,27.827 274.113 C 27.968 274.341,28.422 274.528,28.836 274.530 C 29.250 274.532,30.162 274.832,30.863 275.197 C 31.564 275.563,32.628 275.862,33.228 275.862 C 33.827 275.862,35.256 276.243,36.402 276.709 C 37.549 277.174,39.488 277.808,40.712 278.117 C 41.935 278.426,43.975 279.147,45.244 279.718 C 46.513 280.289,47.801 280.756,48.106 280.756 C 48.908 280.756,53.983 282.568,54.483 283.033 C 54.715 283.249,55.554 283.426,56.347 283.426 C 57.141 283.426,57.903 283.609,58.041 283.832 C 58.179 284.056,59.142 284.375,60.180 284.542 C 61.219 284.710,62.512 285.127,63.054 285.471 C 63.596 285.815,64.598 286.093,65.279 286.089 C 66.684 286.082,72.147 287.664,73.928 288.594 C 74.578 288.933,75.636 289.210,76.279 289.210 C 76.922 289.210,78.192 289.538,79.102 289.939 C 80.012 290.340,81.657 290.832,82.759 291.033 C 83.860 291.234,86.433 291.699,88.476 292.067 C 90.519 292.434,92.421 292.918,92.703 293.143 C 93.191 293.534,95.385 294.028,101.186 295.057 C 102.634 295.313,104.110 295.815,104.466 296.171 C 105.619 297.324,109.111 296.797,109.315 295.439 C 109.407 294.828,109.877 293.570,110.359 292.645 C 110.840 291.720,111.241 290.618,111.250 290.198 C 111.258 289.777,111.652 288.632,112.125 287.653 C 112.597 286.674,112.991 285.465,112.999 284.966 C 113.008 284.467,113.415 283.274,113.904 282.314 C 114.394 281.354,114.794 280.241,114.794 279.841 C 114.794 279.442,115.195 278.752,115.684 278.309 C 116.174 277.866,116.575 277.084,116.577 276.572 C 116.579 276.059,116.978 275.039,117.464 274.305 C 117.950 273.571,118.349 272.601,118.351 272.150 C 118.352 271.699,118.754 270.821,119.244 270.199 C 119.733 269.577,120.133 268.795,120.133 268.461 C 120.133 267.860,122.334 263.399,122.846 262.963 C 123.649 262.277,127.253 254.858,127.253 253.891 C 127.253 253.359,127.524 252.528,127.857 252.046 C 128.189 251.563,128.700 250.433,128.992 249.535 C 129.284 248.637,129.813 247.661,130.167 247.367 C 130.522 247.073,130.812 246.456,130.812 245.997 C 130.812 245.537,130.986 245.161,131.198 245.161 C 131.410 245.161,132.081 244.410,132.688 243.493 C 133.295 242.575,134.320 241.324,134.964 240.712 C 135.609 240.100,136.139 239.475,136.144 239.322 C 136.148 239.169,136.952 238.168,137.931 237.098 C 138.910 236.027,139.711 234.948,139.711 234.701 C 139.711 234.454,140.071 234.027,140.511 233.752 C 141.544 233.107,146.741 225.425,147.093 224.022 C 147.241 223.433,147.643 222.718,147.986 222.433 C 148.329 222.148,148.610 221.667,148.610 221.363 C 148.610 221.058,149.010 220.301,149.499 219.678 C 149.989 219.056,150.389 218.259,150.389 217.907 C 150.389 217.554,150.790 216.805,151.279 216.240 C 151.769 215.676,152.169 214.671,152.169 214.007 C 152.169 213.344,152.570 212.292,153.059 211.669 C 153.548 211.047,153.949 210.246,153.949 209.890 C 153.949 209.533,154.304 208.764,154.739 208.180 C 155.174 207.597,155.822 206.542,156.180 205.838 C 156.538 205.133,157.884 203.503,159.172 202.215 C 160.459 200.928,161.513 199.640,161.513 199.355 C 161.513 199.069,161.701 198.951,161.930 199.093 C 162.160 199.235,162.510 199.096,162.709 198.784 C 163.121 198.138,166.504 195.773,167.017 195.773 C 167.204 195.773,167.994 195.302,168.773 194.727 C 169.552 194.152,171.991 192.819,174.194 191.765 C 176.396 190.711,179.381 189.279,180.827 188.584 C 182.274 187.888,183.801 187.319,184.221 187.319 C 184.642 187.319,185.215 187.043,185.495 186.705 C 185.775 186.368,186.590 185.975,187.306 185.831 C 190.017 185.289,193.034 183.561,197.528 179.978 C 199.062 178.754,201.080 177.453,202.013 177.086 C 202.945 176.719,203.868 176.258,204.063 176.063 C 204.531 175.595,208.215 173.971,208.809 173.971 C 209.065 173.971,209.590 173.708,209.976 173.386 C 210.362 173.065,212.280 172.326,214.238 171.745 C 216.196 171.165,217.998 170.553,218.242 170.387 C 218.487 170.221,220.037 169.642,221.686 169.101 C 223.335 168.560,224.800 167.930,224.942 167.701 C 225.084 167.471,225.930 166.978,226.822 166.606 C 227.715 166.233,228.552 165.772,228.683 165.582 C 228.814 165.391,229.937 164.736,231.178 164.125 C 232.419 163.513,234.121 162.505,234.960 161.884 C 235.799 161.263,236.835 160.631,237.264 160.480 C 237.692 160.329,238.042 159.996,238.042 159.739 C 238.042 156.419,248.180 149.944,253.377 149.944 C 254.144 149.944,254.981 149.735,255.237 149.479 C 255.493 149.223,257.438 148.835,259.559 148.616 C 263.533 148.206,266.243 147.493,267.408 146.551 C 267.775 146.254,269.377 145.566,270.968 145.021 C 272.558 144.477,274.255 143.760,274.737 143.428 C 275.220 143.097,275.937 142.825,276.331 142.825 C 277.253 142.825,283.060 141.035,283.664 140.565 C 283.917 140.367,285.318 140.011,286.778 139.773 C 288.238 139.535,289.991 139.125,290.674 138.863 C 291.356 138.600,293.058 138.269,294.456 138.127 C 295.853 137.986,297.984 137.584,299.191 137.233 C 300.398 136.883,302.210 136.596,303.218 136.596 C 304.225 136.596,305.300 136.346,305.606 136.040 C 306.033 135.612,312.651 135.427,334.282 135.236 C 362.717 134.985,367.560 134.707,369.299 133.229 C 369.666 132.916,370.567 132.523,371.301 132.355 C 373.313 131.894,376.560 130.799,377.075 130.409 C 377.325 130.218,379.032 129.600,380.868 129.034 C 382.703 128.468,384.505 127.755,384.872 127.450 C 385.239 127.145,386.240 126.702,387.097 126.464 C 391.297 125.299,395.106 121.609,395.106 118.705 C 395.106 116.755,397.684 113.220,398.506 114.042 C 398.671 114.207,399.070 114.122,399.394 113.854 C 400.072 113.290,399.367 111.469,398.643 111.916 C 398.410 112.060,398.220 111.899,398.220 111.559 C 398.220 110.951,395.511 108.840,393.326 107.745 C 390.492 106.325,388.447 105.097,386.352 103.557 C 385.101 102.638,383.390 101.598,382.549 101.247 C 381.708 100.895,380.760 100.296,380.444 99.914 C 380.128 99.533,379.520 99.221,379.095 99.221 C 378.669 99.221,377.577 98.631,376.669 97.909 C 375.760 97.187,373.319 95.739,371.245 94.692 C 369.170 93.644,366.732 92.036,365.827 91.118 C 364.923 90.199,363.963 89.444,363.695 89.440 C 363.426 89.436,362.443 88.691,361.510 87.785 C 359.698 86.025,357.040 84.093,356.431 84.093 C 356.227 84.093,355.809 83.790,355.501 83.420 C 355.194 83.050,354.719 82.795,354.446 82.853 C 353.843 82.983,351.057 81.369,351.057 80.890 C 351.057 80.452,347.229 78.510,344.622 77.625 C 343.516 77.249,342.107 76.438,341.492 75.823 C 338.857 73.188,335.526 73.192,334.864 75.831 C 334.581 76.958,332.643 79.199,331.952 79.199 C 331.744 79.199,331.459 79.499,331.319 79.867 C 331.178 80.234,330.860 80.534,330.612 80.534 C 328.704 80.534,318.586 89.772,318.568 91.531 C 318.556 92.664,315.967 96.641,315.449 96.322 C 315.211 96.175,315.017 96.266,315.017 96.525 C 315.017 96.785,314.682 96.997,314.273 96.997 C 313.864 96.997,313.213 97.282,312.827 97.631 C 312.243 98.159,308.368 98.290,289.878 98.410 L 267.631 98.554 262.959 97.057 C 260.389 96.233,257.971 95.282,257.585 94.943 C 257.198 94.604,256.698 94.320,256.472 94.312 C 255.854 94.290,254.060 92.692,254.060 92.164 C 254.060 91.910,253.809 91.541,253.503 91.346 C 252.892 90.956,250.501 87.563,250.501 87.086 C 250.501 86.408,247.614 82.759,247.078 82.759 C 246.758 82.759,246.496 82.600,246.496 82.407 C 246.496 81.331,242.193 77.449,240.187 76.715 C 239.775 76.565,239.331 76.161,239.199 75.818 C 239.068 75.475,238.631 75.195,238.229 75.195 C 237.224 75.195,233.559 72.054,232.089 69.933 L 230.879 68.186 230.956 42.729 C 231.048 12.776,231.763 15.903,224.747 15.575 C 222.099 15.452,219.652 15.126,219.310 14.852 C 218.968 14.578,217.912 14.214,216.964 14.043 C 216.016 13.872,214.915 13.560,214.517 13.350 C 214.119 13.140,213.493 12.858,213.126 12.723 C 212.759 12.588,211.657 11.969,210.679 11.348 C 209.700 10.728,208.548 10.099,208.120 9.952 C 207.692 9.805,207.341 9.542,207.341 9.367 C 207.341 9.193,206.491 8.428,205.451 7.669 C 204.410 6.909,202.604 5.424,201.437 4.367 C 195.965 -0.584,194.986 -0.924,192.727 1.335 " stroke="none" fill="#000000" fill-rule="evenodd"></path></g></svg>