<svg id="svg" version="1.1" xmlns="http://www.w3.org/2000/svg" xmlns:xlink="http://www.w3.org/1999/xlink" width="400" height="325.55391432791725" viewBox="0, 0, 400,325.55391432791725"><g id="svgg"><path id="path0" d="M314.589 1.491 C 313.633 2.272,312.649 2.921,312.403 2.933 C 312.156 2.945,310.853 3.752,309.507 4.727 C 308.162 5.702,306.826 6.499,306.539 6.499 C 306.253 6.499,305.030 6.943,303.821 7.485 C 302.613 8.027,300.295 8.801,298.671 9.204 C 295.776 9.921,294.921 10.166,288.331 12.162 C 285.605 12.988,280.608 13.219,257.312 13.600 C 242.038 13.849,228.213 14.324,226.588 14.655 C 218.472 16.306,213.465 17.545,212.299 18.191 C 211.589 18.585,210.260 18.909,209.345 18.911 C 208.430 18.913,206.919 19.311,205.989 19.797 C 205.058 20.282,203.955 20.679,203.538 20.679 C 202.669 20.679,199.114 23.653,199.114 24.380 C 199.114 25.025,191.394 32.496,190.727 32.496 C 190.439 32.496,189.426 33.071,188.475 33.774 C 184.020 37.067,152.831 35.286,143.632 31.212 C 140.398 29.780,140.051 30.187,140.039 35.419 C 140.029 39.578,138.370 42.934,135.728 44.141 C 131.447 46.097,129.822 46.612,126.700 47.002 C 124.790 47.241,122.363 47.797,121.307 48.238 C 120.252 48.679,118.578 49.040,117.589 49.040 C 116.599 49.040,115.327 49.275,114.763 49.562 C 114.199 49.849,112.939 50.447,111.965 50.891 C 106.863 53.215,97.022 59.553,94.014 62.451 C 92.916 63.510,91.815 64.251,91.569 64.099 C 91.323 63.947,90.393 64.817,89.503 66.032 C 87.675 68.529,78.005 77.991,77.281 77.991 C 77.022 77.991,76.344 78.390,75.775 78.879 C 72.178 81.967,69.558 84.000,66.212 86.304 C 64.121 87.744,61.602 89.653,60.615 90.547 C 59.628 91.440,58.642 92.171,58.424 92.171 C 58.206 92.171,57.174 92.969,56.130 93.944 C 55.086 94.919,53.951 95.716,53.606 95.716 C 53.261 95.716,52.558 96.132,52.044 96.641 C 51.529 97.149,48.848 98.866,46.086 100.455 C 41.200 103.267,34.173 109.858,33.344 112.408 C 33.159 112.976,32.754 113.442,32.443 113.442 C 32.133 113.442,30.463 114.904,28.732 116.691 C 27.001 118.479,25.278 119.941,24.904 119.941 C 24.530 119.941,24.225 120.162,24.225 120.432 C 24.225 120.701,23.067 121.754,21.652 122.770 C 20.237 123.786,18.443 125.288,17.664 126.109 C 16.885 126.930,16.082 127.606,15.879 127.612 C 14.564 127.648,5.691 136.520,4.787 138.704 C 4.350 139.758,3.771 140.620,3.500 140.620 C 3.229 140.620,2.832 141.555,2.618 142.697 C 2.404 143.839,1.861 144.979,1.412 145.230 C 0.519 145.730,-0.033 156.268,0.766 157.561 C 1.001 157.941,2.454 158.728,3.994 159.308 C 5.535 159.889,7.061 160.665,7.386 161.033 C 7.710 161.401,9.306 162.175,10.931 162.755 C 12.555 163.334,14.207 164.211,14.601 164.704 C 14.994 165.196,15.889 165.895,16.590 166.256 C 17.959 166.962,21.205 172.205,21.246 173.776 C 21.259 174.300,21.786 175.385,22.415 176.186 C 23.045 176.986,23.740 178.355,23.958 179.227 C 24.177 180.099,24.665 181.009,25.041 181.248 C 25.418 181.488,26.059 182.349,26.464 183.161 C 26.870 183.973,27.795 185.620,28.520 186.819 C 32.953 194.158,33.678 195.534,33.678 196.607 C 33.678 197.261,34.409 198.267,35.303 198.843 C 36.196 199.419,37.140 200.248,37.400 200.684 C 37.786 201.332,43.759 201.477,70.083 201.477 C 92.099 201.477,102.672 201.680,103.491 202.118 C 104.149 202.470,105.449 202.855,106.379 202.973 C 107.309 203.090,108.680 203.572,109.426 204.043 C 110.172 204.514,111.378 205.077,112.106 205.294 C 113.738 205.781,118.103 209.620,118.851 211.226 C 119.153 211.876,119.784 213.072,120.253 213.885 C 120.969 215.125,121.107 220.949,121.114 250.271 C 121.119 269.471,121.282 285.339,121.477 285.534 C 121.671 285.728,122.842 285.360,124.079 284.716 C 125.406 284.024,127.898 283.448,130.161 283.311 L 133.994 283.078 133.518 284.670 C 133.256 285.546,132.588 287.858,132.034 289.808 C 130.676 294.590,129.898 296.753,129.216 297.645 C 127.785 299.517,128.072 305.718,129.659 307.209 C 130.489 307.988,131.167 309.006,131.167 309.471 C 131.167 309.936,131.832 311.107,132.644 312.073 C 133.457 313.038,134.290 314.539,134.496 315.407 C 134.926 317.221,136.356 319.055,137.339 319.055 C 137.708 319.055,138.751 320.517,139.656 322.304 C 141.557 326.059,141.786 326.130,144.671 323.861 C 145.855 322.929,149.350 320.392,152.437 318.222 C 157.011 315.007,158.578 313.488,160.899 310.019 C 164.135 305.183,166.552 302.377,168.690 300.977 C 169.500 300.446,170.162 299.644,170.162 299.193 C 170.162 298.743,170.540 298.375,171.002 298.375 C 171.463 298.375,172.022 297.550,172.244 296.543 C 172.465 295.535,173.151 294.205,173.768 293.588 C 174.385 292.971,174.891 292.134,174.893 291.728 C 174.895 291.322,175.626 290.524,176.518 289.954 C 177.409 289.385,179.323 288.056,180.771 287.000 C 183.516 285.000,187.495 282.752,192.024 280.645 C 193.486 279.964,195.452 278.985,196.392 278.468 C 199.416 276.807,208.695 274.710,214.675 274.336 L 220.488 273.973 225.015 276.196 C 227.505 277.419,229.990 278.647,230.537 278.925 C 232.997 280.174,240.304 280.641,257.422 280.645 C 277.244 280.650,275.221 280.871,289.808 277.113 C 293.263 276.223,298.442 274.008,302.511 271.679 C 302.999 271.400,304.594 270.579,306.056 269.855 C 307.518 269.130,309.513 267.997,310.487 267.337 C 311.462 266.676,313.302 265.612,314.576 264.973 C 319.766 262.369,321.499 261.390,321.892 260.842 C 322.434 260.085,324.772 258.789,325.597 258.789 C 325.955 258.789,327.354 258.034,328.707 257.112 C 337.003 251.456,338.000 250.807,342.025 248.449 C 343.689 247.474,345.051 246.517,345.051 246.321 C 345.052 245.871,348.498 242.245,348.925 242.245 C 349.625 242.245,355.096 236.339,355.096 235.584 C 355.096 231.635,385.992 224.531,393.917 226.658 L 395.219 227.007 395.394 198.732 C 395.552 173.109,395.665 170.292,396.599 168.685 C 397.309 167.464,397.632 165.628,397.637 162.777 C 397.642 159.935,397.965 158.086,398.670 156.869 C 399.516 155.408,399.696 153.589,399.696 146.529 C 399.696 139.469,399.516 137.650,398.670 136.189 C 398.106 135.214,397.642 134.083,397.640 133.676 C 397.638 133.268,397.105 131.943,396.455 130.730 C 395.805 129.518,395.273 128.046,395.273 127.459 C 395.273 126.872,394.768 125.672,394.151 124.791 C 393.534 123.911,392.872 121.910,392.680 120.345 C 392.488 118.779,391.929 116.926,391.439 116.225 C 390.948 115.524,390.547 114.408,390.547 113.745 C 390.547 113.081,390.015 111.546,389.365 110.333 C 388.715 109.121,388.183 107.764,388.183 107.320 C 388.183 106.875,387.690 105.877,387.087 105.102 C 386.484 104.327,385.811 102.715,385.591 101.520 C 385.371 100.325,384.979 99.262,384.720 99.157 C 384.097 98.905,381.093 92.482,381.093 91.401 C 381.093 90.938,380.561 89.882,379.911 89.056 C 379.261 88.230,378.730 87.146,378.730 86.648 C 378.730 86.149,378.478 85.586,378.170 85.396 C 377.260 84.834,374.003 79.772,374.003 78.920 C 374.003 78.489,373.599 77.800,373.104 77.390 C 372.610 76.980,371.916 75.493,371.562 74.086 C 371.207 72.679,370.548 71.221,370.097 70.847 C 369.645 70.472,369.276 69.838,369.276 69.437 C 369.276 68.528,363.876 64.454,360.709 62.973 C 359.409 62.365,358.133 61.508,357.873 61.067 C 357.613 60.626,356.816 60.250,356.101 60.231 C 355.386 60.212,353.604 59.560,352.142 58.783 C 350.679 58.006,348.818 57.036,348.006 56.628 C 347.194 56.220,345.560 55.144,344.376 54.236 C 343.192 53.328,342.043 52.585,341.823 52.585 C 341.604 52.585,340.265 51.787,338.848 50.812 C 337.431 49.838,336.035 49.040,335.746 49.040 C 334.019 49.040,323.226 39.158,321.910 36.371 C 321.594 35.702,320.823 34.225,320.196 33.087 C 319.569 31.950,319.056 30.318,319.056 29.462 C 319.055 28.605,318.657 27.143,318.172 26.212 C 317.475 24.875,317.289 22.018,317.286 12.590 C 317.282 -0.288,317.196 -0.640,314.589 1.491 " stroke="none" fill="#000000" fill-rule="evenodd"></path></g></svg>