<svg id="svg" version="1.1" xmlns="http://www.w3.org/2000/svg" xmlns:xlink="http://www.w3.org/1999/xlink" width="400" height="189.86866791744842" viewBox="0, 0, 400,189.86866791744842"><g id="svgg"><path id="path0" d="M364.795 1.375 C 363.788 3.257,359.311 7.699,356.693 9.412 C 355.540 10.167,353.981 11.567,353.229 12.522 C 352.477 13.477,351.396 14.259,350.827 14.259 C 350.258 14.259,349.523 14.701,349.193 15.240 C 348.364 16.597,342.973 20.262,335.835 24.322 C 325.557 30.168,326.183 29.187,325.650 40.282 C 325.192 49.830,323.667 56.771,321.464 59.346 C 320.906 59.998,320.450 60.913,320.450 61.381 C 320.450 61.848,318.931 64.096,317.073 66.377 C 315.216 68.657,313.696 70.784,313.696 71.103 C 313.696 71.423,313.021 72.106,312.195 72.621 C 311.370 73.137,310.694 74.010,310.694 74.562 C 310.694 75.113,310.019 76.176,309.193 76.923 C 308.368 77.670,307.692 78.572,307.692 78.927 C 307.692 80.606,300.551 89.110,297.432 91.146 C 287.942 97.340,283.324 99.812,281.244 99.812 C 280.271 99.812,279.154 100.113,278.762 100.480 C 273.747 105.174,184.482 106.458,153.846 102.277 C 149.099 101.630,144.309 101.151,143.201 101.215 C 142.093 101.278,140.976 100.988,140.718 100.571 C 140.460 100.154,139.435 99.812,138.439 99.812 C 137.444 99.812,134.847 98.999,132.668 98.005 C 130.488 97.011,126.848 95.373,124.578 94.364 C 118.397 91.620,112.251 86.491,104.320 77.459 C 103.492 76.516,102.814 75.132,102.814 74.383 C 102.814 72.519,98.564 66.792,97.181 66.792 C 96.564 66.792,96.060 66.350,96.060 65.809 C 96.060 65.269,92.346 63.025,87.807 60.823 C 83.267 58.620,79.174 56.361,78.709 55.801 C 78.245 55.242,77.578 54.784,77.226 54.784 C 76.875 54.784,74.159 53.602,71.190 52.158 C 68.222 50.713,65.478 49.531,65.093 49.531 C 64.707 49.531,63.328 49.047,62.027 48.456 C 60.726 47.865,57.974 46.830,55.910 46.157 C 51.479 44.712,46.114 41.695,43.947 39.429 C 43.097 38.540,41.135 37.044,39.587 36.106 C 38.039 35.167,36.773 34.142,36.773 33.829 C 36.773 33.515,36.100 32.445,35.277 31.451 C 34.454 30.457,32.824 28.496,31.654 27.094 L 29.528 24.544 27.857 26.891 C 26.028 29.460,25.598 30.854,24.982 36.226 C 24.756 38.195,24.277 39.988,23.918 40.210 C 23.559 40.432,23.265 41.271,23.265 42.073 C 23.265 42.876,22.603 44.768,21.794 46.277 C 20.985 47.786,20.482 49.280,20.678 49.595 C 21.261 50.540,18.736 63.988,17.519 66.417 C 16.899 67.655,16.257 69.343,16.093 70.169 C 15.929 70.994,15.111 72.133,14.276 72.699 C 13.441 73.266,12.758 74.209,12.758 74.795 C 12.758 75.381,12.074 76.594,11.239 77.491 C 10.403 78.388,9.876 79.530,10.068 80.030 C 10.259 80.529,9.592 81.477,8.585 82.137 C 7.578 82.797,6.754 83.786,6.754 84.336 C 6.754 84.886,5.185 86.950,3.267 88.923 L -0.219 92.511 1.579 93.868 C 3.240 95.122,3.377 95.735,3.377 101.905 C 3.377 106.484,3.703 108.978,4.414 109.835 C 4.984 110.523,6.052 112.180,6.787 113.517 C 7.522 114.854,8.491 115.863,8.940 115.760 C 9.389 115.657,9.756 116.087,9.756 116.717 C 9.756 117.346,10.516 118.156,11.445 118.517 C 12.373 118.878,14.114 120.209,15.312 121.474 C 16.510 122.739,17.752 123.612,18.072 123.415 C 18.392 123.217,18.856 123.693,19.104 124.473 C 19.362 125.286,21.066 126.454,23.098 127.211 C 25.047 127.937,27.339 129.161,28.191 129.931 C 29.043 130.702,30.253 131.332,30.879 131.332 C 32.340 131.332,41.985 134.195,43.738 135.149 C 46.906 136.874,58.311 138.323,72.420 138.794 C 88.446 139.330,92.823 140.172,98.245 143.760 C 99.740 144.749,102.033 145.772,103.341 146.034 C 104.650 146.296,105.894 146.962,106.106 147.516 C 106.318 148.069,108.113 149.256,110.094 150.154 C 112.075 151.052,114.927 152.757,116.431 153.942 C 117.935 155.128,119.370 156.098,119.620 156.098 C 119.870 156.098,120.666 156.628,121.388 157.277 C 122.888 158.622,133.811 165.278,138.800 167.884 C 140.637 168.844,142.325 169.895,142.552 170.219 C 143.025 170.895,148.637 172.977,151.970 173.713 C 154.007 174.162,159.738 176.857,168.330 181.406 C 170.064 182.324,172.742 183.295,174.282 183.563 C 175.822 183.832,177.468 184.517,177.939 185.084 C 178.410 185.652,179.852 186.116,181.143 186.116 C 182.433 186.117,186.023 186.591,189.118 187.171 C 214.762 191.976,245.658 190.296,263.415 183.129 C 265.685 182.213,268.292 181.291,269.208 181.080 C 270.124 180.869,271.263 180.228,271.739 179.654 C 272.215 179.081,272.936 178.612,273.341 178.612 C 273.747 178.612,275.479 177.683,277.189 176.548 C 280.310 174.478,281.801 173.684,286.679 171.498 C 297.310 166.734,306.501 159.458,311.347 151.970 C 314.648 146.870,315.153 146.027,316.061 144.090 C 316.545 143.058,318.570 140.863,320.560 139.212 C 322.551 137.561,324.607 135.855,325.129 135.421 C 326.897 133.952,332.922 131.332,334.534 131.332 C 335.415 131.332,336.406 130.860,336.736 130.283 C 338.265 127.608,357.430 124.949,369.911 125.680 C 386.396 126.646,392.784 127.972,396.770 131.258 L 399.625 133.611 399.821 103.411 L 400.017 73.211 398.199 69.439 C 397.199 67.364,395.339 64.549,394.066 63.185 C 392.794 61.820,391.545 59.878,391.292 58.870 C 391.039 57.861,390.585 57.036,390.283 57.036 C 389.389 57.036,387.992 53.382,387.992 51.041 C 387.992 49.846,387.699 48.688,387.340 48.466 C 386.981 48.244,386.448 44.690,386.156 40.569 C 385.753 34.885,385.276 32.632,384.182 31.241 C 383.388 30.232,382.739 29.171,382.739 28.883 C 382.739 28.595,381.881 27.297,380.831 26.000 C 379.782 24.702,378.347 22.858,377.642 21.904 C 376.937 20.949,375.769 19.513,375.047 18.714 C 374.325 17.915,373.734 16.975,373.734 16.627 C 373.734 16.278,373.058 15.381,372.233 14.634 C 371.407 13.887,370.732 12.698,370.732 11.992 C 370.732 11.287,370.068 9.865,369.256 8.833 C 368.444 7.801,367.555 5.553,367.281 3.837 C 366.701 0.207,365.864 -0.621,364.795 1.375 " stroke="none" fill="#000000" fill-rule="evenodd"></path></g></svg>