<svg id="svg" version="1.1" xmlns="http://www.w3.org/2000/svg" xmlns:xlink="http://www.w3.org/1999/xlink" width="400" height="346.9387755102041" viewBox="0, 0, 400,346.9387755102041"><g id="svgg"><path id="path0" d="M59.781 2.140 C 58.804 3.317,55.700 5.457,52.882 6.894 C 50.064 8.332,46.224 11.042,44.349 12.917 C 42.474 14.792,40.307 16.327,39.533 16.327 C 38.759 16.327,34.361 19.235,29.761 22.789 C 18.977 31.121,6.824 39.456,5.461 39.456 C 4.875 39.456,3.340 41.066,2.050 43.034 C -0.447 46.845,2.389 50.468,16.042 60.903 C 18.258 62.598,23.021 66.730,26.625 70.087 C 30.230 73.444,33.979 76.190,34.957 76.190 C 35.935 76.190,36.735 76.719,36.735 77.365 C 36.735 78.011,40.255 80.203,44.558 82.235 C 48.861 84.268,53.912 86.791,55.782 87.843 C 57.893 89.030,63.314 89.772,70.068 89.799 C 90.664 89.882,107.483 96.058,107.483 103.538 C 107.483 104.776,108.401 106.551,109.524 107.483 C 111.292 108.950,111.577 119.477,111.660 186.221 C 111.713 228.595,112.172 264.306,112.681 265.579 C 113.707 268.146,123.248 275.384,136.535 283.673 C 141.501 286.772,146.269 290.967,147.606 293.414 C 148.898 295.778,153.025 300.654,156.778 304.251 C 162.927 310.143,167.794 316.390,172.349 324.234 C 173.229 325.750,174.913 327.530,176.091 328.189 C 177.268 328.848,178.231 330.195,178.231 331.182 C 178.231 332.170,181.752 334.583,186.054 336.544 C 190.357 338.506,194.796 340.668,195.918 341.348 C 198.178 342.718,216.008 345.219,232.687 346.505 C 238.676 346.967,248.817 346.620,255.422 345.727 C 261.981 344.841,284.337 343.955,305.103 343.758 C 344.689 343.383,345.184 343.301,346.330 336.986 C 347.606 329.945,371.672 302.041,376.468 302.041 C 377.438 302.041,378.231 301.481,378.231 300.797 C 378.231 300.113,381.446 297.599,385.374 295.211 C 402.102 285.041,405.687 274.854,392.128 276.022 C 389.648 276.236,386.884 275.833,385.986 275.127 C 385.088 274.421,380.680 272.788,376.190 271.497 C 371.701 270.206,363.741 267.640,358.503 265.795 C 353.265 263.950,345.918 261.650,342.177 260.684 C 338.435 259.717,333.003 257.913,330.106 256.674 C 327.208 255.435,323.229 254.407,321.262 254.388 C 313.850 254.319,293.486 245.983,287.618 240.616 C 286.045 239.178,282.666 237.814,280.109 237.584 C 277.551 237.355,274.117 236.449,272.478 235.572 C 270.839 234.694,266.565 233.613,262.980 233.169 C 259.395 232.724,255.544 232.243,254.422 232.100 C 253.299 231.957,250.850 231.001,248.980 229.976 C 247.109 228.950,245.578 228.316,245.578 228.566 C 245.578 229.744,226.088 222.366,222.803 219.944 C 216.701 215.445,216.747 206.477,222.914 198.477 C 225.216 195.491,229.780 181.237,230.489 174.817 C 230.656 173.313,231.436 170.930,232.225 169.521 C 233.013 168.113,233.359 165.820,232.995 164.425 C 232.630 163.031,232.936 161.128,233.675 160.197 C 235.248 158.214,237.223 133.077,237.336 113.605 L 237.415 100.000 233.254 97.919 C 230.965 96.775,225.761 92.643,221.689 88.737 C 217.617 84.831,213.501 81.635,212.542 81.634 C 211.583 81.633,210.478 80.796,210.085 79.772 C 209.693 78.749,205.732 75.276,201.284 72.054 C 196.836 68.831,193.197 65.689,193.197 65.070 C 193.197 64.452,192.300 63.946,191.204 63.946 C 190.108 63.946,188.556 62.721,187.755 61.224 C 186.954 59.728,185.659 58.503,184.877 58.503 C 184.094 58.503,180.289 56.436,176.421 53.910 C 166.616 47.506,151.990 40.816,147.792 40.816 C 145.857 40.816,141.964 39.942,139.143 38.874 C 136.322 37.806,128.940 36.682,122.739 36.375 C 116.538 36.069,110.752 35.106,109.882 34.236 C 109.012 33.365,107.312 32.653,106.105 32.653 C 104.899 32.653,99.358 28.510,93.792 23.447 C 67.771 -0.227,63.807 -2.710,59.781 2.140 " stroke="none" fill="#000000" fill-rule="evenodd"></path></g></svg>