<svg id="svg" version="1.1" xmlns="http://www.w3.org/2000/svg" xmlns:xlink="http://www.w3.org/1999/xlink" width="400" height="361.5615615615616" viewBox="0, 0, 400,361.5615615615616"><g id="svgg"><path id="path0" d="M157.847 1.657 C 156.226 5.883,157.899 51.216,159.760 53.456 C 162.148 56.331,162.406 91.106,160.060 93.932 C 159.234 94.927,158.232 99.200,157.832 103.426 C 157.139 110.757,153.265 123.077,149.502 129.915 C 148.537 131.669,147.748 134.109,147.748 135.338 C 147.748 136.567,146.667 139.590,145.345 142.055 C 144.024 144.521,142.943 147.555,142.943 148.798 C 142.943 150.040,142.221 151.656,141.339 152.388 C 140.457 153.120,138.993 156.024,138.086 158.842 C 137.179 161.659,135.991 164.277,135.446 164.660 C 134.901 165.043,134.012 168.155,133.471 171.576 C 132.930 174.997,131.597 178.780,130.508 179.984 C 129.419 181.187,128.529 182.992,128.529 183.995 C 128.529 184.998,127.583 186.968,126.426 188.374 C 125.270 189.779,122.973 192.820,121.321 195.131 C 119.670 197.442,117.778 199.359,117.117 199.390 C 115.731 199.455,105.370 209.114,100.806 214.594 C 95.578 220.873,74.474 222.950,74.474 217.186 C 74.474 216.670,72.455 215.405,69.986 214.373 C 65.064 212.316,60.060 208.135,60.060 206.079 C 60.060 205.359,59.051 202.885,57.818 200.583 C 56.585 198.280,55.173 194.505,54.681 192.192 C 54.189 189.880,53.092 187.177,52.243 186.186 C 51.393 185.195,50.508 183.349,50.274 182.084 C 49.702 178.985,42.310 174.859,40.307 176.522 C 39.488 177.201,38.575 177.514,38.277 177.216 C 36.813 175.752,21.622 192.625,21.622 195.716 C 21.622 196.420,21.144 196.997,20.560 196.997 C 19.190 196.997,15.036 207.526,12.644 217.059 C 10.809 224.373,8.450 230.079,3.311 239.640 C -3.200 251.750,1.800 264.131,17.303 274.289 C 19.106 275.470,21.491 277.231,22.603 278.202 C 27.462 282.445,36.192 288.288,37.671 288.288 C 38.559 288.288,42.744 290.986,46.970 294.283 C 51.197 297.581,56.284 301.048,58.275 301.989 C 62.212 303.849,68.838 311.403,70.145 315.522 C 70.595 316.939,73.645 321.685,76.923 326.070 C 80.201 330.456,82.883 334.520,82.883 335.103 C 82.883 335.685,84.234 337.225,85.886 338.524 C 87.538 339.823,88.889 341.365,88.889 341.951 C 88.889 344.062,104.045 356.757,106.565 356.757 C 106.980 356.757,108.364 357.703,109.642 358.859 C 111.786 360.798,116.353 360.961,168.700 360.961 L 225.434 360.961 234.038 354.419 C 238.771 350.821,242.643 347.173,242.643 346.311 C 242.643 345.450,243.453 344.745,244.444 344.745 C 245.435 344.745,246.246 344.145,246.246 343.411 C 246.246 341.528,253.643 330.330,254.887 330.330 C 255.452 330.330,256.429 328.979,257.057 327.327 C 257.685 325.676,258.716 324.324,259.349 324.324 C 259.981 324.324,260.875 323.138,261.335 321.689 C 262.339 318.526,265.687 315.502,271.772 312.261 C 277.217 309.360,277.351 307.647,272.673 300.715 C 270.691 297.778,269.069 294.622,269.069 293.702 C 269.069 292.781,267.955 291.248,266.593 290.294 C 265.103 289.250,263.896 286.779,263.562 284.089 C 263.257 281.630,262.480 278.632,261.834 277.426 C 261.189 276.220,260.661 273.943,260.661 272.366 C 260.661 270.605,258.579 267.326,255.265 263.868 C 244.530 252.664,243.243 249.731,243.243 236.469 C 243.243 220.882,246.946 217.436,263.664 217.465 C 267.628 217.472,272.689 217.443,274.912 217.401 C 279.214 217.319,288.899 220.455,291.892 222.900 C 292.883 223.710,298.559 226.329,304.505 228.720 C 310.450 231.112,316.254 233.601,317.401 234.252 C 318.548 234.903,320.088 235.435,320.823 235.435 C 321.558 235.435,324.133 236.301,326.545 237.360 C 328.957 238.418,332.282 239.835,333.934 240.509 C 335.586 241.183,338.288 242.409,339.940 243.235 C 341.592 244.060,345.000 245.105,347.513 245.557 C 351.902 246.347,356.967 250.553,357.444 253.804 C 357.567 254.638,359.003 257.289,360.637 259.697 C 363.298 263.619,365.470 272.673,365.326 279.245 C 365.114 288.922,384.725 287.986,392.806 277.934 C 398.795 270.484,399.179 268.526,399.245 245.136 C 399.335 213.100,398.259 202.800,393.932 194.286 C 391.992 190.468,390.489 186.948,390.592 186.465 C 390.802 185.472,388.676 179.820,386.472 175.514 C 385.666 173.938,383.805 171.862,382.337 170.900 C 380.869 169.938,377.643 166.099,375.167 162.369 C 368.458 152.262,351.811 135.888,347.333 134.992 C 345.299 134.585,342.854 133.060,341.899 131.602 C 339.184 127.459,321.245 109.216,318.121 107.421 C 316.578 106.534,314.173 105.287,312.776 104.648 C 311.380 104.010,309.919 102.658,309.531 101.645 C 309.142 100.631,306.618 98.410,303.922 96.708 C 301.227 95.007,297.145 91.537,294.851 88.998 C 292.506 86.403,289.105 84.067,287.082 83.663 C 285.103 83.267,283.483 82.228,283.483 81.355 C 283.483 79.249,274.852 70.883,272.622 70.827 C 271.659 70.803,267.087 67.239,262.462 62.907 C 257.838 58.574,252.155 54.054,249.834 52.861 C 245.307 50.534,239.039 44.819,239.039 43.018 C 239.039 42.414,237.282 41.128,235.135 40.161 C 232.988 39.194,230.420 37.933,229.429 37.359 C 228.438 36.784,226.056 35.576,224.135 34.674 C 222.214 33.771,220.388 32.063,220.077 30.877 C 219.390 28.257,211.463 24.024,207.243 24.024 C 205.559 24.024,203.255 22.943,202.124 21.622 C 200.992 20.300,198.779 19.219,197.205 19.219 C 195.631 19.219,191.652 17.868,188.364 16.216 C 185.076 14.565,181.839 13.213,181.172 13.213 C 180.505 13.213,178.584 12.132,176.904 10.811 C 175.225 9.489,172.669 8.408,171.225 8.408 C 169.782 8.408,166.341 6.474,163.578 4.109 C 159.553 0.664,158.415 0.177,157.847 1.657 " stroke="none" fill="#000000" fill-rule="evenodd"></path></g></svg>