<svg id="svg" version="1.1" xmlns="http://www.w3.org/2000/svg" xmlns:xlink="http://www.w3.org/1999/xlink" width="400" height="253.95894428152494" viewBox="0, 0, 400,253.95894428152494"><g id="svgg"><path id="path0" d="M167.917 0.641 C 166.885 0.944,165.880 1.451,165.683 1.769 C 165.487 2.086,164.682 2.346,163.895 2.346 C 163.108 2.346,162.463 2.654,162.463 3.030 C 162.463 3.407,162.300 3.551,162.099 3.351 C 161.899 3.150,160.782 3.634,159.617 4.426 C 158.452 5.217,157.164 5.865,156.755 5.865 C 156.346 5.865,156.012 6.119,156.012 6.429 C 156.012 6.739,155.441 7.525,154.742 8.175 C 153.892 8.967,153.326 10.443,153.027 12.645 C 152.545 16.199,151.282 19.342,149.864 20.519 C 149.374 20.925,148.974 21.489,148.974 21.771 C 148.974 22.054,148.065 23.550,146.954 25.095 C 143.803 29.482,141.349 34.538,141.349 36.645 C 141.349 37.701,140.976 38.875,140.521 39.253 C 140.065 39.631,139.379 41.248,138.996 42.846 C 138.612 44.444,138.076 45.889,137.805 46.057 C 137.533 46.224,137.135 47.535,136.920 48.968 C 136.705 50.402,136.179 51.866,135.751 52.221 C 135.323 52.576,134.808 53.618,134.606 54.537 C 134.404 55.455,133.859 56.353,133.395 56.531 C 132.931 56.709,132.551 57.298,132.551 57.839 C 132.551 58.380,131.562 60.266,130.352 62.031 C 129.142 63.795,127.889 65.670,127.566 66.197 C 127.243 66.724,126.830 67.287,126.647 67.449 C 126.464 67.610,123.957 70.367,121.075 73.576 C 118.194 76.785,115.242 80.006,114.516 80.734 C 113.790 81.462,113.196 82.350,113.196 82.706 C 113.196 83.062,112.968 83.212,112.688 83.039 C 112.240 82.763,104.399 92.162,104.399 92.976 C 104.399 93.151,103.459 94.234,102.311 95.382 C 101.162 96.531,100.004 98.045,99.737 98.748 C 99.470 99.450,98.496 100.415,97.573 100.892 C 95.304 102.065,88.294 107.194,86.033 109.337 C 84.982 110.333,83.107 111.438,78.006 114.067 C 77.199 114.483,73.372 116.371,69.501 118.262 C 65.630 120.153,62.375 121.899,62.268 122.141 C 62.160 122.383,61.619 122.581,61.065 122.581 C 60.512 122.581,59.808 122.831,59.501 123.137 C 59.195 123.442,55.513 125.428,51.320 127.549 C 42.798 131.858,43.185 131.638,36.493 136.002 C 33.822 137.744,31.447 139.495,31.214 139.894 C 30.982 140.293,29.813 141.279,28.618 142.085 C 27.422 142.890,26.608 143.714,26.809 143.916 C 27.010 144.117,26.722 144.282,26.168 144.282 C 25.580 144.282,24.820 145.096,24.344 146.234 C 23.895 147.308,23.117 148.528,22.615 148.945 C 22.112 149.363,21.701 149.920,21.701 150.185 C 21.701 150.449,20.663 152.330,19.393 154.365 C 18.124 156.400,16.895 158.856,16.661 159.824 C 16.428 160.792,15.859 162.167,15.397 162.881 C 14.764 163.859,14.486 167.178,14.268 176.371 C 14.062 185.101,13.744 189.088,13.148 190.411 C 12.691 191.428,12.317 192.827,12.317 193.521 C 12.317 194.215,11.792 195.758,11.151 196.951 C 9.136 200.698,7.625 204.575,7.625 205.996 C 7.625 208.534,6.059 209.971,3.290 209.971 C -1.441 209.971,-0.625 211.953,5.337 214.945 C 8.863 216.715,10.561 217.319,14.956 218.367 C 15.279 218.444,16.422 219.160,17.498 219.957 C 18.573 220.755,19.629 221.414,19.844 221.423 C 20.413 221.445,24.047 225.224,24.047 225.794 C 24.047 226.473,27.384 227.561,29.560 227.592 C 31.790 227.623,35.983 229.062,36.259 229.891 C 36.370 230.225,36.706 230.499,37.004 230.499 C 37.303 230.499,40.382 231.752,43.847 233.284 L 50.147 236.070 64.516 236.110 C 78.775 236.149,78.915 236.162,82.698 237.741 C 84.795 238.616,88.094 239.731,90.029 240.217 C 96.040 241.729,98.926 243.306,103.174 247.401 C 104.296 248.483,107.249 247.871,115.543 244.839 C 120.561 243.004,124.550 242.748,126.686 244.123 C 135.009 249.481,154.378 253.959,169.233 253.959 C 178.308 253.959,179.427 253.695,183.284 250.642 C 184.252 249.876,185.315 249.034,185.646 248.771 C 185.977 248.508,187.032 247.792,187.992 247.181 C 188.951 246.569,189.868 245.915,190.029 245.728 C 191.846 243.624,207.662 239.938,215.037 239.901 C 217.022 239.891,220.837 239.253,223.541 238.479 C 231.346 236.246,233.918 235.849,241.307 235.740 C 250.057 235.610,258.291 232.461,262.757 227.536 C 262.918 227.358,264.366 226.302,265.975 225.190 C 267.583 224.077,269.262 222.827,269.705 222.411 C 271.057 221.142,275.891 218.888,278.181 218.459 C 282.693 217.612,283.759 218.799,287.680 229.032 C 291.878 239.988,292.246 240.626,295.260 242.177 C 298.265 243.724,302.601 244.111,307.038 243.229 C 308.328 242.972,311.255 242.522,313.541 242.229 C 321.702 241.181,325.831 240.391,327.509 239.557 C 328.446 239.091,329.708 238.710,330.314 238.710 C 330.920 238.710,332.397 238.292,333.597 237.782 C 335.908 236.799,336.006 236.775,341.935 235.734 C 350.551 234.221,351.906 233.914,351.906 233.470 C 351.906 233.071,355.150 231.928,359.238 230.886 C 359.883 230.722,362.126 229.841,364.223 228.930 C 367.886 227.337,368.424 227.270,378.006 227.209 C 383.490 227.174,388.432 227.108,388.988 227.062 C 390.474 226.941,391.569 224.357,392.380 219.062 C 392.775 216.481,393.595 212.406,394.203 210.007 C 394.811 207.607,395.308 204.884,395.308 203.954 C 395.308 202.166,398.697 193.392,399.516 193.060 C 400.206 192.781,399.426 189.932,398.308 188.648 C 397.787 188.050,397.427 187.456,397.507 187.328 C 399.191 184.668,390.222 177.713,385.107 177.713 C 384.395 177.713,383.535 177.435,383.196 177.096 C 382.487 176.387,377.565 174.918,373.386 174.168 C 371.813 173.885,370.077 173.248,369.528 172.751 C 368.979 172.254,367.611 171.848,366.488 171.848 C 365.366 171.848,363.935 171.460,363.309 170.986 C 362.682 170.513,361.642 170.115,360.997 170.103 C 360.352 170.090,359.032 169.556,358.065 168.915 C 357.097 168.274,355.430 167.748,354.360 167.746 C 353.291 167.744,351.839 167.431,351.134 167.050 C 350.430 166.670,348.798 166.303,347.507 166.236 C 346.196 166.168,343.293 165.180,340.925 163.996 C 338.596 162.830,336.325 161.877,335.879 161.877 C 335.434 161.877,333.249 161.196,331.025 160.363 C 326.167 158.545,322.034 157.286,318.495 156.547 C 317.054 156.246,315.656 155.607,315.387 155.126 C 315.118 154.645,314.571 154.252,314.171 154.252 C 313.325 154.252,309.034 152.135,308.545 151.475 C 308.361 151.228,306.323 149.747,304.015 148.184 C 301.707 146.620,299.311 144.772,298.689 144.078 C 297.230 142.449,293.370 139.003,293.004 139.003 C 292.849 139.003,292.084 138.409,291.305 137.683 C 290.525 136.957,289.260 135.788,288.492 135.084 C 285.934 132.737,284.457 131.050,284.457 130.472 C 284.457 130.158,283.930 129.571,283.284 129.168 C 282.639 128.765,282.111 128.083,282.111 127.652 C 282.111 127.221,281.584 126.390,280.938 125.806 C 280.293 125.223,279.765 124.431,279.765 124.047 C 279.765 123.663,279.238 122.871,278.592 122.287 C 277.947 121.704,277.419 120.771,277.419 120.216 C 277.419 119.660,277.036 118.887,276.568 118.499 C 276.100 118.110,275.539 116.561,275.321 115.055 C 275.104 113.549,274.629 111.947,274.266 111.494 C 273.597 110.660,273.354 91.107,273.834 76.833 C 273.959 73.123,273.927 69.428,273.762 68.622 C 273.598 67.815,273.430 66.949,273.389 66.696 C 273.203 65.560,269.114 62.168,267.908 62.151 C 267.172 62.141,266.057 61.745,265.430 61.272 C 264.804 60.798,263.847 60.411,263.303 60.411 C 262.759 60.411,261.985 60.015,261.584 59.531 C 261.182 59.047,260.181 58.651,259.359 58.651 C 258.536 58.651,257.447 58.290,256.938 57.849 C 253.525 54.893,247.878 51.632,244.575 50.710 C 243.768 50.485,242.713 49.971,242.229 49.567 C 241.745 49.164,240.689 48.685,239.883 48.504 C 235.281 47.470,232.998 46.764,231.859 46.022 C 231.156 45.563,229.441 45.014,228.047 44.801 C 226.653 44.589,225.249 44.210,224.927 43.961 C 224.604 43.711,223.360 43.324,222.162 43.100 C 220.963 42.876,219.677 42.324,219.304 41.874 C 218.930 41.424,217.601 41.056,216.350 41.056 C 215.100 41.056,214.076 40.792,214.076 40.469 C 214.076 40.147,213.584 39.883,212.982 39.883 C 212.381 39.883,211.259 39.391,210.490 38.790 C 209.720 38.190,208.480 37.506,207.733 37.272 C 206.085 36.756,200.883 31.562,198.507 28.062 C 197.556 26.660,196.447 25.302,196.043 25.044 C 195.639 24.786,195.308 24.228,195.308 23.804 C 195.308 23.379,194.802 22.389,194.183 21.602 C 193.564 20.816,192.879 19.215,192.659 18.045 C 192.440 16.874,191.915 15.785,191.493 15.623 C 191.072 15.461,190.545 14.501,190.323 13.490 C 190.100 12.478,189.548 11.509,189.094 11.335 C 188.641 11.161,188.270 10.519,188.270 9.908 C 188.270 9.297,187.780 8.308,187.182 7.710 C 186.583 7.111,185.933 5.981,185.736 5.198 C 184.704 1.085,174.930 -1.414,167.917 0.641 " stroke="none" fill="#000000" fill-rule="evenodd"></path></g></svg>