<svg id="svg" version="1.1" xmlns="http://www.w3.org/2000/svg" xmlns:xlink="http://www.w3.org/1999/xlink" width="400" height="553.6585365853659" viewBox="0, 0, 400,553.6585365853659"><g id="svgg"><path id="path0" d="M218.089 5.325 C 218.778 13.995,194.605 35.366,184.108 35.366 C 183.168 35.366,180.185 36.155,177.480 37.119 C 174.774 38.083,168.445 40.053,163.415 41.495 C 151.268 44.978,143.952 47.455,140.244 49.339 C 138.567 50.191,135.686 51.247,133.841 51.687 C 131.997 52.126,130.488 53.024,130.488 53.682 C 130.488 54.340,129.854 54.878,129.079 54.878 C 126.878 54.878,119.512 60.914,119.512 62.718 C 119.512 63.607,118.758 64.962,117.835 65.727 C 116.913 66.493,115.798 69.374,115.357 72.129 C 114.916 74.884,113.750 78.289,112.766 79.694 C 111.781 81.100,110.976 82.926,110.976 83.753 C 110.976 85.756,106.106 90.529,102.381 92.177 C 100.736 92.904,97.600 94.276,95.413 95.225 C 93.225 96.173,91.149 97.851,90.799 98.953 C 90.116 101.104,86.686 102.396,81.585 102.422 C 76.967 102.447,58.537 116.938,58.537 120.544 C 58.537 121.318,57.817 121.951,56.937 121.951 C 55.313 121.951,50.000 128.290,50.000 130.226 C 50.000 131.456,44.759 136.585,43.502 136.585 C 42.063 136.585,21.951 156.778,21.951 158.223 C 21.951 158.969,20.106 161.128,17.850 163.021 C 15.594 164.914,13.081 167.745,12.264 169.311 C 11.447 170.876,8.881 172.951,6.560 173.921 C 4.239 174.890,2.691 176.250,3.119 176.943 C 3.547 177.636,3.007 179.187,1.918 180.390 C 0.148 182.345,0.136 182.741,1.799 184.121 C 2.822 184.970,3.661 186.558,3.663 187.649 C 3.673 191.826,13.999 209.904,20.323 216.814 C 25.177 222.120,44.048 224.452,71.951 223.196 C 86.201 222.554,106.098 231.614,106.098 238.743 C 106.098 239.414,107.470 240.862,109.146 241.961 C 110.823 243.060,112.195 244.769,112.195 245.760 C 112.195 246.750,113.293 248.659,114.634 250.000 C 116.475 251.841,117.073 254.065,117.073 259.074 C 117.073 262.724,117.622 266.049,118.293 266.463 C 119.882 267.446,119.882 282.554,118.293 283.537 C 116.775 284.474,116.662 301.220,118.173 301.220 C 119.739 301.220,121.951 308.151,121.951 313.059 C 121.951 315.346,122.442 316.913,123.043 316.542 C 124.430 315.685,125.192 317.703,126.293 325.149 C 126.776 328.421,128.193 332.406,129.440 334.006 C 130.687 335.606,131.707 338.289,131.707 339.969 C 131.707 341.649,132.595 343.673,133.681 344.467 C 136.998 346.892,140.800 398.712,137.875 401.637 C 135.683 403.829,136.197 440.311,138.485 444.897 C 139.530 446.992,140.713 450.729,141.115 453.202 C 141.516 455.675,142.856 458.710,144.093 459.947 C 145.330 461.183,146.341 463.709,146.341 465.560 C 146.341 467.605,147.299 469.523,148.780 470.449 C 150.122 471.286,151.220 472.771,151.220 473.748 C 151.220 474.725,152.317 476.111,153.659 476.829 C 155.448 477.787,156.098 479.383,156.098 482.820 C 156.098 485.510,156.881 488.157,157.938 489.033 C 158.950 489.873,160.112 492.651,160.521 495.205 C 160.929 497.759,161.999 500.132,162.899 500.477 C 163.799 500.822,164.898 503.841,165.342 507.186 C 165.785 510.530,166.853 513.537,167.715 513.868 C 168.577 514.199,169.680 516.290,170.166 518.515 C 170.652 520.740,172.076 523.870,173.330 525.469 C 174.584 527.069,175.610 529.042,175.610 529.854 C 175.610 530.665,176.707 532.323,178.049 533.537 C 179.390 534.751,180.488 536.729,180.488 537.933 C 180.488 539.137,181.202 540.562,182.076 541.098 C 182.949 541.634,185.281 544.695,187.258 547.900 L 190.854 553.727 203.049 553.261 C 215.365 552.790,236.100 549.662,239.972 547.689 C 241.128 547.101,245.091 545.347,248.780 543.792 C 255.475 540.971,267.066 533.444,267.082 531.908 C 267.086 531.462,269.016 529.786,271.369 528.183 C 273.723 526.580,275.974 523.973,276.371 522.390 C 276.769 520.807,277.576 519.512,278.165 519.512 C 278.754 519.512,279.994 517.729,280.920 515.549 C 281.846 513.369,284.598 509.555,287.034 507.073 C 289.470 504.591,291.463 501.842,291.463 500.964 C 291.463 500.086,292.561 498.682,293.902 497.844 C 295.244 497.006,296.341 495.569,296.341 494.651 C 296.341 493.733,297.124 492.332,298.080 491.539 C 303.423 487.104,305.166 480.361,305.664 462.195 C 306.063 447.650,306.538 443.971,308.340 441.463 C 309.545 439.787,310.836 437.591,311.209 436.585 C 311.582 435.579,314.289 433.454,317.224 431.863 C 320.160 430.272,324.756 427.776,327.439 426.317 C 331.648 424.027,337.607 420.197,349.533 412.117 C 351.082 411.068,353.628 408.873,355.191 407.239 C 360.843 401.334,370.972 393.227,376.555 390.141 C 383.267 386.431,383.860 384.871,384.025 370.501 C 384.146 359.959,384.171 359.876,389.024 354.268 C 391.707 351.168,393.943 347.705,393.993 346.572 C 394.177 342.400,395.219 338.310,397.139 334.227 C 399.309 329.612,400.839 232.851,398.982 217.683 C 398.108 210.541,388.742 195.122,385.279 195.122 C 384.656 195.122,384.146 194.389,384.146 193.492 C 384.146 192.596,381.347 189.715,377.925 187.090 C 374.503 184.465,370.525 181.171,369.084 179.771 C 366.313 177.078,349.067 168.293,346.552 168.293 C 345.737 168.293,341.652 166.710,337.474 164.775 C 333.296 162.841,327.409 160.321,324.390 159.175 C 321.372 158.030,317.256 156.357,315.244 155.459 C 313.232 154.561,310.299 153.461,308.727 153.014 C 307.155 152.567,303.508 150.609,300.623 148.662 C 297.738 146.715,294.530 145.122,293.493 145.122 C 292.456 145.122,291.226 144.505,290.760 143.751 C 290.294 142.997,286.460 140.814,282.241 138.901 C 278.022 136.988,274.222 134.861,273.798 134.175 C 273.374 133.488,272.032 132.927,270.816 132.927 C 268.630 132.927,249.327 122.468,239.722 116.079 C 236.991 114.262,233.751 110.724,232.522 108.217 C 231.292 105.710,229.783 103.659,229.168 103.659 C 228.552 103.659,228.049 102.141,228.049 100.287 C 228.049 98.432,226.962 94.888,225.635 92.411 C 219.843 81.604,216.026 18.976,220.783 12.805 C 223.648 9.088,223.487 0.000,220.557 0.000 C 217.891 0.000,217.698 0.416,218.089 5.325 " stroke="none" fill="#000000" fill-rule="evenodd"></path></g></svg>