<svg id="svg" version="1.1" xmlns="http://www.w3.org/2000/svg" xmlns:xlink="http://www.w3.org/1999/xlink" width="400" height="307.36842105263156" viewBox="0, 0, 400,307.36842105263156"><g id="svgg"><path id="path0" d="M158.445 4.043 C 157.621 6.406,156.529 8.209,156.017 8.050 C 154.031 7.432,146.133 14.579,145.348 17.704 C 144.893 19.518,142.635 21.977,140.331 23.168 C 138.026 24.360,136.140 25.955,136.140 26.712 C 136.140 27.469,132.351 31.820,127.719 36.380 C 123.088 40.940,119.298 45.280,119.298 46.023 C 119.298 46.767,118.351 48.162,117.193 49.123 C 116.035 50.084,115.088 52.477,115.088 54.441 C 115.088 56.405,114.665 57.589,114.149 57.073 C 112.911 55.835,108.070 60.266,108.070 62.638 C 108.070 63.656,106.252 65.430,104.030 66.579 C 101.807 67.728,99.617 69.639,99.161 70.825 C 98.706 72.012,97.464 72.982,96.400 72.982 C 94.370 72.982,81.997 85.640,82.458 87.246 C 82.605 87.758,79.708 91.231,76.020 94.965 C 72.332 98.699,67.242 104.441,64.710 107.725 C 61.816 111.478,57.154 115.127,52.158 117.549 C 47.787 119.669,43.501 122.864,42.634 124.650 C 41.766 126.435,40.819 127.816,40.528 127.717 C 38.192 126.925,15.768 141.043,7.085 148.772 C -0.115 155.181,-1.806 169.825,4.654 169.825 C 6.927 169.825,18.246 180.604,18.246 182.770 C 18.246 185.441,49.674 219.431,54.489 221.966 C 56.467 223.008,60.640 226.620,63.764 229.994 C 71.957 238.846,83.605 243.759,100.613 245.537 C 125.224 248.110,128.288 248.550,129.769 249.731 C 130.571 250.372,133.439 251.218,136.140 251.612 C 148.454 253.408,159.327 255.699,160.654 256.777 C 161.452 257.426,166.842 258.302,172.632 258.724 C 181.576 259.375,192.011 260.900,200.702 262.826 C 201.860 263.083,204.070 263.941,205.614 264.733 C 207.158 265.525,211.263 266.981,214.737 267.969 C 225.085 270.913,227.073 271.953,235.711 278.936 C 241.407 283.542,244.552 287.299,245.845 291.044 C 247.436 295.651,248.675 296.792,254.035 298.576 C 257.509 299.733,262.246 302.026,264.561 303.673 C 278.323 313.458,296.372 297.651,298.914 273.588 C 299.601 267.079,301.153 258.991,302.362 255.613 C 303.572 252.235,304.566 247.814,304.571 245.788 C 304.576 243.763,305.835 240.211,307.368 237.895 C 308.902 235.579,310.161 232.554,310.166 231.172 C 310.171 229.791,311.439 226.184,312.982 223.158 C 314.526 220.132,315.789 216.465,315.789 215.010 C 315.789 213.555,317.053 211.222,318.596 209.825 C 320.140 208.427,321.404 206.502,321.404 205.547 C 321.404 204.591,322.351 203.446,323.509 203.001 C 324.667 202.557,325.614 201.301,325.614 200.211 C 325.614 199.120,327.667 196.635,330.175 194.689 C 338.871 187.943,350.877 175.610,350.877 173.425 C 350.877 172.216,351.497 171.228,352.254 171.228 C 353.011 171.228,354.055 169.491,354.573 167.368 C 355.646 162.969,360.944 156.105,365.701 152.949 C 367.474 151.773,370.874 148.358,373.256 145.361 C 375.638 142.363,381.524 137.076,386.337 133.610 C 394.655 127.621,400.000 122.932,400.000 121.626 C 400.000 121.298,398.895 120.650,397.544 120.186 C 396.193 119.722,392.877 117.905,390.175 116.148 C 387.474 114.391,383.131 111.696,380.525 110.161 C 377.919 108.625,374.129 106.077,372.104 104.499 C 370.078 102.921,365.579 100.405,362.105 98.910 C 358.632 97.414,354.955 95.389,353.935 94.411 C 352.915 93.432,351.003 92.632,349.686 92.632 C 348.369 92.632,345.883 91.645,344.163 90.440 C 339.762 87.358,328.348 85.493,314.386 85.574 C 294.178 85.691,264.909 83.120,261.384 80.918 C 259.284 79.607,242.875 75.084,235.580 73.806 C 232.762 73.312,229.685 71.978,228.741 70.840 C 227.797 69.703,225.965 68.772,224.670 68.772 C 223.375 68.772,221.716 68.217,220.982 67.538 C 220.249 66.859,217.281 65.547,214.386 64.622 C 211.491 63.697,209.123 62.426,209.123 61.798 C 209.123 61.169,207.702 60.285,205.965 59.833 C 204.228 59.381,200.538 56.944,197.765 54.418 C 194.992 51.892,190.342 47.930,187.431 45.614 C 179.444 39.258,176.696 36.216,174.653 31.467 C 173.630 29.090,171.810 26.328,170.607 25.330 C 169.405 24.332,168.421 22.059,168.421 20.279 C 168.421 18.499,167.436 16.057,166.231 14.853 C 165.027 13.649,163.922 10.023,163.775 6.797 C 163.450 -0.371,160.512 -1.888,158.445 4.043 " stroke="none" fill="#000000" fill-rule="evenodd"></path></g></svg>