<svg id="svg" version="1.1" xmlns="http://www.w3.org/2000/svg" xmlns:xlink="http://www.w3.org/1999/xlink" width="400" height="418.5758513931889" viewBox="0, 0, 400,418.5758513931889"><g id="svgg"><path id="path0" d="M93.829 2.016 C 93.160 3.121,92.399 5.125,92.138 6.471 C 91.877 7.816,91.240 9.153,90.723 9.443 C 90.206 9.732,89.783 10.515,89.783 11.182 C 89.783 11.850,89.226 12.873,88.545 13.456 C 87.864 14.040,87.307 14.947,87.307 15.472 C 87.307 15.997,86.792 17.398,86.162 18.585 C 85.495 19.844,84.849 22.789,84.613 25.653 C 84.390 28.353,83.827 31.143,83.362 31.853 C 82.896 32.563,82.395 35.049,82.246 37.377 C 82.046 40.519,81.706 41.762,80.926 42.198 C 80.161 42.626,79.876 43.611,79.876 45.827 C 79.876 47.971,79.539 49.195,78.733 49.976 C 78.104 50.585,77.230 52.825,76.791 54.954 C 76.351 57.082,75.751 58.824,75.457 58.824 C 75.163 58.824,74.903 60.008,74.879 61.455 C 74.829 64.475,74.202 66.436,73.378 66.145 C 73.066 66.035,72.584 67.036,72.307 68.371 C 72.029 69.706,71.251 71.185,70.576 71.657 C 69.902 72.130,69.350 73.066,69.350 73.739 C 69.350 74.411,68.932 75.122,68.421 75.318 C 67.910 75.514,67.490 76.271,67.488 77.001 C 67.486 77.731,66.930 79.164,66.254 80.186 C 65.577 81.207,65.022 82.673,65.020 83.443 C 65.017 84.212,64.458 85.319,63.777 85.902 C 63.096 86.485,62.539 87.554,62.539 88.277 C 62.539 89.000,61.981 90.096,61.300 90.712 C 60.619 91.328,60.062 92.337,60.062 92.953 C 60.062 93.570,59.505 94.372,58.824 94.737 C 58.142 95.101,57.585 95.910,57.585 96.533 C 57.585 97.156,57.066 98.330,56.432 99.143 C 55.798 99.955,55.090 101.220,54.860 101.955 C 54.630 102.690,54.061 103.437,53.595 103.616 C 53.129 103.795,52.574 104.737,52.360 105.709 C 51.313 110.474,30.417 126.316,25.179 126.316 C 24.669 126.316,24.159 126.577,24.045 126.897 C 23.932 127.216,22.620 127.623,21.129 127.801 C 19.638 127.978,17.967 128.486,17.414 128.929 C 15.548 130.425,12.510 131.889,11.271 131.889 C 10.594 131.889,9.889 132.280,9.706 132.759 C 9.522 133.238,8.499 133.821,7.433 134.055 C 6.243 134.317,5.231 135.057,4.815 135.971 C 4.441 136.791,3.933 137.461,3.685 137.461 C 3.437 137.461,3.040 138.506,2.803 139.783 C 2.566 141.060,1.949 142.576,1.433 143.152 C 0.119 144.617,0.172 167.759,1.494 169.844 C 1.970 170.594,2.553 172.949,2.789 175.077 C 3.025 177.206,3.456 178.947,3.747 178.947 C 4.565 178.947,5.565 183.241,5.569 186.766 C 5.571 188.782,5.901 190.214,6.471 190.687 C 6.965 191.097,7.554 192.664,7.780 194.168 C 8.006 195.673,8.433 196.904,8.730 196.904 C 9.027 196.904,9.592 198.182,9.985 199.743 C 10.378 201.305,11.065 202.723,11.512 202.894 C 11.959 203.065,12.509 204.435,12.734 205.937 C 12.959 207.440,13.346 208.669,13.593 208.669 C 14.230 208.669,15.480 211.584,15.480 213.069 C 15.480 213.754,15.735 214.157,16.048 213.964 C 16.360 213.771,17.079 215.008,17.645 216.713 C 18.212 218.419,18.926 219.814,19.233 219.814 C 19.540 219.814,19.973 220.580,20.195 221.517 C 20.418 222.454,21.013 223.696,21.519 224.278 C 22.024 224.860,22.585 226.643,22.765 228.239 C 22.945 229.835,23.567 231.616,24.147 232.197 C 24.728 232.777,25.871 234.676,26.688 236.415 C 27.505 238.155,28.529 239.589,28.963 239.603 C 29.397 239.617,29.920 240.464,30.124 241.486 C 30.328 242.508,30.705 243.344,30.962 243.344 C 31.219 243.344,31.792 244.249,32.236 245.356 C 32.680 246.463,33.550 248.033,34.169 248.845 C 35.035 249.982,35.314 251.548,35.378 255.656 C 35.425 258.590,35.583 260.366,35.730 259.603 C 35.878 258.840,36.485 257.864,37.080 257.436 C 37.675 257.007,38.344 256.169,38.566 255.573 C 38.789 254.977,39.354 254.489,39.823 254.489 C 40.291 254.489,41.179 253.932,41.796 253.251 C 42.412 252.570,43.361 252.004,43.904 251.993 C 44.447 251.982,45.433 251.564,46.094 251.064 C 46.755 250.564,47.708 250.155,48.212 250.155 C 48.716 250.155,49.590 249.737,50.153 249.227 C 52.826 246.808,69.079 245.558,73.375 247.442 C 74.737 248.039,76.068 248.473,76.333 248.407 C 76.598 248.340,76.976 248.706,77.173 249.220 C 77.370 249.734,77.826 250.155,78.184 250.155 C 79.478 250.155,82.465 254.268,85.258 259.896 C 86.825 263.052,88.308 265.635,88.554 265.635 C 88.800 265.635,89.145 266.707,89.321 268.017 C 89.503 269.377,90.590 271.701,91.855 273.435 C 93.074 275.104,94.847 277.645,95.797 279.080 C 96.746 280.514,97.872 281.699,98.297 281.711 C 98.723 281.724,99.071 282.105,99.071 282.559 C 99.071 283.285,103.463 287.307,104.255 287.307 C 104.421 287.307,106.336 288.129,108.509 289.135 C 110.682 290.141,113.824 291.270,115.492 291.644 C 117.160 292.017,118.877 292.615,119.307 292.972 C 120.167 293.686,123.145 294.530,127.788 295.375 C 129.448 295.678,131.281 296.355,131.861 296.879 C 132.441 297.404,133.782 297.833,134.842 297.833 C 135.902 297.833,136.928 298.090,137.122 298.404 C 137.317 298.719,138.307 299.158,139.322 299.382 C 140.338 299.605,141.380 300.141,141.637 300.574 C 141.895 301.007,143.689 301.854,145.625 302.456 C 147.562 303.057,149.770 304.214,150.532 305.026 C 151.295 305.837,152.265 306.502,152.688 306.502 C 153.111 306.502,153.555 306.795,153.675 307.154 C 153.795 307.514,154.397 307.881,155.014 307.972 C 155.631 308.063,156.323 308.425,156.551 308.777 C 156.779 309.130,158.007 309.757,159.279 310.172 C 160.552 310.587,161.752 311.185,161.947 311.500 C 162.143 311.816,162.773 312.080,163.349 312.088 C 163.925 312.095,165.650 312.697,167.183 313.425 C 168.715 314.153,170.317 314.691,170.743 314.622 C 171.169 314.553,171.517 314.953,171.517 315.511 C 171.517 316.068,172.074 316.670,172.755 316.848 C 173.437 317.027,173.994 317.544,173.994 317.998 C 173.994 318.452,174.481 319.097,175.077 319.431 C 176.082 319.995,176.161 321.911,176.161 345.827 C 176.161 368.642,176.274 371.699,177.142 372.340 C 177.682 372.739,178.307 373.804,178.532 374.707 C 179.012 376.635,182.035 381.424,182.773 381.424 C 183.053 381.424,183.282 381.792,183.282 382.241 C 183.282 384.824,192.595 394.155,204.345 403.345 C 210.829 408.415,212.013 409.137,216.022 410.453 C 218.112 411.139,220.440 412.133,221.195 412.661 C 221.949 413.190,223.185 413.622,223.940 413.622 C 224.696 413.622,225.463 413.864,225.646 414.160 C 225.829 414.456,227.375 414.883,229.081 415.109 C 231.019 415.366,232.129 415.804,232.037 416.274 C 231.940 416.766,232.964 417.095,234.985 417.220 C 236.687 417.325,238.341 417.670,238.660 417.985 C 239.675 418.990,241.485 416.796,240.905 415.264 C 240.628 414.531,240.202 412.211,239.959 410.107 C 239.710 407.954,239.174 406.150,238.733 405.981 C 238.301 405.815,237.793 404.519,237.602 403.101 C 237.412 401.683,236.818 400.039,236.283 399.447 C 235.747 398.855,235.127 397.414,234.905 396.244 C 234.683 395.075,234.298 393.839,234.049 393.498 C 233.801 393.158,233.248 391.765,232.820 390.402 C 232.392 389.040,231.682 387.508,231.243 386.997 C 230.804 386.486,230.255 385.043,230.022 383.789 C 229.790 382.536,229.209 381.360,228.732 381.177 C 228.254 380.994,227.864 380.182,227.864 379.372 C 227.864 378.563,227.340 377.427,226.700 376.848 C 226.060 376.268,225.366 374.729,225.158 373.427 C 224.949 372.124,224.397 370.742,223.930 370.354 C 223.463 369.967,222.912 368.221,222.705 366.474 C 222.499 364.727,221.947 362.848,221.481 362.299 C 219.014 359.395,221.488 333.746,224.236 333.746 C 224.528 333.746,224.768 333.453,224.768 333.094 C 224.768 332.735,225.464 331.417,226.316 330.164 C 227.167 328.911,227.882 327.463,227.905 326.946 C 227.927 326.429,228.905 324.752,230.077 323.220 C 231.250 321.687,232.512 319.667,232.883 318.731 C 233.254 317.794,233.773 317.028,234.037 317.028 C 234.301 317.028,234.701 315.876,234.926 314.468 C 235.151 313.060,235.883 311.211,236.553 310.359 C 237.223 309.508,237.771 308.172,237.771 307.391 C 237.771 306.610,238.140 305.601,238.592 305.150 C 239.043 304.698,239.598 303.402,239.825 302.269 C 240.051 301.136,240.797 299.498,241.481 298.628 C 242.165 297.758,242.724 296.557,242.724 295.958 C 242.724 295.359,243.120 294.717,243.604 294.532 C 244.147 294.323,244.645 292.819,244.907 290.596 C 245.139 288.616,245.719 286.188,246.194 285.199 C 247.234 283.036,247.447 264.709,246.440 264.087 C 245.681 263.618,245.608 255.313,246.358 254.849 C 246.654 254.666,247.071 253.426,247.284 252.093 C 247.840 248.613,251.878 244.347,256.926 241.905 L 260.991 239.938 305.882 239.805 C 352.643 239.666,359.334 239.324,365.109 236.775 C 366.182 236.301,367.576 235.913,368.207 235.913 C 368.838 235.913,370.725 234.938,372.402 233.746 C 374.078 232.554,375.727 231.579,376.066 231.579 C 376.405 231.579,377.123 231.199,377.660 230.735 C 378.198 230.271,380.031 229.381,381.734 228.758 C 386.272 227.098,388.945 224.238,391.348 218.471 C 391.727 217.561,392.435 216.665,392.923 216.478 C 393.410 216.291,393.808 215.615,393.808 214.976 C 393.808 214.338,395.201 212.223,396.904 210.277 C 398.607 208.331,400.000 206.659,400.000 206.561 C 400.000 206.167,397.904 202.147,397.549 201.858 C 396.658 201.134,393.189 195.383,393.189 194.631 C 393.189 194.178,392.921 193.808,392.594 193.808 C 392.266 193.808,391.704 192.763,391.345 191.486 C 390.986 190.209,390.279 188.623,389.773 187.962 C 389.268 187.301,388.854 186.151,388.854 185.406 C 388.854 184.662,388.444 183.712,387.942 183.295 C 387.440 182.879,386.864 181.521,386.661 180.278 C 386.458 179.035,385.764 176.486,385.118 174.613 C 384.472 172.740,383.764 170.163,383.544 168.885 C 383.324 167.608,382.918 166.563,382.643 166.563 C 382.367 166.563,381.943 165.660,381.701 164.555 C 381.006 161.391,377.363 157.397,374.460 156.615 C 373.092 156.247,371.522 155.708,370.971 155.418 C 369.867 154.838,362.878 153.257,358.514 152.601 C 356.981 152.370,355.392 151.911,354.982 151.580 C 354.076 150.849,347.791 149.344,342.724 148.644 C 340.681 148.361,338.173 147.787,337.152 147.368 C 336.130 146.948,333.361 146.478,330.997 146.323 C 328.634 146.168,325.976 145.666,325.089 145.207 C 324.203 144.749,321.818 144.303,319.789 144.216 C 317.759 144.130,315.927 143.802,315.716 143.487 C 315.506 143.173,313.277 142.684,310.763 142.401 C 308.249 142.119,305.356 141.450,304.334 140.916 C 303.313 140.383,302.023 139.944,301.469 139.942 C 300.915 139.940,300.114 139.520,299.690 139.009 C 299.266 138.498,298.445 138.080,297.865 138.080 C 297.285 138.080,296.156 137.384,295.356 136.533 C 294.556 135.681,293.583 134.985,293.193 134.985 C 292.515 134.985,279.257 122.391,279.257 121.747 C 279.257 121.287,273.758 115.789,273.298 115.789 C 273.082 115.789,271.433 114.257,269.633 112.384 C 267.833 110.511,266.077 108.978,265.730 108.978 C 265.383 108.978,264.922 108.421,264.706 107.740 C 264.490 107.059,263.932 106.502,263.467 106.502 C 263.003 106.502,262.452 105.966,262.244 105.310 C 262.036 104.655,260.903 103.351,259.726 102.413 C 258.548 101.474,257.585 100.354,257.585 99.924 C 257.585 99.493,257.098 98.777,256.502 98.332 C 255.146 97.320,252.012 92.749,252.012 91.784 C 252.012 91.389,251.455 90.767,250.774 90.402 C 250.093 90.038,249.536 89.235,249.536 88.619 C 249.536 88.003,248.978 86.994,248.297 86.378 C 247.616 85.761,247.059 84.777,247.059 84.190 C 247.059 83.604,246.641 82.777,246.130 82.353 C 245.619 81.929,245.201 81.186,245.201 80.703 C 245.201 80.219,243.947 78.483,242.415 76.844 C 240.882 75.206,239.628 73.546,239.628 73.156 C 239.628 72.765,239.416 72.446,239.156 72.446 C 238.896 72.446,237.015 70.358,234.976 67.806 C 232.938 65.255,231.060 63.165,230.805 63.162 C 230.550 63.160,230.341 62.781,230.341 62.320 C 230.341 61.558,229.612 60.600,225.967 56.569 C 225.307 55.840,224.768 54.934,224.768 54.557 C 224.768 54.179,224.545 53.870,224.274 53.870 C 224.002 53.870,222.818 52.904,221.642 51.722 C 220.466 50.541,219.195 49.566,218.816 49.555 C 218.437 49.544,217.067 48.693,215.772 47.664 C 214.477 46.635,212.776 45.632,211.994 45.435 C 211.211 45.239,210.403 44.549,210.197 43.901 C 209.992 43.254,209.558 42.724,209.233 42.724 C 208.561 42.724,200.009 34.269,199.983 33.578 C 199.974 33.330,199.006 32.430,197.833 31.579 C 196.660 30.728,195.692 29.737,195.683 29.378 C 195.659 28.460,191.620 24.149,190.783 24.149 C 190.404 24.149,190.093 23.850,190.093 23.485 C 190.093 23.120,189.745 22.453,189.319 22.002 C 188.893 21.551,187.848 20.285,186.997 19.188 C 185.327 17.037,185.261 16.970,182.087 14.222 C 180.283 12.661,179.443 12.383,176.514 12.377 C 174.617 12.374,171.697 11.956,170.025 11.448 C 168.250 10.910,164.386 10.510,160.738 10.488 C 157.301 10.467,152.399 10.180,149.845 9.851 C 147.291 9.521,141.997 8.981,138.080 8.650 C 134.164 8.319,129.985 7.651,128.793 7.165 C 127.601 6.680,124.972 6.114,122.951 5.909 C 120.930 5.703,118.980 5.301,118.617 5.015 C 118.254 4.729,116.073 4.352,113.771 4.176 C 111.469 4.001,109.212 3.547,108.755 3.168 C 108.298 2.789,106.560 2.308,104.891 2.100 C 103.223 1.891,100.664 1.334,99.204 0.860 C 95.533 -0.330,95.209 -0.261,93.829 2.016 " stroke="none" fill="#000000" fill-rule="evenodd"></path></g></svg>