<svg id="svg" version="1.1" xmlns="http://www.w3.org/2000/svg" xmlns:xlink="http://www.w3.org/1999/xlink" width="400" height="230.28901734104045" viewBox="0, 0, 400,230.28901734104045"><g id="svgg"><path id="path0" d="M277.803 0.145 C 272.338 0.530,269.678 1.004,267.339 2.012 C 266.924 2.190,265.936 2.448,265.142 2.585 C 264.349 2.722,263.387 2.999,263.006 3.199 C 262.624 3.399,262.237 3.543,262.146 3.518 C 262.054 3.493,261.597 3.732,261.131 4.049 C 260.664 4.365,260.115 4.627,259.910 4.629 C 259.242 4.638,257.523 5.540,256.623 6.353 C 256.078 6.845,255.231 7.294,254.403 7.528 C 253.666 7.737,252.960 8.037,252.832 8.195 C 252.705 8.354,251.561 8.612,250.289 8.769 C 249.017 8.926,247.746 9.202,247.465 9.383 C 246.855 9.773,245.871 9.813,245.650 9.456 C 245.553 9.299,245.216 9.264,244.770 9.364 C 244.372 9.453,241.932 9.509,239.347 9.489 C 235.991 9.462,234.552 9.531,234.314 9.728 C 234.131 9.881,233.084 10.040,231.988 10.084 C 230.891 10.127,229.826 10.212,229.621 10.272 C 229.416 10.332,228.780 10.444,228.208 10.520 C 227.636 10.597,227.012 10.704,226.821 10.759 C 226.630 10.814,225.557 11.019,224.437 11.214 C 223.317 11.408,222.147 11.734,221.836 11.938 C 221.526 12.141,221.272 12.223,221.272 12.119 C 221.272 12.015,221.147 12.055,220.994 12.208 C 220.842 12.361,220.495 12.486,220.224 12.486 C 219.952 12.486,219.658 12.558,219.569 12.646 C 219.481 12.735,219.282 12.824,219.126 12.844 C 218.971 12.864,218.256 12.947,217.538 13.029 C 216.819 13.111,215.831 13.373,215.341 13.611 C 212.457 15.016,212.409 15.029,209.871 15.029 C 207.718 15.029,207.295 14.961,206.359 14.463 C 205.773 14.152,205.013 13.842,204.670 13.775 C 201.468 13.148,200.065 12.742,198.458 11.975 C 197.673 11.600,196.841 11.324,196.608 11.361 C 196.375 11.398,195.925 11.262,195.607 11.059 C 195.289 10.856,194.567 10.622,194.003 10.538 C 193.439 10.454,192.607 10.223,192.153 10.025 C 190.730 9.402,190.453 9.310,188.439 8.801 C 187.358 8.527,186.110 8.198,185.665 8.070 C 185.220 7.942,184.699 7.809,184.509 7.774 C 184.318 7.740,183.775 7.537,183.302 7.324 C 182.829 7.111,182.237 6.936,181.986 6.936 C 181.735 6.936,181.464 6.830,181.383 6.699 C 181.303 6.569,181.115 6.487,180.965 6.518 C 180.816 6.549,180.277 6.301,179.769 5.967 C 179.260 5.634,178.283 5.245,177.598 5.104 C 176.912 4.962,176.028 4.701,175.632 4.524 C 174.899 4.194,174.675 4.144,171.445 3.591 C 168.760 3.132,168.511 3.077,167.746 2.774 C 166.721 2.370,161.324 2.221,159.538 2.548 C 158.073 2.816,156.680 3.052,154.798 3.348 C 154.289 3.428,153.717 3.549,153.526 3.615 C 153.335 3.682,152.607 3.776,151.908 3.824 C 151.208 3.873,149.855 4.078,148.902 4.281 C 146.950 4.695,145.460 4.946,142.795 5.307 C 141.789 5.443,140.843 5.657,140.693 5.781 C 140.543 5.906,140.343 5.931,140.249 5.837 C 140.155 5.742,139.944 5.848,139.781 6.071 C 139.618 6.294,139.029 6.571,138.471 6.687 C 137.913 6.803,137.249 6.949,136.994 7.013 C 136.740 7.076,135.491 7.357,134.220 7.638 C 132.948 7.918,131.321 8.279,130.604 8.440 C 127.577 9.118,117.958 9.039,116.185 8.322 C 115.279 7.955,112.244 7.341,110.960 7.265 C 109.387 7.172,109.059 7.109,108.880 6.866 C 108.805 6.763,108.076 6.634,107.262 6.579 C 106.447 6.523,104.948 6.359,103.931 6.214 C 100.419 5.715,95.342 5.863,93.130 6.531 C 92.458 6.734,91.491 7.001,90.983 7.126 C 90.474 7.250,89.434 7.562,88.671 7.819 C 87.908 8.076,86.711 8.455,86.012 8.661 C 85.269 8.880,84.459 9.320,84.066 9.720 C 83.695 10.097,83.146 10.405,82.847 10.405 C 82.192 10.405,80.575 11.386,80.176 12.026 C 80.018 12.279,79.724 12.486,79.522 12.486 C 79.013 12.486,78.150 13.457,78.150 14.030 C 78.150 14.291,77.917 14.800,77.632 15.162 C 77.013 15.950,76.340 17.072,76.152 17.630 C 76.077 17.853,75.925 18.035,75.814 18.035 C 75.704 18.035,75.461 18.399,75.275 18.844 C 75.089 19.289,74.836 19.653,74.712 19.653 C 74.288 19.653,73.086 20.831,73.202 21.132 C 73.327 21.457,70.335 24.276,69.557 24.566 C 69.302 24.662,68.982 25.034,68.846 25.393 C 68.711 25.752,68.330 26.150,67.999 26.277 C 67.669 26.405,67.035 26.643,66.590 26.805 C 66.145 26.968,65.461 27.221,65.071 27.368 C 64.680 27.514,64.021 27.920,63.606 28.269 C 63.191 28.619,62.751 28.843,62.629 28.768 C 62.507 28.692,62.282 28.735,62.129 28.862 C 61.975 28.989,61.771 29.101,61.676 29.110 C 61.052 29.169,59.393 29.687,59.289 29.855 C 59.220 29.967,58.908 30.058,58.595 30.058 C 57.907 30.058,52.034 31.547,50.775 32.040 C 50.230 32.254,49.790 32.310,49.662 32.182 C 49.534 32.055,48.884 32.093,48.020 32.279 C 45.061 32.916,35.028 33.668,34.783 33.271 C 34.727 33.180,34.031 33.150,33.236 33.205 C 32.442 33.260,29.555 33.348,26.821 33.401 C 24.087 33.454,18.676 33.567,14.798 33.653 C 7.357 33.817,7.492 33.831,5.665 32.723 C 5.156 32.415,4.532 32.056,4.277 31.926 C 4.023 31.796,3.638 31.453,3.422 31.163 C 3.207 30.873,2.781 30.332,2.476 29.961 L 1.922 29.286 1.083 29.956 C -0.021 30.837,-0.047 31.063,0.042 39.114 C 0.114 45.568,0.129 45.761,0.636 46.446 C 0.922 46.833,1.156 47.297,1.156 47.479 C 1.156 48.207,6.033 52.486,6.864 52.486 C 6.933 52.486,7.680 52.942,8.524 53.499 C 9.368 54.057,11.306 55.120,12.832 55.861 C 14.358 56.603,15.711 57.340,15.838 57.499 C 15.965 57.658,16.460 57.949,16.936 58.146 C 17.413 58.342,17.803 58.603,17.803 58.725 C 17.803 58.848,18.116 59.109,18.497 59.306 C 18.879 59.504,19.191 59.804,19.191 59.974 C 19.191 60.143,19.451 60.477,19.769 60.716 C 20.108 60.971,20.406 61.485,20.490 61.962 C 20.640 62.804,21.356 64.323,21.937 65.030 C 22.348 65.530,22.766 66.239,23.234 67.225 C 23.430 67.639,23.676 67.977,23.782 67.977 C 23.887 67.977,24.094 68.381,24.242 68.874 C 24.390 69.368,24.666 69.901,24.857 70.059 C 25.047 70.217,25.202 70.638,25.202 70.994 C 25.202 71.351,25.358 71.799,25.549 71.990 C 25.740 72.181,25.896 72.485,25.896 72.666 C 25.896 72.847,26.156 73.484,26.474 74.082 C 26.792 74.680,27.052 75.314,27.052 75.492 C 27.052 75.670,27.187 75.898,27.353 76.000 C 27.518 76.102,27.788 76.653,27.954 77.225 C 28.119 77.798,28.388 78.422,28.552 78.613 C 28.716 78.803,28.909 79.464,28.982 80.080 C 29.054 80.697,29.208 81.321,29.323 81.468 C 29.438 81.614,29.606 82.043,29.696 82.420 C 29.786 82.797,30.048 83.525,30.276 84.038 C 31.482 86.743,31.732 87.755,31.848 90.405 C 31.956 92.871,31.439 98.639,31.055 99.261 C 30.367 100.374,29.633 123.011,30.259 123.785 C 30.375 123.929,30.590 124.633,30.737 125.350 C 31.143 127.327,32.089 128.098,37.352 130.741 C 38.502 131.319,39.612 131.792,39.818 131.792 C 40.024 131.792,40.227 131.870,40.270 131.965 C 40.345 132.135,40.738 132.353,44.046 134.061 C 45.551 134.838,46.554 135.500,47.399 136.274 C 47.873 136.708,50.828 138.497,51.072 138.497 C 51.180 138.497,51.966 138.965,52.820 139.538 C 53.673 140.110,54.423 140.578,54.487 140.578 C 54.550 140.578,55.210 141.046,55.954 141.618 C 56.697 142.191,57.400 142.659,57.514 142.659 C 57.629 142.659,57.970 142.922,58.272 143.244 C 58.574 143.565,59.985 144.606,61.407 145.557 C 62.829 146.508,64.115 147.435,64.266 147.617 C 64.417 147.798,64.838 148.013,65.202 148.092 C 65.566 148.172,65.988 148.387,66.140 148.570 C 66.291 148.752,66.532 148.905,66.676 148.908 C 66.819 148.912,67.769 149.639,68.786 150.525 C 69.803 151.410,70.854 152.231,71.120 152.349 C 71.879 152.683,73.951 155.138,74.247 156.053 C 74.395 156.507,74.709 157.155,74.945 157.492 C 75.182 157.830,75.376 158.190,75.376 158.293 C 75.376 158.397,75.579 158.693,75.828 158.951 C 76.795 159.957,77.822 161.308,78.230 162.112 C 79.484 164.581,81.829 165.777,85.434 165.786 C 86.705 165.789,88.162 165.894,88.671 166.020 C 89.179 166.146,91.416 166.455,93.642 166.707 C 99.543 167.376,100.071 167.508,101.070 168.568 C 101.532 169.058,101.952 169.416,102.005 169.363 C 102.101 169.267,102.415 169.850,103.853 172.794 C 104.277 173.664,104.756 174.617,104.916 174.912 C 105.650 176.265,110.273 179.777,112.091 180.362 C 112.562 180.514,113.052 180.718,113.179 180.816 C 113.306 180.914,114.243 181.069,115.260 181.160 C 117.111 181.326,118.399 181.710,119.067 182.294 C 119.262 182.464,119.682 182.682,120.000 182.778 C 120.318 182.874,120.957 183.250,121.421 183.615 C 121.884 183.979,122.362 184.277,122.483 184.277 C 122.604 184.277,122.901 184.500,123.143 184.773 C 123.386 185.045,123.951 185.435,124.400 185.640 C 125.621 186.196,126.474 186.946,126.474 187.463 C 126.474 187.983,127.270 188.588,128.109 188.707 C 128.558 188.770,128.658 188.693,128.607 188.324 C 128.573 188.069,128.457 186.636,128.350 185.139 C 128.201 183.065,128.059 182.311,127.749 181.969 C 127.368 181.548,127.401 180.772,127.797 180.832 C 128.586 180.951,129.503 180.047,129.052 179.595 C 128.702 179.245,129.036 178.498,129.683 178.185 C 130.396 177.839,133.964 177.864,134.396 178.217 C 134.553 178.346,135.254 178.496,135.954 178.550 C 137.206 178.646,138.774 179.114,140.329 179.854 C 141.033 180.190,142.642 180.231,154.903 180.231 C 169.893 180.231,168.516 180.331,171.515 179.027 C 171.934 178.845,172.663 178.636,173.133 178.564 C 173.604 178.492,174.092 178.360,174.220 178.271 C 174.347 178.182,175.387 177.872,176.532 177.583 C 177.676 177.294,178.941 176.913,179.342 176.737 C 181.058 175.981,183.058 175.882,199.306 175.745 L 215.607 175.607 217.225 174.028 C 218.116 173.160,219.231 172.186,219.704 171.864 C 220.176 171.542,220.626 171.081,220.702 170.841 C 220.778 170.601,220.967 170.405,221.122 170.405 C 221.440 170.405,222.890 168.609,222.890 168.215 C 222.890 167.935,223.643 166.389,223.997 165.943 C 224.118 165.790,224.351 165.251,224.513 164.746 C 224.676 164.241,224.950 163.687,225.122 163.516 C 225.293 163.344,225.434 163.059,225.434 162.881 C 225.434 162.080,227.976 158.192,228.519 158.161 C 228.627 158.155,229.041 157.916,229.441 157.630 C 230.651 156.763,231.277 156.504,232.486 156.367 C 233.121 156.295,233.812 156.150,234.021 156.043 C 234.573 155.761,239.090 155.753,239.769 156.033 C 240.087 156.164,240.714 156.330,241.162 156.402 C 241.971 156.532,244.162 158.268,244.162 158.779 C 244.162 158.911,244.315 159.146,244.503 159.302 C 245.693 160.289,246.110 162.021,246.202 166.344 C 246.261 169.175,246.383 170.643,246.585 170.968 C 246.748 171.231,246.948 171.732,247.029 172.082 C 247.233 172.959,248.710 174.280,249.827 174.584 C 250.335 174.722,251.274 175.035,251.912 175.279 C 252.550 175.523,253.576 175.723,254.191 175.723 C 254.806 175.723,256.209 175.871,257.308 176.053 C 261.390 176.729,262.844 176.907,265.680 177.082 C 267.278 177.180,268.699 177.332,268.839 177.418 C 269.247 177.670,273.478 178.728,274.078 178.728 C 274.378 178.728,275.087 178.933,275.654 179.184 C 276.220 179.435,277.040 179.661,277.475 179.687 C 277.910 179.714,278.370 179.807,278.497 179.894 C 278.624 179.981,279.323 180.111,280.050 180.182 C 280.777 180.254,281.662 180.470,282.016 180.662 C 282.369 180.855,283.040 181.074,283.506 181.149 C 284.511 181.311,286.444 182.679,287.070 183.672 C 287.314 184.061,287.743 184.746,288.021 185.195 C 288.300 185.644,288.599 186.459,288.685 187.006 C 288.771 187.552,288.972 188.130,289.130 188.288 C 289.289 188.447,289.496 188.820,289.590 189.117 C 290.000 190.408,291.360 192.316,292.488 193.182 C 293.148 193.689,293.913 194.326,294.187 194.598 C 296.559 196.946,300.684 198.289,306.474 198.599 C 308.127 198.687,309.688 198.870,309.942 199.006 C 310.732 199.426,313.100 200.298,313.969 200.489 C 314.425 200.589,315.314 200.781,315.944 200.916 C 317.607 201.270,320.231 203.176,320.231 204.029 C 320.231 204.195,320.442 204.598,320.699 204.925 C 320.956 205.252,321.146 205.604,321.122 205.708 C 320.937 206.500,322.145 209.520,322.922 210.208 C 323.449 210.675,324.916 211.095,326.025 211.097 C 326.478 211.098,327.050 211.251,327.297 211.438 C 327.544 211.624,328.087 211.781,328.503 211.785 C 329.337 211.793,332.927 212.664,333.295 212.948 C 333.422 213.046,333.890 213.200,334.335 213.291 C 335.267 213.482,337.369 214.813,338.382 215.856 C 338.763 216.248,339.595 216.977,340.231 217.475 C 340.867 217.974,341.491 218.494,341.618 218.630 C 342.126 219.176,343.741 220.281,344.443 220.562 C 344.852 220.725,345.246 221.046,345.319 221.274 C 345.557 222.026,346.546 222.057,347.444 221.340 C 347.889 220.984,348.607 220.511,349.040 220.287 C 349.473 220.064,349.827 219.794,349.827 219.688 C 349.827 219.582,350.217 219.296,350.694 219.054 C 351.171 218.811,351.613 218.557,351.676 218.489 C 352.090 218.047,354.051 216.625,354.971 216.099 C 355.575 215.754,356.069 215.374,356.069 215.255 C 356.069 215.135,356.307 214.978,356.598 214.905 C 356.889 214.832,357.227 214.551,357.349 214.280 C 357.675 213.560,358.679 213.297,359.472 213.725 C 359.826 213.916,360.446 214.227,360.850 214.416 C 362.066 214.985,365.768 218.012,365.787 218.452 C 365.811 218.982,367.868 220.089,369.249 220.316 C 373.748 221.056,374.623 221.236,374.861 221.474 C 375.004 221.617,375.412 221.734,375.768 221.734 C 376.482 221.734,379.892 223.451,380.185 223.958 C 380.287 224.134,380.507 224.277,380.676 224.277 C 380.995 224.277,384.104 226.722,384.239 227.079 C 384.281 227.191,384.467 227.283,384.651 227.283 C 384.836 227.283,385.342 227.621,385.777 228.035 C 387.816 229.974,388.186 230.289,388.425 230.289 C 388.901 230.289,389.068 229.258,388.873 227.514 C 388.448 223.713,389.857 220.072,392.139 219.080 C 393.361 218.548,395.566 217.100,396.170 216.432 C 396.403 216.175,396.675 216.015,396.775 216.076 C 397.039 216.240,399.707 214.598,399.871 214.171 C 400.018 213.788,399.442 212.717,399.088 212.717 C 398.974 212.717,398.814 212.413,398.733 212.042 C 398.651 211.672,398.443 211.314,398.270 211.248 C 398.085 211.176,397.890 210.577,397.794 209.783 C 397.705 209.044,397.502 208.283,397.343 208.092 C 397.183 207.902,396.985 207.366,396.902 206.901 C 396.818 206.436,396.612 206.003,396.443 205.938 C 396.273 205.873,396.069 205.410,395.989 204.910 C 395.798 203.716,392.626 200.839,389.422 198.955 C 389.009 198.712,388.671 198.434,388.671 198.338 C 388.671 198.241,388.380 198.012,388.024 197.828 C 387.669 197.644,386.533 196.667,385.499 195.657 C 384.466 194.647,383.455 193.757,383.253 193.680 C 383.051 193.602,382.913 193.453,382.946 193.348 C 382.979 193.243,382.434 192.651,381.734 192.034 C 381.035 191.416,380.369 190.753,380.255 190.560 C 380.141 190.367,379.231 189.404,378.232 188.420 C 377.233 187.436,376.416 186.564,376.416 186.483 C 376.416 186.329,375.339 185.278,375.056 185.157 C 374.966 185.118,374.541 184.540,374.112 183.873 C 373.683 183.205,373.253 182.659,373.156 182.659 C 373.059 182.659,372.916 182.459,372.838 182.215 C 372.761 181.971,372.286 181.321,371.782 180.770 C 371.279 180.220,370.867 179.636,370.867 179.473 C 370.867 179.310,370.711 179.116,370.520 179.043 C 370.329 178.970,370.173 178.806,370.173 178.679 C 370.173 178.552,369.913 178.139,369.595 177.761 C 369.234 177.332,369.017 176.788,369.017 176.311 C 369.017 175.891,368.865 175.422,368.679 175.268 C 368.494 175.113,368.274 174.762,368.190 174.488 C 368.013 173.901,367.187 172.948,366.857 172.948 C 366.730 172.948,366.462 172.805,366.261 172.631 C 365.334 171.826,363.256 171.329,360.814 171.329 C 359.491 171.329,358.349 171.233,358.276 171.115 C 358.203 170.997,357.755 170.773,357.280 170.618 C 356.805 170.462,356.071 170.072,355.649 169.752 C 355.227 169.432,354.447 168.942,353.915 168.664 C 353.383 168.386,352.636 167.988,352.254 167.780 C 351.712 167.484,350.895 167.401,348.511 167.400 C 346.833 167.399,345.404 167.307,345.335 167.195 C 345.265 167.083,344.547 166.920,343.739 166.834 C 342.930 166.747,341.980 166.527,341.628 166.344 C 341.276 166.161,340.444 166.012,339.779 166.012 C 339.114 166.012,338.075 165.862,337.469 165.680 C 336.713 165.453,334.540 165.301,330.554 165.197 C 323.417 165.011,322.917 164.883,321.474 162.865 C 321.204 162.487,320.908 161.837,320.817 161.420 C 320.725 161.003,320.513 160.610,320.346 160.546 C 320.179 160.481,319.978 160.174,319.899 159.862 C 319.821 159.550,319.601 159.115,319.410 158.896 C 318.190 157.493,317.919 157.130,317.919 156.900 C 317.919 156.759,317.711 156.513,317.457 156.354 C 317.202 156.195,316.994 155.926,316.994 155.756 C 316.994 155.586,316.786 155.259,316.532 155.029 C 316.277 154.799,316.069 154.503,316.069 154.372 C 316.069 154.241,315.872 153.919,315.631 153.657 C 315.390 153.394,314.997 152.815,314.757 152.370 C 313.901 150.783,313.087 149.694,311.870 148.503 C 311.191 147.839,310.453 147.059,310.229 146.769 C 309.237 145.483,308.671 144.633,308.671 144.428 C 308.671 144.224,308.006 142.832,307.122 141.180 C 306.924 140.811,305.984 139.719,305.031 138.752 C 304.079 137.785,302.778 136.370,302.141 135.607 C 301.504 134.844,300.754 134.064,300.475 133.873 C 300.195 133.682,299.818 133.391,299.637 133.226 C 299.150 132.784,296.867 131.329,296.660 131.329 C 296.444 131.329,294.650 129.972,293.606 129.019 C 293.188 128.637,292.731 128.324,292.591 128.324 C 292.451 128.324,291.928 128.014,291.428 127.636 C 290.929 127.259,290.391 126.946,290.233 126.943 C 290.075 126.939,289.816 126.728,289.657 126.474 C 289.498 126.220,289.281 126.012,289.174 126.012 C 289.067 126.012,288.546 125.660,288.016 125.231 C 287.486 124.801,286.792 124.370,286.474 124.272 C 286.156 124.175,285.584 123.862,285.202 123.576 C 284.821 123.290,284.178 122.986,283.773 122.901 C 283.369 122.815,282.919 122.602,282.775 122.428 C 282.630 122.253,282.208 122.044,281.836 121.962 C 281.465 121.881,281.102 121.718,281.029 121.601 C 280.957 121.483,280.565 121.387,280.158 121.387 C 279.684 121.387,279.320 121.231,279.147 120.953 C 278.998 120.715,278.582 120.463,278.224 120.394 C 276.954 120.150,275.940 119.832,274.868 119.341 C 274.271 119.068,273.713 118.844,273.628 118.844 C 273.542 118.844,272.210 118.227,270.667 117.474 C 269.124 116.720,267.579 116.034,267.235 115.948 C 266.890 115.863,266.488 115.647,266.340 115.469 C 266.192 115.290,265.949 115.145,265.801 115.145 C 265.471 115.145,263.900 114.356,263.383 113.932 C 263.175 113.761,262.746 113.490,262.428 113.330 C 261.161 112.690,259.803 111.034,259.531 109.798 C 259.447 109.415,259.236 108.827,259.061 108.491 C 258.810 108.006,258.742 106.125,258.734 99.448 L 258.724 91.017 257.686 90.099 C 257.115 89.594,256.647 88.985,256.647 88.745 C 256.647 88.505,256.491 88.249,256.301 88.176 C 256.110 88.103,255.954 87.795,255.954 87.492 C 255.954 87.188,255.746 86.810,255.491 86.652 C 255.237 86.493,255.029 86.187,255.029 85.972 C 255.029 85.758,254.877 85.431,254.692 85.245 C 254.507 85.060,254.230 84.402,254.076 83.784 C 253.923 83.165,253.648 82.428,253.465 82.145 C 253.045 81.493,253.129 73.566,253.562 73.041 C 253.709 72.863,253.904 72.197,253.995 71.561 C 254.086 70.925,254.295 70.249,254.460 70.058 C 254.624 69.867,254.833 69.295,254.923 68.786 C 255.013 68.277,255.222 67.705,255.385 67.514 C 255.549 67.324,255.757 66.769,255.848 66.282 C 255.938 65.795,256.143 65.346,256.304 65.285 C 256.464 65.223,256.660 64.851,256.739 64.457 C 256.817 64.063,257.089 63.595,257.343 63.418 C 257.596 63.240,257.803 62.928,257.803 62.723 C 257.803 62.518,257.958 62.186,258.146 61.985 C 258.335 61.783,259.012 60.972,259.650 60.183 C 260.288 59.393,261.174 58.457,261.619 58.102 C 262.064 57.747,262.428 57.327,262.428 57.168 C 262.428 57.009,262.521 56.879,262.636 56.879 C 262.750 56.879,263.198 56.540,263.631 56.127 C 264.064 55.714,264.821 55.064,265.313 54.682 C 265.804 54.301,266.902 53.312,267.751 52.486 C 268.600 51.659,269.419 50.879,269.570 50.751 C 270.409 50.048,275.376 44.832,275.376 44.656 C 275.376 44.541,275.636 44.276,275.954 44.068 C 276.272 43.859,276.532 43.580,276.532 43.446 C 276.532 43.313,276.688 43.048,276.879 42.857 C 277.069 42.666,277.225 42.304,277.225 42.052 C 277.225 41.799,277.425 41.156,277.668 40.621 C 278.075 39.727,278.110 39.069,278.095 32.368 C 278.079 25.287,278.093 25.060,278.590 24.125 C 279.018 23.319,279.112 22.717,279.172 20.401 C 279.243 17.679,279.518 16.748,280.488 15.954 C 280.566 15.890,280.803 15.526,281.015 15.145 C 281.228 14.763,281.603 14.139,281.849 13.757 C 282.845 12.214,283.643 10.429,283.798 9.397 C 283.888 8.797,284.114 7.940,284.301 7.493 C 284.648 6.664,284.539 5.087,284.136 5.087 C 283.777 5.087,283.914 3.732,284.294 3.519 C 285.428 2.884,284.689 0.435,283.322 0.296 C 281.880 0.149,278.898 0.067,277.803 0.145 " stroke="none" fill="#000000" fill-rule="evenodd"></path></g></svg>