<svg id="svg" version="1.1" xmlns="http://www.w3.org/2000/svg" xmlns:xlink="http://www.w3.org/1999/xlink" width="400" height="422.44039270687233" viewBox="0, 0, 400,422.44039270687233"><g id="svgg"><path id="path0" d="M364.620 0.378 C 364.601 0.633,364.615 3.160,364.653 5.994 C 364.731 11.966,364.153 12.735,360.095 12.049 C 358.267 11.740,357.485 11.922,355.789 13.047 C 352.454 15.259,349.796 16.667,345.451 18.522 C 343.209 19.479,340.870 20.483,340.252 20.753 C 339.635 21.023,338.121 21.546,336.886 21.914 C 335.652 22.283,333.633 23.027,332.398 23.569 C 331.164 24.110,328.640 24.984,326.788 25.511 C 324.937 26.038,322.286 26.871,320.898 27.362 C 318.717 28.134,313.983 28.272,286.115 28.375 C 259.703 28.473,252.789 28.658,247.966 29.399 C 240.378 30.564,240.499 30.540,239.781 30.989 C 239.444 31.200,236.793 31.662,233.890 32.016 C 226.711 32.891,215.303 35.378,212.986 36.572 C 212.414 36.867,210.016 37.751,207.656 38.537 C 205.297 39.322,202.735 40.304,201.964 40.719 C 201.192 41.133,199.299 41.877,197.756 42.370 C 196.213 42.864,194.368 43.646,193.655 44.109 C 192.943 44.572,189.787 45.322,186.643 45.776 C 183.498 46.231,179.305 47.099,177.325 47.705 C 175.344 48.312,173.372 48.808,172.941 48.808 C 171.416 48.808,166.620 51.201,166.620 51.962 C 166.620 52.387,166.377 52.735,166.081 52.735 C 165.785 52.735,164.748 53.948,163.778 55.430 C 162.807 56.912,161.434 58.490,160.726 58.936 C 160.018 59.383,157.836 60.879,155.876 62.262 C 153.917 63.645,149.945 65.978,147.049 67.446 C 144.153 68.914,141.502 70.346,141.158 70.628 C 140.814 70.910,139.144 71.567,137.447 72.087 C 134.289 73.054,132.305 73.803,130.583 74.680 C 130.047 74.952,129.235 75.175,128.778 75.175 C 128.322 75.175,126.993 75.591,125.825 76.098 C 124.658 76.606,122.945 77.350,122.020 77.752 C 114.040 81.216,112.011 82.393,108.575 85.554 C 105.680 88.217,99.466 91.638,95.933 92.513 C 94.544 92.857,90.252 94.692,86.396 96.592 C 82.539 98.491,78.752 100.315,77.980 100.646 C 72.848 102.843,62.272 110.313,62.272 111.741 C 62.272 112.029,61.548 112.945,60.663 113.776 C 59.007 115.332,56.101 120.631,56.101 122.095 C 56.101 122.548,55.618 123.853,55.028 124.994 C 54.437 126.135,53.276 128.457,52.446 130.154 C 49.482 136.219,46.440 141.616,44.136 144.899 C 42.849 146.733,41.417 148.791,40.954 149.473 C 40.491 150.154,39.168 151.703,38.013 152.916 C 36.859 154.128,35.912 155.336,35.909 155.601 C 35.907 155.866,34.579 157.420,32.959 159.055 C 31.339 160.690,29.710 162.493,29.338 163.061 C 27.241 166.266,24.684 171.290,24.684 172.204 C 24.684 172.785,24.307 173.976,23.845 174.849 C 23.384 175.723,22.625 177.321,22.160 178.401 C 21.695 179.481,20.060 182.637,18.528 185.414 C 16.996 188.191,15.734 190.895,15.725 191.423 C 15.716 191.951,15.224 192.834,14.632 193.386 C 14.040 193.938,13.384 195.074,13.174 195.910 C 12.965 196.746,12.439 197.723,12.007 198.082 C 11.574 198.441,11.220 199.427,11.220 200.274 C 11.220 201.120,10.750 202.414,10.175 203.150 C 9.601 203.886,8.936 205.107,8.699 205.864 C 8.461 206.621,7.952 207.556,7.567 207.940 C 7.183 208.325,6.699 209.768,6.492 211.147 C 6.285 212.525,5.778 213.934,5.365 214.277 C 4.951 214.620,4.443 216.264,4.235 217.930 C 4.026 219.596,3.493 221.260,3.050 221.628 C 2.607 221.996,2.244 222.712,2.244 223.219 C 2.244 223.725,1.732 225.095,1.106 226.263 C -0.273 228.836,0.019 229.453,2.611 229.453 C 3.703 229.453,5.266 229.801,6.085 230.226 C 7.595 231.010,10.608 231.887,15.104 232.851 C 16.469 233.143,18.004 233.761,18.515 234.223 C 19.025 234.685,20.035 235.063,20.757 235.063 C 21.480 235.063,22.470 235.401,22.957 235.815 C 23.444 236.228,25.358 237.120,27.209 237.797 C 29.636 238.684,31.606 240.001,34.273 242.517 C 36.306 244.437,38.957 246.660,40.163 247.458 C 44.722 250.474,45.623 251.067,46.472 251.613 C 46.951 251.921,47.847 252.616,48.462 253.156 C 49.077 253.696,49.904 254.137,50.299 254.137 C 50.694 254.137,51.972 254.684,53.139 255.351 C 54.305 256.019,56.900 257.415,58.906 258.454 C 60.912 259.493,63.436 260.810,64.516 261.381 C 65.596 261.951,67.111 262.703,67.882 263.051 C 70.913 264.418,73.301 266.163,76.485 269.338 C 78.313 271.160,79.965 272.665,80.157 272.683 C 80.348 272.701,81.893 274.370,83.590 276.393 C 88.332 282.045,93.754 288.008,102.384 297.061 C 104.236 299.003,106.211 301.185,106.775 301.909 C 110.232 306.352,115.237 313.069,116.430 314.867 C 117.198 316.024,118.075 316.971,118.380 316.971 C 118.685 316.971,118.934 317.233,118.934 317.554 C 118.934 317.875,119.439 318.885,120.056 319.798 C 120.673 320.711,121.648 322.158,122.221 323.012 C 122.795 323.867,123.449 325.192,123.676 325.958 C 124.443 328.552,126.367 332.207,127.119 332.495 C 127.531 332.653,128.030 333.293,128.228 333.918 C 128.426 334.542,129.603 335.970,130.844 337.092 C 132.085 338.213,133.801 339.825,134.657 340.673 C 135.514 341.522,136.471 342.216,136.784 342.216 C 137.098 342.216,137.438 342.405,137.541 342.637 C 137.777 343.169,142.249 345.582,142.998 345.582 C 143.829 345.582,150.296 349.461,152.261 351.139 C 153.199 351.940,155.488 354.034,157.348 355.793 C 159.208 357.551,161.896 360.093,163.322 361.440 C 164.749 362.787,167.904 365.471,170.335 367.405 C 175.717 371.687,181.767 377.511,181.767 378.409 C 181.767 378.772,182.247 379.503,182.834 380.034 C 183.420 380.565,184.061 381.855,184.257 382.902 C 184.454 383.949,184.982 385.510,185.431 386.372 C 185.881 387.233,186.250 389.398,186.252 391.182 C 186.254 392.966,186.734 395.869,187.320 397.633 C 187.905 399.398,188.556 401.900,188.766 403.194 C 188.976 404.487,189.452 405.798,189.824 406.106 C 190.196 406.415,190.561 407.473,190.636 408.457 C 190.711 409.441,191.271 410.946,191.880 411.802 C 192.489 412.657,192.987 413.519,192.987 413.717 C 192.987 413.915,193.861 415.943,194.929 418.223 L 196.870 422.370 202.713 419.414 C 208.820 416.325,211.260 414.316,214.029 410.098 C 214.941 408.710,216.638 406.566,217.801 405.335 C 220.188 402.809,220.323 402.300,218.934 401.046 C 216.439 398.795,213.498 393.969,212.915 391.171 C 212.707 390.171,212.303 389.210,212.019 389.034 C 210.999 388.403,211.417 379.362,212.569 377.117 C 214.630 373.103,215.815 372.805,234.222 371.675 C 241.010 371.258,247.826 370.652,249.369 370.329 C 250.912 370.005,254.446 369.484,257.223 369.169 C 260.000 368.855,263.661 368.360,265.358 368.070 C 267.055 367.780,271.094 367.516,274.334 367.483 C 277.574 367.449,281.865 367.061,283.871 366.620 C 285.877 366.179,288.404 365.809,289.487 365.798 C 293.838 365.755,296.293 358.616,293.150 355.144 C 292.682 354.627,292.134 353.337,291.932 352.277 C 291.730 351.218,291.222 349.669,290.803 348.836 C 289.785 346.809,289.846 341.120,290.901 339.724 C 291.354 339.126,291.725 337.531,291.725 336.182 C 291.725 334.832,292.211 332.545,292.804 331.100 C 293.397 329.654,294.180 327.145,294.543 325.524 C 294.907 323.903,295.431 322.437,295.709 322.265 C 295.986 322.094,296.213 321.342,296.213 320.595 C 296.213 319.848,297.160 318.005,298.317 316.499 C 305.653 306.950,308.046 304.955,312.966 304.284 C 320.980 303.191,328.175 296.347,328.188 289.806 C 328.189 288.904,328.577 287.740,329.050 287.218 C 329.522 286.696,330.061 284.909,330.247 283.247 C 330.433 281.584,330.900 279.846,331.285 279.383 C 331.670 278.920,332.172 277.910,332.401 277.139 C 332.629 276.367,333.059 275.432,333.356 275.061 C 333.653 274.689,334.342 273.553,334.888 272.536 C 335.434 271.519,336.806 268.957,337.936 266.841 C 339.066 264.726,340.365 262.461,340.823 261.808 C 341.281 261.154,341.655 260.232,341.655 259.758 C 341.655 259.283,342.160 258.580,342.777 258.195 C 343.394 257.809,343.899 257.117,343.899 256.657 C 343.899 256.197,344.404 255.316,345.021 254.698 C 345.638 254.081,346.143 253.072,346.143 252.454 C 346.143 251.837,346.366 251.332,346.638 251.332 C 347.765 251.332,350.158 245.089,350.432 241.433 C 350.586 239.383,351.088 237.131,351.549 236.428 C 352.009 235.725,352.534 233.679,352.715 231.881 C 352.904 229.994,353.482 228.046,354.081 227.274 C 354.652 226.538,355.121 225.528,355.123 225.030 C 355.125 224.531,355.503 223.400,355.964 222.517 C 357.081 220.375,357.177 207.682,356.079 207.261 C 355.682 207.108,355.317 205.989,355.268 204.773 C 355.217 203.498,354.662 201.861,353.957 200.907 C 352.913 199.495,352.661 198.113,352.238 191.492 C 351.327 177.242,351.145 170.439,351.655 169.789 C 351.933 169.434,352.310 167.461,352.493 165.403 C 352.680 163.290,353.324 160.729,353.972 159.521 C 354.603 158.343,355.119 157.061,355.119 156.670 C 355.119 156.280,355.514 155.519,355.996 154.979 C 357.667 153.107,359.607 149.735,359.607 148.703 C 359.607 148.132,359.962 147.529,360.396 147.363 C 360.830 147.197,361.351 146.303,361.554 145.378 C 361.757 144.453,362.266 143.412,362.685 143.064 C 363.104 142.716,363.625 141.374,363.844 140.082 C 364.064 138.780,364.709 137.404,365.290 136.997 C 365.867 136.593,366.339 135.905,366.339 135.470 C 366.339 135.034,367.293 133.218,368.459 131.434 C 371.284 127.110,371.837 126.198,372.633 124.544 C 373.004 123.773,373.759 122.540,374.311 121.804 C 374.864 121.068,375.316 120.121,375.316 119.700 C 375.316 119.279,375.782 118.468,376.352 117.897 C 376.922 117.327,377.562 115.781,377.773 114.460 C 377.984 113.140,378.527 111.531,378.980 110.884 C 379.662 109.911,379.804 106.677,379.804 92.132 C 379.804 75.660,379.874 74.426,380.919 72.481 C 382.569 69.412,384.292 65.252,384.292 64.335 C 384.292 63.893,384.651 63.234,385.089 62.869 C 385.528 62.505,386.060 61.149,386.272 59.856 C 386.484 58.562,386.977 57.125,387.367 56.662 C 387.758 56.199,388.370 54.907,388.728 53.791 C 389.086 52.675,390.120 51.034,391.027 50.145 C 391.934 49.255,392.683 47.968,392.691 47.284 C 392.710 45.763,396.192 42.171,398.390 41.405 C 400.165 40.787,400.451 39.782,399.158 38.710 C 398.696 38.326,398.317 37.539,398.317 36.963 C 398.317 36.386,397.812 35.599,397.195 35.213 C 396.578 34.828,396.073 34.203,396.073 33.825 C 396.073 33.043,392.366 29.173,391.618 29.173 C 391.061 29.173,386.943 25.091,384.900 22.515 C 384.154 21.575,382.817 20.646,381.929 20.451 C 380.896 20.224,379.791 19.306,378.862 17.902 C 378.064 16.696,377.198 15.708,376.938 15.708 C 376.679 15.708,376.045 14.888,375.530 13.885 C 375.015 12.882,373.115 10.343,371.308 8.243 C 369.501 6.143,368.022 4.167,368.022 3.852 C 368.022 3.151,364.671 -0.272,364.620 0.378 " stroke="none" fill="#000000" fill-rule="evenodd"></path></g></svg>