<svg id="svg" version="1.1" xmlns="http://www.w3.org/2000/svg" xmlns:xlink="http://www.w3.org/1999/xlink" width="400" height="675.2362948960302" viewBox="0, 0, 400,675.2362948960302"><g id="svgg"><path id="path0" d="M357.853 2.432 C 357.057 3.818,355.003 5.478,352.741 6.565 C 346.199 9.707,341.100 12.549,339.652 13.859 C 338.884 14.554,337.881 15.123,337.423 15.123 C 336.966 15.123,335.329 16.314,333.785 17.769 C 332.242 19.225,330.642 20.416,330.231 20.416 C 329.325 20.416,319.093 30.724,319.093 31.636 C 319.093 31.990,318.412 32.896,317.580 33.648 C 316.749 34.401,316.068 35.337,316.068 35.729 C 316.068 36.121,314.003 38.695,311.479 41.449 C 308.955 44.204,306.701 47.403,306.470 48.559 C 306.238 49.716,305.744 50.662,305.371 50.662 C 304.999 50.662,304.275 51.593,303.765 52.731 C 302.914 54.625,302.200 55.575,299.027 59.035 C 298.427 59.690,297.724 61.285,297.465 62.579 C 297.207 63.873,296.555 65.101,296.017 65.307 C 295.479 65.513,294.809 66.726,294.529 68.002 C 294.249 69.278,293.698 70.321,293.305 70.321 C 292.912 70.321,292.263 71.181,291.864 72.232 C 291.464 73.283,290.530 74.389,289.787 74.689 C 289.045 74.990,286.453 76.597,284.027 78.261 C 278.449 82.086,270.230 86.469,263.894 88.998 C 261.191 90.076,258.308 91.420,257.488 91.982 C 256.667 92.545,255.249 93.006,254.335 93.006 C 253.422 93.006,251.711 93.503,250.534 94.112 C 248.164 95.336,242.990 96.786,234.405 98.631 C 231.285 99.301,226.352 100.385,223.440 101.039 C 220.529 101.692,216.786 102.472,215.123 102.771 C 213.459 103.070,211.418 103.688,210.586 104.143 C 209.754 104.599,205.841 105.716,201.890 106.626 C 197.940 107.536,194.344 108.577,193.899 108.939 C 193.455 109.302,191.243 109.975,188.984 110.435 C 186.725 110.895,181.969 112.266,178.414 113.481 C 174.859 114.696,171.051 115.690,169.952 115.690 C 168.853 115.690,167.773 115.982,167.553 116.338 C 167.332 116.695,165.091 117.424,162.571 117.958 C 160.051 118.493,157.810 119.222,157.589 119.579 C 157.369 119.935,156.040 120.227,154.636 120.227 C 147.756 120.227,136.862 131.633,136.862 138.837 C 136.862 139.634,136.181 141.557,135.350 143.109 C 134.518 144.661,133.837 146.303,133.837 146.759 C 133.837 147.215,133.157 148.453,132.325 149.510 C 131.493 150.568,130.813 151.929,130.813 152.535 C 130.813 153.141,130.132 154.502,129.301 155.559 C 128.469 156.617,127.788 158.250,127.788 159.189 C 127.788 160.128,127.297 161.085,126.696 161.316 C 126.095 161.547,125.365 163.029,125.074 164.611 C 124.783 166.192,123.946 168.256,123.214 169.198 C 122.234 170.458,121.741 173.049,121.344 179.027 C 121.048 183.492,120.491 187.538,120.107 188.017 C 119.722 188.497,119.207 191.899,118.962 195.579 C 118.695 199.583,117.949 203.542,117.103 205.441 C 116.326 207.185,115.690 208.849,115.690 209.138 C 115.690 209.750,113.164 215.393,111.082 219.431 C 110.289 220.969,109.641 222.703,109.641 223.284 C 109.641 223.865,108.960 224.956,108.129 225.709 C 107.297 226.462,106.616 227.482,106.616 227.977 C 106.616 228.472,105.936 229.493,105.104 230.246 C 104.272 230.998,103.592 231.932,103.592 232.321 C 103.592 234.847,92.185 241.268,86.200 242.111 C 76.015 243.546,55.753 243.727,51.895 242.417 C 46.012 240.419,44.639 240.748,40.239 245.203 C 37.896 247.576,36.295 249.870,36.295 250.856 C 36.295 251.769,35.616 253.630,34.785 254.991 C 33.955 256.353,33.275 257.909,33.273 258.449 C 33.272 258.990,31.144 262.109,28.544 265.381 C 25.945 268.653,21.976 273.943,19.723 277.136 C 17.470 280.329,15.205 283.104,14.688 283.302 C 14.171 283.501,12.101 285.763,10.088 288.329 C 8.074 290.895,5.917 293.518,5.293 294.158 C 4.669 294.797,3.663 296.331,3.057 297.566 C 2.451 298.801,1.490 300.377,0.920 301.068 C -0.765 303.114,-0.091 331.662,1.701 334.195 C 2.624 335.498,3.035 337.558,3.058 341.000 C 3.076 343.715,3.610 347.297,4.244 348.960 C 4.878 350.624,5.720 353.283,6.116 354.870 C 6.511 356.456,7.313 358.498,7.898 359.407 C 8.673 360.611,8.938 363.491,8.875 370.036 L 8.790 379.013 11.389 381.190 C 12.819 382.388,15.424 383.745,17.179 384.206 C 18.934 384.668,20.762 385.518,21.242 386.095 C 21.721 386.673,22.616 387.146,23.230 387.146 C 24.398 387.146,28.277 388.685,32.136 390.679 C 33.448 391.357,37.914 392.125,42.722 392.499 C 52.395 393.253,61.782 394.939,62.981 396.138 C 63.442 396.599,64.594 396.975,65.542 396.975 C 69.263 396.975,84.702 402.573,87.713 405.013 C 88.336 405.519,91.909 407.541,95.652 409.507 C 106.782 415.352,108.965 417.979,110.517 427.397 C 113.275 444.127,111.608 462.108,106.546 470.237 C 105.352 472.155,104.063 474.421,103.682 475.273 C 103.301 476.125,100.913 478.744,98.375 481.093 C 95.838 483.442,93.758 485.638,93.752 485.971 C 93.747 486.305,92.641 487.325,91.295 488.238 C 83.520 493.507,81.494 495.077,76.077 500.029 C 72.797 503.028,68.373 506.742,66.247 508.282 C 64.121 509.822,61.786 511.609,61.059 512.252 C 60.331 512.895,59.448 513.422,59.097 513.422 C 56.690 513.422,45.369 527.571,45.369 530.579 C 45.369 531.266,44.773 532.487,44.045 533.292 C 42.071 535.476,42.050 565.016,44.020 568.022 C 45.195 569.815,45.339 573.548,45.533 607.308 L 45.747 644.612 49.527 644.593 C 56.521 644.557,69.919 643.541,72.779 642.830 C 74.338 642.443,75.614 642.272,75.614 642.450 C 75.614 642.629,76.215 642.454,76.948 642.061 C 82.235 639.232,88.106 650.544,83.565 654.810 C 82.519 655.792,81.664 657.176,81.664 657.884 C 81.664 658.593,81.198 659.559,80.628 660.032 C 80.058 660.504,78.980 662.502,78.231 664.472 C 77.482 666.442,76.332 668.467,75.675 668.974 C 75.018 669.481,74.800 669.906,75.192 669.919 C 75.583 669.932,75.291 670.391,74.542 670.938 C 72.606 672.354,73.295 674.913,75.545 674.662 C 77.299 674.467,81.741 671.390,85.570 667.718 C 86.679 666.655,87.870 665.770,88.217 665.752 C 90.259 665.648,94.545 663.584,96.052 661.981 C 98.795 659.060,106.926 657.512,110.258 659.275 C 114.045 661.280,118.336 658.673,120.936 652.787 C 121.338 651.877,122.364 650.759,123.215 650.303 C 124.325 649.709,124.764 648.721,124.764 646.818 C 124.764 638.232,137.134 639.552,141.730 648.629 C 143.611 652.342,145.496 651.615,145.788 647.063 C 145.915 645.091,146.336 643.478,146.724 643.478 C 147.113 643.478,147.647 642.124,147.912 640.468 C 148.176 638.812,148.861 637.069,149.433 636.595 C 150.005 636.120,150.473 635.143,150.473 634.425 C 150.473 633.706,151.353 631.463,152.428 629.440 C 154.303 625.914,154.401 625.106,154.805 609.856 C 155.112 598.280,155.505 593.545,156.252 592.459 C 156.816 591.639,157.278 589.991,157.278 588.798 C 157.278 587.604,157.958 585.763,158.790 584.705 C 159.622 583.648,160.302 581.978,160.302 580.994 C 160.302 580.011,160.660 579.206,161.097 579.206 C 161.534 579.206,162.410 577.966,163.044 576.449 C 163.677 574.933,164.681 573.208,165.274 572.615 C 165.866 572.022,166.352 571.103,166.352 570.574 C 166.352 570.044,167.032 568.995,167.864 568.242 C 168.696 567.489,169.376 566.451,169.376 565.935 C 169.376 564.900,174.308 560.302,175.418 560.302 C 175.801 560.302,178.031 558.431,180.374 556.144 C 182.716 553.856,185.050 551.985,185.559 551.985 C 186.068 551.985,187.463 550.964,188.658 549.716 C 189.853 548.469,191.226 547.448,191.708 547.448 C 193.114 547.448,197.353 545.135,197.353 544.368 C 197.353 543.983,197.609 543.721,197.921 543.787 C 199.181 544.054,210.164 538.745,216.431 534.839 C 217.982 533.872,219.779 533.081,220.425 533.081 C 221.070 533.081,221.782 532.602,222.007 532.015 C 222.232 531.429,223.315 530.724,224.414 530.448 C 227.200 529.748,232.712 527.179,233.233 526.336 C 233.471 525.951,234.742 525.400,236.057 525.111 C 237.373 524.822,239.496 523.955,240.775 523.183 C 242.054 522.412,244.121 521.214,245.369 520.521 C 246.616 519.828,248.755 518.287,250.121 517.097 C 251.487 515.907,252.930 514.934,253.329 514.934 C 254.092 514.934,256.091 513.367,261.287 508.696 C 263.022 507.136,264.651 505.860,264.908 505.860 C 265.528 505.860,271.747 499.129,272.146 498.027 C 272.657 496.613,282.979 483.932,283.618 483.932 C 283.943 483.932,284.399 483.336,284.633 482.609 C 284.866 481.881,286.078 480.605,287.325 479.773 C 288.573 478.941,290.531 476.979,291.677 475.413 C 292.824 473.847,295.888 470.316,298.488 467.566 C 301.087 464.816,303.214 462.136,303.214 461.610 C 303.214 461.084,303.724 460.457,304.348 460.218 C 304.972 459.979,305.482 459.144,305.482 458.364 C 305.482 457.584,306.163 456.329,306.994 455.577 C 307.826 454.824,308.507 453.646,308.507 452.960 C 308.507 452.273,309.357 450.559,310.397 449.149 C 311.437 447.740,312.287 445.839,312.287 444.925 C 312.287 444.010,312.747 443.086,313.308 442.870 C 313.889 442.647,314.530 440.783,314.795 438.543 C 315.052 436.379,315.745 434.222,316.337 433.750 C 316.928 433.278,317.645 431.531,317.930 429.868 C 318.215 428.204,318.879 426.163,319.405 425.331 C 319.931 424.499,320.584 422.685,320.855 421.300 C 321.126 419.914,322.031 417.912,322.867 416.850 C 323.702 415.788,324.386 414.497,324.386 413.982 C 324.386 413.467,325.670 411.641,327.239 409.924 C 331.670 405.076,333.365 401.565,331.719 400.644 C 329.684 399.505,328.169 394.953,328.139 389.889 C 328.100 383.134,326.470 377.358,323.351 372.920 C 321.840 370.771,320.605 368.682,320.605 368.276 C 320.605 367.871,319.924 367.175,319.093 366.730 C 318.261 366.285,317.580 365.241,317.580 364.411 C 317.580 363.581,317.079 362.709,316.467 362.474 C 315.854 362.239,315.131 360.804,314.859 359.284 C 314.587 357.765,313.926 356.011,313.390 355.388 C 312.854 354.764,312.167 352.892,311.864 351.229 C 311.560 349.565,310.681 347.393,309.909 346.401 C 309.138 345.409,308.507 344.169,308.507 343.646 C 308.507 343.123,308.015 342.506,307.414 342.276 C 306.813 342.045,306.095 340.563,305.818 338.981 C 305.540 337.400,304.826 335.717,304.229 335.241 C 303.633 334.766,302.949 333.064,302.709 331.460 C 302.470 329.857,301.820 328.177,301.264 327.729 C 300.709 327.281,299.923 325.435,299.517 323.629 C 299.111 321.822,298.246 320.046,297.594 319.681 C 296.942 319.316,296.408 318.296,296.408 317.413 C 296.408 316.531,295.848 315.190,295.164 314.434 C 294.391 313.580,293.733 311.029,293.429 307.709 C 293.159 304.768,292.521 302.103,292.011 301.788 C 291.501 301.472,290.869 298.857,290.607 295.976 C 290.303 292.633,289.625 290.085,288.733 288.934 C 287.741 287.655,287.335 285.857,287.335 282.750 C 287.335 279.650,286.962 277.996,286.061 277.095 C 284.110 275.144,284.068 251.129,286.011 248.981 C 286.739 248.176,287.335 246.758,287.335 245.829 C 287.335 243.325,291.089 235.816,293.426 233.648 C 295.563 231.665,299.845 228.975,300.583 229.151 C 300.821 229.208,302.786 228.391,304.950 227.336 C 307.114 226.281,309.862 225.243,311.057 225.030 C 312.252 224.816,313.783 224.142,314.459 223.533 C 315.136 222.923,316.711 222.182,317.958 221.885 C 321.089 221.142,332.572 215.577,333.269 214.466 C 333.581 213.967,335.539 212.480,337.618 211.161 C 341.976 208.396,348.582 201.832,348.582 200.266 C 348.582 199.681,349.263 198.619,350.095 197.907 C 350.926 197.195,351.607 195.928,351.607 195.092 C 351.607 194.257,351.965 193.573,352.402 193.573 C 352.840 193.573,353.544 192.579,353.967 191.365 C 354.391 190.151,355.192 188.983,355.747 188.770 C 356.303 188.556,356.980 187.367,357.253 186.126 C 357.525 184.885,358.206 183.694,358.765 183.479 C 359.324 183.265,360.006 182.069,360.280 180.822 C 360.554 179.575,361.244 178.167,361.815 177.694 C 362.385 177.220,363.085 175.770,363.371 174.471 C 363.656 173.171,364.358 171.639,364.932 171.066 C 365.505 170.493,365.974 169.240,365.974 168.281 C 365.974 167.321,366.471 166.124,367.078 165.620 C 367.686 165.115,368.413 163.968,368.694 163.070 C 368.975 162.172,370.009 160.475,370.992 159.299 C 371.975 158.124,372.779 156.619,372.779 155.956 C 372.779 155.293,373.318 154.155,373.977 153.426 C 374.636 152.698,375.361 150.722,375.587 149.035 C 375.813 147.347,376.270 146.135,376.603 146.340 C 377.365 146.811,377.819 145.177,378.436 139.750 C 378.704 137.388,379.377 135.079,379.931 134.620 C 380.485 134.160,381.169 132.555,381.450 131.053 C 381.732 129.552,382.421 127.607,382.981 126.733 C 383.541 125.858,384.240 123.100,384.534 120.605 C 384.829 118.110,385.490 115.217,386.003 114.178 C 386.516 113.138,387.140 109.267,387.389 105.575 C 387.682 101.231,388.240 98.422,388.970 97.615 C 389.590 96.930,390.325 94.953,390.601 93.222 C 390.878 91.491,391.543 89.906,392.078 89.701 C 392.614 89.495,393.281 88.283,393.562 87.008 C 393.842 85.732,394.313 84.688,394.610 84.688 C 395.272 84.688,398.868 76.802,399.568 73.814 C 400.068 71.680,397.848 68.053,396.042 68.053 C 394.805 68.053,387.902 63.172,387.902 62.297 C 387.902 61.821,387.200 60.965,386.342 60.395 C 384.690 59.297,382.886 49.581,383.799 46.705 C 384.783 43.603,384.276 25.623,383.168 24.329 C 382.571 23.633,381.871 22.467,381.613 21.739 C 381.355 21.011,380.623 20.416,379.986 20.416 C 379.349 20.416,378.828 19.905,378.828 19.282 C 378.828 18.658,378.147 17.467,377.316 16.635 C 376.484 15.803,375.803 14.837,375.803 14.488 C 375.803 14.139,374.455 12.523,372.807 10.897 C 371.160 9.270,368.863 6.991,367.704 5.832 C 366.544 4.673,364.153 2.913,362.390 1.920 L 359.185 0.116 357.853 2.432 " stroke="none" fill="#000000" fill-rule="evenodd"></path></g></svg>