<svg id="svg" version="1.1" xmlns="http://www.w3.org/2000/svg" xmlns:xlink="http://www.w3.org/1999/xlink" width="400" height="269.9065420560747" viewBox="0, 0, 400,269.9065420560747"><g id="svgg"><path id="path0" d="M160.000 1.027 C 155.625 3.379,141.886 4.732,128.745 4.106 C 121.879 3.779,113.573 3.479,110.287 3.438 L 104.313 3.364 103.692 7.850 C 103.351 10.318,102.759 12.656,102.377 13.047 C 101.995 13.437,101.677 15.624,101.671 17.907 C 101.661 21.749,100.409 26.943,99.204 28.148 C 98.922 28.430,98.692 29.206,98.692 29.873 C 98.692 30.540,98.014 32.415,97.185 34.040 C 96.357 35.665,95.850 37.440,96.058 37.984 C 96.267 38.528,95.976 39.877,95.410 40.982 C 94.498 42.765,93.940 45.167,92.948 51.589 C 92.790 52.617,92.328 58.829,91.923 65.393 C 90.740 84.562,88.245 89.753,76.995 96.449 C 75.268 97.477,71.006 100.421,67.523 102.991 C 64.041 105.561,60.952 107.664,60.659 107.664 C 59.379 107.664,45.110 122.389,40.000 128.983 C 39.178 130.044,37.748 131.755,36.822 132.784 C 35.897 133.814,35.140 135.092,35.140 135.624 C 35.140 136.155,34.467 137.200,33.645 137.944 C 32.822 138.688,32.150 139.675,32.150 140.137 C 32.150 140.598,31.477 141.552,30.654 142.256 C 29.832 142.961,29.159 144.045,29.159 144.666 C 29.159 145.286,28.846 145.794,28.464 145.794 C 27.668 145.794,23.178 152.214,23.178 153.353 C 23.178 153.768,22.884 153.926,22.526 153.704 C 22.167 153.482,21.272 154.893,20.536 156.838 C 19.800 158.782,18.680 161.215,18.048 162.243 C 16.968 163.998,16.358 164.754,13.381 168.028 C 11.007 170.639,6.728 177.390,6.688 178.589 C 6.666 179.262,6.675 186.710,6.709 195.140 C 6.773 210.772,5.014 228.742,3.065 232.384 C 2.149 234.096,0.971 247.928,0.606 261.248 C 0.381 269.496,0.734 270.646,3.202 269.698 C 3.703 269.506,4.329 269.391,4.594 269.441 C 4.860 269.491,5.701 268.970,6.464 268.281 C 7.226 267.593,9.869 266.288,12.336 265.381 C 14.804 264.474,17.327 263.342,17.944 262.865 C 18.561 262.387,20.327 261.427,21.869 260.730 C 23.411 260.033,24.673 259.130,24.673 258.723 C 24.673 258.316,25.647 257.479,26.837 256.863 C 28.027 256.248,29.998 254.810,31.219 253.667 C 34.414 250.673,39.997 246.729,41.038 246.729 C 41.528 246.729,43.345 245.986,45.077 245.078 C 49.566 242.723,62.231 242.750,67.436 245.126 C 69.366 246.008,71.491 246.729,72.158 246.729 C 72.824 246.729,73.942 247.036,74.643 247.411 C 81.003 250.814,132.414 248.860,139.813 244.933 C 140.841 244.388,142.690 243.701,143.921 243.406 C 147.383 242.578,148.037 241.637,148.037 237.489 C 148.037 232.419,150.993 226.540,154.906 223.829 C 156.507 222.719,158.802 220.690,160.004 219.320 C 162.892 216.031,171.394 211.715,176.075 211.163 C 178.131 210.921,180.486 210.404,181.308 210.015 C 183.346 209.051,257.347 209.644,264.997 210.686 C 269.593 211.312,271.659 212.009,274.177 213.784 C 275.965 215.044,277.743 216.075,278.130 216.075 C 278.517 216.075,279.580 217.084,280.492 218.318 C 281.404 219.551,282.508 220.563,282.944 220.565 C 283.612 220.569,294.831 230.322,301.308 236.529 C 304.982 240.050,313.890 246.492,316.362 247.416 C 317.746 247.934,319.720 248.801,320.748 249.343 C 322.859 250.455,331.533 253.458,332.638 253.458 C 333.035 253.458,334.308 253.857,335.465 254.344 C 337.567 255.229,342.884 256.529,350.654 258.057 C 352.916 258.502,355.271 259.287,355.888 259.801 C 356.505 260.316,359.431 260.929,362.392 261.163 C 365.352 261.397,368.442 261.946,369.259 262.383 C 376.840 266.441,403.561 256.389,398.897 251.235 C 398.270 250.542,397.757 249.582,397.757 249.100 C 397.757 248.618,397.168 247.631,396.449 246.906 C 395.729 246.180,394.703 244.750,394.169 243.728 C 391.625 238.859,390.759 237.354,390.300 237.009 C 388.506 235.662,379.352 221.062,376.706 215.327 C 373.594 208.582,373.084 207.134,373.084 205.035 C 373.084 203.580,372.588 202.414,371.776 201.960 C 370.610 201.308,370.440 199.566,370.216 185.972 L 369.964 170.715 365.900 168.722 C 363.665 167.626,361.171 166.729,360.357 166.729 C 359.544 166.729,358.879 166.393,358.879 165.981 C 358.879 165.570,357.269 165.234,355.301 165.234 C 353.334 165.234,349.809 164.561,347.469 163.738 C 345.129 162.916,342.279 162.243,341.135 162.243 C 339.991 162.243,337.880 161.885,336.444 161.446 C 335.007 161.008,331.539 160.342,328.737 159.966 C 325.935 159.589,323.243 159.022,322.756 158.706 C 322.268 158.390,319.514 157.742,316.636 157.266 C 313.757 156.791,310.056 156.056,308.411 155.634 C 306.766 155.212,303.907 154.478,302.056 154.003 C 300.206 153.529,296.841 152.910,294.579 152.628 C 292.318 152.346,290.049 151.852,289.538 151.531 C 289.027 151.209,287.008 150.491,285.052 149.935 C 280.221 148.562,275.920 146.922,271.276 144.681 C 269.135 143.649,266.757 142.804,265.990 142.804 C 265.224 142.804,260.806 140.953,256.172 138.692 C 251.539 136.430,247.014 134.579,246.117 134.579 C 245.220 134.579,244.486 134.325,244.486 134.014 C 244.486 133.208,237.466 130.093,235.648 130.093 C 234.811 130.093,233.621 129.589,233.004 128.972 C 232.387 128.355,231.628 127.850,231.317 127.850 C 231.007 127.850,229.216 127.140,227.339 126.272 C 210.422 118.451,202.671 113.301,197.757 106.617 C 196.935 105.498,193.943 102.164,191.109 99.207 C 188.275 96.251,185.297 92.486,184.490 90.841 C 181.937 85.632,180.493 83.190,179.200 81.897 C 178.509 81.206,177.944 80.044,177.944 79.315 C 177.944 78.585,177.271 77.380,176.449 76.636 C 175.626 75.891,174.953 74.703,174.953 73.994 C 174.953 73.286,174.458 72.295,173.852 71.792 C 173.246 71.289,172.535 69.650,172.273 68.149 C 172.011 66.648,171.344 65.058,170.792 64.615 C 170.236 64.170,169.561 61.498,169.279 58.634 C 169.000 55.787,168.396 52.986,167.937 52.410 C 167.377 51.707,166.980 42.967,166.729 25.868 L 166.355 0.374 164.112 0.198 C 162.879 0.102,161.028 0.475,160.000 1.027 " stroke="none" fill="#000000" fill-rule="evenodd"></path></g></svg>