<svg id="svg" version="1.1" xmlns="http://www.w3.org/2000/svg" xmlns:xlink="http://www.w3.org/1999/xlink" width="400" height="350.1538461538462" viewBox="0, 0, 400,350.1538461538462"><g id="svgg"><path id="path0" d="M121.891 1.621 C 121.189 2.513,120.615 3.723,120.615 4.310 C 120.615 5.298,117.280 9.905,113.988 13.465 C 112.424 15.156,111.667 15.631,105.549 18.764 C 103.186 19.974,100.984 21.231,100.657 21.559 C 100.329 21.886,99.683 22.154,99.220 22.154 C 98.014 22.154,94.343 25.084,92.747 27.321 C 91.495 29.076,91.356 30.156,91.037 40.615 C 90.679 52.368,89.616 57.105,86.992 58.646 C 86.531 58.917,86.154 59.536,86.154 60.021 C 86.154 62.365,72.803 73.846,70.078 73.846 C 69.578 73.846,68.832 74.184,68.419 74.596 C 67.899 75.117,63.201 75.482,53.065 75.790 C 37.482 76.263,34.082 76.787,28.000 79.646 C 19.165 83.799,15.060 85.907,14.128 86.769 C 11.576 89.130,8.464 91.692,8.149 91.692 C 7.958 91.692,6.903 92.701,5.806 93.935 C 4.083 95.872,3.551 96.126,1.905 95.796 L 0.000 95.415 0.000 108.938 L 0.000 122.462 4.462 122.456 C 6.915 122.453,11.998 122.179,15.757 121.846 C 29.039 120.670,44.025 124.605,53.231 131.685 C 53.569 131.946,55.785 132.791,58.154 133.564 C 60.523 134.337,62.899 135.340,63.433 135.793 C 63.967 136.245,64.606 136.615,64.851 136.615 C 65.856 136.615,70.769 139.148,70.769 139.666 C 70.769 139.973,71.316 140.398,71.984 140.610 C 73.975 141.242,75.706 144.325,76.380 148.441 C 76.729 150.568,77.097 152.585,77.198 152.923 C 77.299 153.262,77.409 153.677,77.443 153.846 C 77.477 154.015,77.925 155.538,78.438 157.231 C 78.995 159.068,79.380 162.787,79.393 166.462 C 79.405 169.846,79.659 173.723,79.957 175.077 C 80.256 176.431,80.680 180.837,80.900 184.868 C 81.163 189.692,81.603 192.631,82.188 193.466 C 84.654 196.987,81.503 211.790,77.103 217.359 C 76.758 217.796,76.286 219.393,76.055 220.907 C 75.823 222.421,75.220 224.118,74.714 224.677 C 74.208 225.236,73.621 226.766,73.410 228.078 C 73.199 229.389,72.588 230.785,72.052 231.181 C 71.223 231.792,71.077 233.611,71.077 243.291 C 71.077 255.728,70.757 254.446,74.923 258.720 C 75.685 259.502,76.308 260.357,76.308 260.621 C 76.308 260.885,79.729 264.453,83.911 268.550 C 88.093 272.648,91.992 276.929,92.575 278.064 C 93.159 279.199,94.722 281.691,96.048 283.602 C 97.375 285.513,98.460 287.389,98.461 287.771 C 98.461 288.152,98.859 288.795,99.345 289.198 C 99.831 289.601,100.412 290.812,100.636 291.889 C 100.860 292.965,101.390 294.400,101.812 295.077 C 103.189 297.281,103.471 302.720,103.414 325.956 C 103.383 338.539,103.597 348.982,103.888 349.162 C 105.002 349.850,213.804 349.763,215.457 349.073 C 218.926 347.624,220.570 345.388,220.690 341.958 C 220.785 339.206,221.262 334.265,221.744 331.035 C 222.152 328.296,224.313 326.672,228.338 326.079 C 230.522 325.758,233.733 325.285,235.474 325.030 C 237.216 324.774,239.016 324.256,239.474 323.878 C 239.933 323.501,241.690 322.986,243.379 322.735 C 245.067 322.483,248.114 321.532,250.148 320.621 C 252.182 319.710,255.369 318.470,257.231 317.865 C 259.092 317.260,261.052 316.386,261.585 315.923 C 262.118 315.460,263.318 315.018,264.253 314.940 C 265.187 314.863,266.197 314.341,266.497 313.781 C 266.857 313.107,268.248 312.615,270.598 312.329 C 277.532 311.486,279.093 311.228,280.502 310.694 C 281.285 310.397,282.567 310.154,283.349 310.154 C 284.132 310.154,285.117 309.738,285.538 309.231 C 285.960 308.723,286.689 308.308,287.159 308.308 C 287.628 308.308,290.181 307.237,292.832 305.928 C 295.482 304.619,299.148 303.185,300.979 302.741 C 302.810 302.296,304.586 301.608,304.925 301.210 C 306.174 299.749,312.434 297.263,315.888 296.857 C 319.594 296.421,325.239 293.586,327.736 290.906 C 328.437 290.154,329.545 289.218,330.198 288.826 C 330.851 288.435,331.318 287.820,331.237 287.460 C 331.066 286.705,333.187 285.430,334.315 285.609 C 336.344 285.930,341.048 282.795,346.742 277.325 C 348.449 275.685,350.885 273.810,352.154 273.159 C 353.423 272.508,354.462 271.715,354.462 271.397 C 354.462 271.079,355.577 269.787,356.940 268.526 C 358.303 267.264,359.574 265.612,359.765 264.853 C 359.955 264.094,360.501 263.324,360.979 263.141 C 361.456 262.958,361.846 262.216,361.846 261.492 C 361.846 260.769,362.517 259.649,363.337 259.004 C 364.158 258.359,365.002 257.040,365.215 256.073 C 365.427 255.105,366.095 254.070,366.698 253.772 C 369.191 252.542,372.550 247.946,372.491 245.848 C 372.448 244.328,372.732 243.725,373.601 243.498 C 374.370 243.297,374.769 242.646,374.769 241.596 C 374.769 240.718,375.053 240.000,375.400 240.000 C 375.747 240.000,376.317 239.248,376.666 238.328 C 377.016 237.408,377.620 236.273,378.009 235.804 C 378.397 235.336,378.778 234.635,378.854 234.246 C 378.930 233.857,379.561 232.033,380.254 230.194 C 380.948 228.354,381.415 226.748,381.291 226.625 C 381.168 226.501,382.142 224.322,383.457 221.782 C 384.771 219.243,385.846 216.521,385.846 215.735 C 385.846 214.948,386.262 213.960,386.769 213.538 C 387.277 213.117,387.692 212.443,387.692 212.040 C 387.692 211.638,388.212 210.218,388.847 208.885 C 389.481 207.552,390.193 204.874,390.428 202.933 C 390.663 200.992,391.095 199.256,391.389 199.074 C 392.134 198.614,393.846 195.074,393.846 193.994 C 393.846 193.502,394.538 192.556,395.385 191.890 C 396.231 191.224,396.923 190.328,396.923 189.897 C 396.923 189.466,397.499 188.593,398.203 187.956 C 399.235 187.022,399.417 186.319,399.143 184.322 C 398.677 180.934,398.691 173.327,399.169 169.231 C 400.122 161.064,399.803 156.665,398.095 154.413 C 397.216 153.255,395.986 151.200,395.361 149.846 C 394.736 148.492,393.618 146.554,392.876 145.538 C 392.134 144.523,391.359 143.138,391.154 142.462 C 390.583 140.582,384.180 134.154,382.879 134.154 C 382.247 134.154,380.925 133.462,379.942 132.616 C 378.958 131.770,377.731 131.078,377.214 131.078 C 376.697 131.077,375.658 130.646,374.905 130.118 C 373.665 129.249,373.179 129.253,369.692 130.162 C 365.904 131.148,354.604 131.950,333.846 132.704 L 323.385 133.085 319.525 131.057 C 316.700 129.572,315.562 128.602,315.281 127.437 C 315.070 126.562,314.407 124.877,313.807 123.692 C 313.208 122.508,312.411 120.846,312.036 120.000 C 311.661 119.154,310.257 116.523,308.916 114.154 C 307.575 111.785,306.124 109.154,305.693 108.308 C 302.150 101.358,295.674 96.000,290.817 96.000 C 289.689 96.000,287.772 95.585,286.556 95.077 C 284.805 94.345,281.344 94.154,269.844 94.154 C 252.893 94.154,253.046 94.105,247.692 101.213 C 247.015 102.111,245.977 103.306,245.385 103.868 C 244.792 104.429,244.308 105.095,244.308 105.346 C 244.308 105.893,243.553 106.726,235.478 115.077 C 228.411 122.387,226.831 123.622,222.115 125.524 C 220.275 126.266,217.800 127.299,216.615 127.819 C 212.033 129.829,189.448 130.863,183.171 129.350 C 177.254 127.923,176.726 126.095,176.661 106.818 C 176.622 95.333,176.468 93.165,175.626 92.235 C 174.939 91.475,174.542 89.489,174.326 85.725 C 174.138 82.429,173.649 79.724,173.079 78.818 C 172.494 77.888,172.031 75.225,171.849 71.741 C 171.688 68.668,171.190 65.568,170.741 64.852 C 170.293 64.136,169.732 61.833,169.494 59.735 C 169.257 57.637,168.638 55.495,168.118 54.975 C 167.547 54.404,167.013 52.292,166.767 49.631 C 166.543 47.211,165.900 44.400,165.337 43.385 C 164.775 42.369,164.314 41.237,164.311 40.868 C 164.305 39.721,160.551 32.615,159.952 32.615 C 159.640 32.615,159.385 32.095,159.385 31.460 C 159.385 30.824,158.987 29.975,158.501 29.571 C 158.015 29.168,157.439 28.023,157.220 27.026 C 156.794 25.088,152.131 19.570,149.849 18.304 C 144.633 15.411,143.659 14.910,143.385 14.984 C 143.215 15.029,141.831 14.214,140.308 13.171 C 138.785 12.129,136.343 10.488,134.881 9.525 C 133.419 8.562,131.066 6.704,129.650 5.396 C 122.747 -0.985,123.611 -0.565,121.891 1.621 " stroke="none" fill="#000000" fill-rule="evenodd"></path></g></svg>