<svg id="svg" version="1.1" xmlns="http://www.w3.org/2000/svg" xmlns:xlink="http://www.w3.org/1999/xlink" width="400" height="377.6397515527951" viewBox="0, 0, 400,377.6397515527951"><g id="svgg"><path id="path0" d="M372.746 0.536 C 369.919 0.753,366.922 1.168,366.088 1.459 C 365.255 1.750,363.991 1.987,363.280 1.986 C 362.569 1.985,359.528 2.418,356.522 2.948 C 346.953 4.637,343.786 5.057,335.652 5.719 C 331.280 6.074,324.907 6.612,321.491 6.914 C 311.530 7.796,299.562 10.062,298.572 11.255 C 298.266 11.624,297.784 11.925,297.503 11.925 C 296.741 11.925,291.779 14.340,291.452 14.870 C 291.296 15.121,290.497 15.475,289.677 15.655 C 288.856 15.835,286.963 16.635,285.468 17.432 C 283.974 18.230,282.439 18.882,282.058 18.882 C 281.676 18.882,281.110 19.188,280.799 19.563 C 280.488 19.937,279.175 20.647,277.881 21.140 C 276.587 21.634,274.410 22.743,273.043 23.605 C 271.677 24.467,270.224 25.324,269.814 25.509 C 269.404 25.694,268.174 26.407,267.081 27.093 C 265.988 27.779,264.590 28.554,263.975 28.816 C 263.360 29.078,262.857 29.499,262.857 29.753 C 262.857 30.006,262.224 30.434,261.449 30.704 C 259.948 31.228,254.189 36.477,253.239 38.188 C 252.190 40.079,248.233 44.945,245.595 47.588 C 244.158 49.029,242.981 50.426,242.981 50.694 C 242.981 50.961,242.672 51.180,242.293 51.180 C 241.915 51.180,241.273 51.683,240.867 52.298 C 240.461 52.913,239.485 54.056,238.698 54.839 L 237.267 56.261 237.119 70.491 C 237.012 80.839,236.791 85.195,236.309 86.460 C 235.945 87.416,235.484 89.205,235.285 90.435 C 235.086 91.665,234.652 93.006,234.320 93.416 C 233.988 93.826,233.418 95.112,233.052 96.273 C 232.687 97.435,232.200 98.385,231.970 98.385 C 231.741 98.385,231.549 99.000,231.545 99.752 C 231.541 100.503,231.215 101.677,230.820 102.360 C 230.424 103.043,229.941 103.938,229.745 104.348 C 229.550 104.758,228.123 106.658,226.576 108.571 C 225.028 110.484,223.017 113.224,222.107 114.658 C 221.198 116.093,220.283 117.267,220.074 117.267 C 219.865 117.267,219.550 117.721,219.374 118.277 C 219.198 118.832,218.496 119.894,217.815 120.637 C 215.388 123.284,215.155 123.565,215.155 123.852 C 215.155 124.733,209.746 129.282,206.150 131.425 C 201.945 133.931,193.656 138.137,192.920 138.137 C 192.701 138.137,191.185 138.800,189.553 139.612 C 187.920 140.423,186.248 141.095,185.839 141.106 C 185.429 141.116,184.422 141.569,183.602 142.112 C 182.783 142.655,181.708 143.101,181.215 143.102 C 180.721 143.104,179.044 143.771,177.488 144.585 C 175.059 145.855,169.206 148.585,168.447 148.803 C 168.311 148.842,166.186 149.832,163.727 151.003 C 161.267 152.174,158.025 153.702,156.522 154.398 C 155.019 155.095,151.983 156.529,149.776 157.584 C 147.570 158.640,145.401 159.503,144.956 159.503 C 144.512 159.503,143.970 159.794,143.751 160.149 C 143.533 160.504,141.901 161.214,140.124 161.727 C 138.348 162.239,136.000 163.122,134.907 163.690 C 132.963 164.698,132.293 164.720,104.596 164.717 L 76.273 164.714 73.043 163.533 C 71.267 162.884,69.590 162.189,69.317 161.990 C 69.043 161.791,68.149 161.468,67.329 161.272 C 66.509 161.076,65.503 160.626,65.093 160.270 C 64.683 159.915,62.894 159.123,61.118 158.509 C 59.342 157.896,57.553 157.135,57.143 156.818 C 56.733 156.501,55.391 155.713,54.161 155.066 C 52.932 154.419,51.590 153.634,51.180 153.321 C 46.747 149.938,40.200 151.334,38.705 155.981 C 38.026 158.094,35.395 162.334,34.566 162.652 C 34.245 162.775,33.672 163.817,33.292 164.968 C 32.912 166.119,32.098 167.391,31.481 167.794 C 30.865 168.198,30.110 169.349,29.804 170.351 C 29.498 171.354,29.044 172.621,28.796 173.168 C 28.548 173.714,28.274 174.720,28.187 175.404 C 28.100 176.087,27.761 177.133,27.433 177.728 C 27.104 178.323,26.955 179.120,27.101 179.500 C 27.246 179.879,27.023 180.846,26.605 181.648 C 26.187 182.449,25.843 183.671,25.842 184.361 C 25.840 185.052,25.538 186.058,25.171 186.598 C 24.804 187.137,24.200 188.625,23.830 189.906 C 23.459 191.187,23.009 192.144,22.829 192.033 C 22.450 191.798,19.379 195.492,19.379 196.183 C 19.379 196.439,19.043 196.927,18.634 197.267 C 18.224 197.607,17.888 198.295,17.888 198.796 C 17.888 199.297,17.329 200.265,16.646 200.949 C 15.963 201.632,15.404 202.621,15.404 203.146 C 15.404 203.672,15.068 204.380,14.658 204.720 C 14.248 205.061,13.913 205.593,13.913 205.904 C 13.913 206.215,13.298 207.132,12.547 207.942 C 11.317 209.267,10.438 211.032,9.575 213.913 C 9.411 214.460,8.747 215.609,8.100 216.467 C 7.424 217.362,6.723 219.249,6.456 220.893 C 6.199 222.469,5.562 224.226,5.040 224.798 C 4.282 225.630,4.074 226.679,4.005 230.031 C 3.958 232.337,3.794 234.426,3.641 234.674 C 3.487 234.921,3.641 236.439,3.982 238.047 C 4.613 241.017,4.267 242.985,2.774 244.921 C 2.478 245.304,2.214 247.429,2.188 249.641 C 2.152 252.635,1.874 254.212,1.102 255.804 C 0.222 257.617,0.175 257.987,0.796 258.225 C 1.721 258.580,3.478 257.026,3.478 255.853 C 3.478 255.365,3.671 254.847,3.906 254.701 C 4.141 254.556,4.706 253.111,5.160 251.491 C 5.615 249.870,6.317 248.418,6.720 248.263 C 7.123 248.108,7.453 247.527,7.453 246.972 C 7.453 246.417,7.776 245.963,8.171 245.963 C 8.565 245.963,9.180 245.549,9.537 245.044 C 10.388 243.840,17.879 240.000,19.377 240.000 C 20.018 240.000,20.896 239.698,21.327 239.329 C 22.214 238.571,26.798 237.020,28.168 237.016 C 28.663 237.014,29.648 236.710,30.357 236.340 C 31.065 235.970,32.519 235.504,33.587 235.304 C 38.705 234.346,44.606 229.971,47.006 225.356 C 48.238 222.986,48.736 222.500,50.435 222.012 C 51.528 221.698,52.652 221.271,52.932 221.063 C 57.179 217.911,61.841 222.738,58.758 227.094 C 57.313 229.135,57.583 256.310,59.075 259.111 C 59.652 260.194,60.124 261.710,60.124 262.481 C 60.124 263.268,60.451 264.007,60.870 264.168 C 61.280 264.325,61.615 264.789,61.615 265.199 C 61.615 266.139,63.857 268.832,65.267 269.585 C 65.855 269.899,67.835 270.973,69.668 271.972 C 71.501 272.971,73.319 273.789,73.707 273.789 C 74.095 273.789,74.668 274.097,74.981 274.474 C 75.294 274.851,76.160 275.282,76.906 275.432 C 77.651 275.583,79.267 276.388,80.497 277.222 C 81.727 278.057,83.107 278.744,83.564 278.749 C 84.022 278.754,85.028 279.286,85.800 279.932 C 86.573 280.578,87.764 281.278,88.447 281.487 C 89.130 281.697,90.925 282.488,92.435 283.245 C 93.945 284.003,96.125 284.876,97.280 285.187 C 98.434 285.498,99.379 285.956,99.379 286.205 C 99.379 286.454,100.665 287.030,102.236 287.485 C 105.190 288.341,106.545 288.862,107.826 289.635 C 108.236 289.883,109.578 290.485,110.807 290.973 C 112.037 291.461,113.505 292.267,114.069 292.763 C 114.633 293.259,115.360 293.665,115.684 293.665 C 116.008 293.665,116.273 293.888,116.273 294.161 C 116.273 294.435,116.521 294.658,116.823 294.658 C 117.338 294.658,119.890 296.508,120.994 297.681 C 121.267 297.971,121.994 298.721,122.609 299.348 C 123.224 299.974,123.727 300.659,123.727 300.870 C 123.727 301.080,124.230 301.737,124.845 302.330 C 131.240 308.493,131.180 308.192,131.180 334.018 C 131.180 345.953,130.986 355.838,130.749 355.984 C 130.511 356.131,130.161 357.836,129.970 359.772 C 129.779 361.709,129.277 364.229,128.854 365.373 C 128.431 366.517,127.790 369.207,127.429 371.350 C 126.987 373.979,126.480 375.463,125.871 375.913 C 125.167 376.433,125.100 376.712,125.567 377.186 C 126.276 377.904,130.586 376.484,131.004 375.393 C 131.141 375.038,131.823 374.605,132.521 374.430 C 134.231 374.000,138.098 371.019,139.627 368.950 C 146.752 359.312,147.067 359.056,159.848 352.551 C 162.528 351.187,166.174 348.825,167.950 347.303 C 169.727 345.781,171.571 344.389,172.050 344.209 C 172.528 344.029,172.919 343.482,172.919 342.992 C 172.919 342.503,173.366 341.823,173.913 341.482 C 174.460 341.140,174.907 340.544,174.907 340.156 C 174.907 339.767,175.298 339.059,175.776 338.582 C 176.431 337.927,176.711 336.578,176.910 333.115 C 177.104 329.743,177.402 328.265,178.028 327.573 C 178.498 327.054,178.883 326.200,178.885 325.675 C 178.887 325.150,179.256 324.050,179.705 323.230 C 180.228 322.278,180.606 320.087,180.754 317.167 C 180.939 313.515,181.174 312.425,181.922 311.749 C 182.436 311.283,182.857 310.357,182.857 309.690 C 182.857 308.944,183.199 308.389,183.746 308.246 C 184.235 308.118,184.850 307.547,185.113 306.977 C 185.375 306.407,186.708 305.359,188.075 304.647 L 190.559 303.354 204.614 303.354 C 214.258 303.354,218.781 303.525,219.024 303.899 C 219.219 304.198,219.964 304.586,220.679 304.761 C 221.393 304.936,224.249 307.318,227.025 310.055 C 229.800 312.792,232.266 315.031,232.504 315.031 C 232.742 315.031,233.061 315.355,233.213 315.750 C 233.552 316.634,235.339 317.580,239.527 319.091 C 244.242 320.793,282.003 320.914,284.472 319.235 C 285.292 318.677,286.410 317.984,286.957 317.695 C 287.503 317.406,288.204 316.670,288.513 316.060 C 288.823 315.449,289.753 314.242,290.580 313.376 C 291.407 312.510,292.447 311.019,292.892 310.062 C 294.444 306.722,295.196 305.637,297.775 303.014 C 300.783 299.955,304.503 297.306,306.461 296.828 C 307.212 296.644,308.359 296.081,309.011 295.576 C 309.663 295.071,310.712 294.658,311.342 294.658 C 311.972 294.658,312.626 294.435,312.795 294.161 C 312.964 293.888,313.480 293.658,313.942 293.649 C 314.405 293.640,316.119 292.970,317.751 292.158 C 319.384 291.347,321.182 290.683,321.746 290.683 C 322.310 290.683,323.648 290.236,324.720 289.689 C 325.793 289.143,326.961 288.696,327.317 288.696 C 327.673 288.696,328.352 288.472,328.827 288.199 C 330.018 287.513,332.555 286.521,333.225 286.479 C 333.529 286.460,334.110 286.169,334.516 285.832 C 334.922 285.496,336.350 284.999,337.689 284.728 C 339.028 284.458,341.779 283.789,343.801 283.241 C 348.109 282.074,359.145 281.237,371.553 281.138 C 379.372 281.075,380.124 280.992,380.124 280.195 C 380.124 279.314,377.715 277.267,376.678 277.267 C 376.370 277.267,375.992 276.940,375.839 276.541 C 375.686 276.141,375.134 275.679,374.612 275.513 C 373.342 275.110,365.420 269.272,363.178 267.087 C 362.194 266.127,361.233 265.342,361.043 265.342 C 360.522 265.342,358.295 262.690,358.277 262.048 C 358.268 261.740,357.811 261.181,357.261 260.806 C 355.622 259.689,355.171 253.635,355.524 237.516 C 355.782 225.716,355.712 223.011,355.101 221.295 C 354.697 220.163,354.308 218.151,354.236 216.823 C 354.153 215.306,353.676 213.767,352.953 212.680 C 352.319 211.728,351.801 210.554,351.801 210.071 C 351.801 209.588,351.614 209.193,351.384 209.193 C 351.155 209.193,350.688 208.578,350.346 207.826 C 349.681 206.362,343.187 200.083,339.173 197.023 C 337.829 195.999,336.208 194.541,335.570 193.782 C 334.611 192.642,334.029 192.410,332.206 192.438 C 328.564 192.496,327.453 190.312,329.801 187.706 C 330.464 186.970,330.565 185.291,330.475 176.441 C 330.392 168.224,330.519 165.744,331.083 164.635 C 331.475 163.862,331.956 161.340,332.152 159.030 C 332.406 156.035,332.740 154.660,333.315 154.239 C 334.018 153.725,334.159 151.652,334.415 138.067 C 334.720 121.875,335.082 119.205,337.214 117.461 C 337.585 117.157,337.888 116.718,337.888 116.484 C 337.888 116.089,338.313 115.596,341.242 112.587 C 341.857 111.956,342.360 111.219,342.360 110.951 C 342.360 110.682,342.807 109.947,343.354 109.317 C 343.901 108.687,344.348 107.646,344.348 107.005 C 344.348 106.345,344.645 105.839,345.033 105.839 C 345.410 105.839,345.996 105.168,346.335 104.348 C 346.675 103.528,347.125 102.857,347.336 102.857 C 347.546 102.857,347.870 102.252,348.056 101.513 C 348.241 100.774,348.825 99.866,349.352 99.497 C 349.879 99.128,350.311 98.538,350.311 98.185 C 350.311 97.833,350.758 97.141,351.304 96.646 C 351.851 96.151,352.298 95.551,352.298 95.312 C 352.298 95.073,353.193 93.746,354.286 92.363 C 355.379 90.980,356.273 89.653,356.273 89.413 C 356.273 89.173,357.056 88.195,358.012 87.238 C 358.969 86.282,359.752 85.294,359.752 85.043 C 359.752 84.793,360.646 83.780,361.739 82.792 C 362.832 81.804,363.727 80.860,363.727 80.694 C 363.727 80.269,368.824 75.528,369.280 75.528 C 369.486 75.528,369.867 75.137,370.126 74.658 C 370.385 74.180,372.526 72.447,374.883 70.807 C 387.281 62.185,390.055 59.808,390.078 57.792 C 390.087 57.025,390.527 55.168,391.056 53.665 C 391.839 51.439,392.024 49.503,392.055 43.230 C 392.083 37.628,392.299 34.986,392.847 33.540 C 393.262 32.447,393.898 30.359,394.261 28.900 C 394.624 27.440,395.170 25.998,395.473 25.695 C 395.777 25.391,396.025 24.678,396.025 24.111 C 396.025 23.543,396.401 22.541,396.861 21.884 C 397.436 21.064,397.812 19.075,398.066 15.518 C 398.323 11.927,398.675 10.082,399.218 9.482 C 401.476 6.986,399.991 4.264,396.100 3.769 C 393.705 3.464,391.117 2.694,388.323 1.454 C 387.367 1.030,379.445 -0.074,378.398 0.071 C 378.118 0.110,375.574 0.319,372.746 0.536 " stroke="none" fill="#000000" fill-rule="evenodd"></path></g></svg>