<svg id="svg" version="1.1" xmlns="http://www.w3.org/2000/svg" xmlns:xlink="http://www.w3.org/1999/xlink" width="400" height="234.65703971119135" viewBox="0, 0, 400,234.65703971119135"><g id="svgg"><path id="path0" d="M269.440 0.553 C 269.084 1.481,267.599 2.782,262.351 6.767 C 259.563 8.883,257.654 10.591,257.532 11.078 C 257.421 11.521,257.102 12.073,256.824 12.304 C 256.545 12.535,256.318 13.029,256.318 13.403 C 256.318 13.776,255.993 14.688,255.596 15.429 C 255.199 16.170,254.874 17.144,254.874 17.594 C 254.874 18.044,254.549 18.736,254.152 19.134 C 253.755 19.531,253.430 20.113,253.430 20.427 C 253.430 21.699,250.779 25.586,246.021 31.289 C 245.330 32.117,244.765 32.875,244.765 32.975 C 244.765 33.196,242.113 35.726,240.556 36.989 C 238.768 38.441,236.627 39.021,232.650 39.130 C 226.882 39.289,226.233 39.896,222.196 48.917 C 221.449 50.588,220.522 54.732,220.138 58.123 C 219.947 59.810,219.580 61.435,219.323 61.733 C 219.065 62.031,218.672 63.140,218.450 64.197 C 218.228 65.255,217.882 66.428,217.680 66.804 C 217.479 67.180,217.236 68.495,217.140 69.727 C 217.043 70.984,216.729 72.228,216.425 72.564 C 216.128 72.893,215.884 73.483,215.884 73.875 C 215.884 75.131,211.664 79.783,210.525 79.783 C 210.318 79.783,209.937 80.086,209.678 80.456 C 209.418 80.826,208.475 81.483,207.581 81.916 C 206.688 82.349,204.421 83.509,202.545 84.493 C 200.668 85.477,198.812 86.282,198.421 86.282 C 198.030 86.282,197.454 86.492,197.140 86.748 C 196.355 87.391,194.559 87.962,191.155 88.650 C 189.567 88.971,187.545 89.382,186.663 89.565 C 185.780 89.747,178.308 89.861,170.056 89.818 C 155.032 89.740,153.616 89.833,151.625 91.027 C 151.327 91.205,150.493 91.638,149.771 91.989 C 148.391 92.660,143.321 97.663,143.321 98.354 C 143.321 98.575,142.996 99.035,142.599 99.375 C 142.202 99.715,141.877 100.300,141.877 100.674 C 141.877 101.049,141.644 101.549,141.359 101.786 C 141.074 102.022,140.731 102.733,140.597 103.364 C 140.463 103.996,140.154 104.756,139.911 105.054 C 139.668 105.352,139.260 106.124,139.005 106.769 C 138.749 107.414,138.405 107.942,138.240 107.942 C 138.074 107.942,137.834 108.500,137.707 109.181 C 137.579 109.862,137.246 110.507,136.968 110.613 C 136.690 110.720,136.462 111.034,136.462 111.310 C 136.462 111.586,135.859 112.444,135.121 113.217 C 130.248 118.321,128.184 121.026,127.398 123.340 C 127.139 124.104,126.716 124.986,126.460 125.299 C 126.203 125.613,125.993 126.137,125.993 126.464 C 125.993 128.065,122.126 131.769,120.454 131.769 C 120.087 131.769,119.355 132.071,118.828 132.440 C 116.254 134.242,98.995 134.514,95.126 132.814 C 94.221 132.416,93.312 131.844,91.698 130.660 C 89.794 129.262,87.283 128.907,77.978 128.720 C 67.390 128.507,63.261 128.242,60.357 127.589 C 59.103 127.307,57.479 127.070,56.747 127.064 C 56.014 127.057,54.765 126.737,53.971 126.354 C 53.177 125.970,52.208 125.651,51.817 125.644 C 50.975 125.629,48.063 124.593,47.292 124.033 C 46.995 123.817,46.101 123.339,45.307 122.972 C 43.584 122.174,43.470 122.112,40.295 120.239 C 37.630 118.666,33.912 118.193,32.016 119.185 C 30.981 119.727,28.890 121.742,28.885 122.202 C 28.875 123.069,26.739 126.460,24.982 128.397 C 20.956 132.834,19.876 133.935,19.552 133.935 C 19.367 133.935,18.973 134.307,18.675 134.762 C 16.387 138.253,10.567 142.599,8.179 142.599 C 6.436 142.599,6.205 143.200,7.496 144.380 C 8.444 145.245,8.613 145.703,8.847 148.045 C 8.994 149.518,9.275 151.128,9.472 151.625 C 9.668 152.121,9.857 155.289,9.891 158.664 C 9.926 162.040,10.106 165.045,10.292 165.343 C 10.477 165.641,10.661 166.047,10.699 166.245 C 10.737 166.444,11.008 167.267,11.301 168.075 C 11.595 168.882,12.030 170.507,12.268 171.685 C 12.506 172.863,12.961 174.233,13.277 174.729 C 13.594 175.226,13.835 175.713,13.812 175.812 C 13.789 175.912,14.018 176.267,14.321 176.602 C 14.624 176.937,14.774 177.370,14.654 177.564 C 14.534 177.759,14.612 178.378,14.827 178.941 C 15.990 181.977,15.204 187.814,13.547 188.444 C 12.638 188.790,9.747 191.554,9.747 192.077 C 9.747 192.287,8.864 192.849,7.784 193.327 C 5.202 194.469,0.429 200.447,0.298 202.703 C 0.071 206.614,0.870 209.081,3.040 211.172 C 3.751 211.856,4.332 212.594,4.332 212.812 C 4.332 213.842,11.000 219.131,12.302 219.133 C 12.615 219.133,13.264 219.559,13.746 220.079 C 14.828 221.249,17.131 222.744,17.850 222.744 C 18.145 222.744,18.988 223.272,19.723 223.917 L 21.059 225.090 25.241 225.103 C 29.681 225.116,31.572 225.733,34.001 227.958 C 34.461 228.379,35.501 228.920,36.311 229.160 C 37.122 229.399,38.552 230.003,39.489 230.502 C 40.426 231.000,41.347 231.408,41.534 231.408 C 41.722 231.408,42.891 231.879,44.133 232.454 C 48.270 234.371,49.502 234.471,68.773 234.457 C 86.073 234.443,88.510 234.309,90.794 233.241 C 91.191 233.055,92.897 232.453,94.585 231.902 C 96.273 231.352,97.702 230.788,97.761 230.650 C 97.821 230.513,98.877 230.032,100.108 229.583 C 101.339 229.133,102.603 228.548,102.917 228.282 C 103.230 228.016,103.636 227.797,103.819 227.796 C 104.128 227.795,106.444 226.676,108.123 225.717 C 109.752 224.787,114.458 222.744,114.972 222.744 C 115.275 222.744,115.523 222.587,115.523 222.397 C 115.523 222.206,116.166 221.876,116.952 221.665 C 117.738 221.453,118.479 221.122,118.598 220.929 C 118.718 220.736,119.200 220.578,119.671 220.578 C 120.141 220.578,120.748 220.355,121.020 220.084 C 121.292 219.812,121.912 219.469,122.400 219.322 C 123.312 219.046,126.046 217.826,130.573 215.674 C 132.001 214.996,133.400 214.440,133.684 214.440 C 133.967 214.440,134.587 214.156,135.062 213.809 C 136.332 212.880,137.477 212.274,137.965 212.274 C 139.184 212.274,147.292 205.481,147.292 204.459 C 147.292 204.141,148.073 202.964,149.726 200.790 C 150.075 200.331,150.727 199.611,151.173 199.191 C 151.620 198.770,151.986 198.275,151.986 198.090 C 151.986 197.905,152.635 196.977,153.430 196.029 C 154.224 195.080,154.874 194.143,154.874 193.947 C 154.874 193.751,155.113 193.391,155.406 193.148 C 156.150 192.531,157.761 189.026,157.764 188.019 C 157.765 187.560,158.089 186.697,158.484 186.101 C 158.878 185.505,159.202 184.787,159.203 184.505 C 159.205 184.223,159.490 183.678,159.838 183.294 C 160.402 182.672,160.489 181.393,160.657 171.353 C 160.820 161.613,160.928 159.954,161.469 158.953 C 161.813 158.317,162.094 157.573,162.094 157.299 C 162.094 157.024,163.654 155.189,165.560 153.219 C 167.466 151.250,169.456 149.078,169.982 148.392 C 170.508 147.707,171.546 146.489,172.288 145.685 C 173.030 144.881,173.639 144.080,173.642 143.905 C 173.650 143.317,178.348 138.990,180.431 137.652 C 181.564 136.924,183.628 135.581,185.018 134.668 C 186.408 133.755,188.764 132.418,190.253 131.697 C 195.987 128.922,202.385 125.918,207.455 123.620 C 208.081 123.337,208.751 123.105,208.945 123.105 C 209.139 123.105,209.494 122.869,209.733 122.581 C 209.972 122.293,210.926 121.946,211.853 121.810 C 212.780 121.674,213.935 121.414,214.420 121.233 C 214.905 121.052,216.692 120.827,218.391 120.733 C 220.090 120.640,222.942 120.326,224.729 120.037 C 228.395 119.444,236.212 118.746,241.877 118.505 C 243.962 118.417,245.830 118.216,246.029 118.059 C 246.606 117.603,250.060 116.968,251.958 116.968 C 252.916 116.968,254.391 116.724,255.235 116.426 C 256.079 116.128,257.439 115.882,258.258 115.879 C 259.077 115.876,260.803 115.622,262.094 115.314 C 265.042 114.610,271.403 114.583,273.021 115.268 C 275.203 116.191,277.892 116.968,278.906 116.968 C 279.462 116.968,280.577 117.277,281.384 117.654 C 282.191 118.032,283.745 118.442,284.838 118.565 C 285.930 118.689,288.123 118.938,289.711 119.119 C 297.718 120.034,312.658 119.296,314.440 117.899 C 314.738 117.666,315.957 117.104,317.148 116.650 C 321.008 115.181,322.153 114.662,325.202 113.004 C 326.852 112.106,328.806 111.047,329.544 110.650 C 331.270 109.721,335.729 106.071,335.735 105.582 C 335.744 104.873,339.171 101.852,340.253 101.600 C 340.848 101.461,341.579 101.149,341.877 100.907 C 342.867 100.102,344.864 99.278,345.824 99.278 C 346.344 99.278,347.109 99.041,347.522 98.752 C 347.935 98.463,349.555 97.887,351.122 97.473 C 352.689 97.059,354.660 96.403,355.501 96.014 C 356.343 95.625,357.174 95.307,357.347 95.307 C 357.520 95.307,358.737 94.819,360.050 94.224 C 361.364 93.628,362.646 93.140,362.898 93.139 C 363.151 93.137,363.817 92.896,364.380 92.603 C 367.885 90.775,391.039 90.548,394.404 92.309 C 395.288 92.772,398.730 93.118,399.249 92.797 C 400.142 92.246,399.634 79.806,398.687 79.020 C 398.413 78.793,398.089 77.985,397.968 77.226 C 397.846 76.467,397.442 75.569,397.068 75.231 C 396.695 74.894,396.390 74.439,396.390 74.222 C 396.390 73.668,394.208 71.955,390.997 69.989 C 388.998 68.764,388.183 68.040,387.953 67.281 C 387.781 66.712,387.363 65.642,387.024 64.904 C 386.589 63.956,386.383 62.421,386.322 59.669 C 386.224 55.300,386.254 55.368,384.365 55.125 C 383.609 55.027,382.703 54.687,382.351 54.369 C 382.000 54.051,381.441 53.791,381.109 53.791 C 380.777 53.791,380.505 53.624,380.505 53.421 C 380.505 53.217,380.111 52.901,379.628 52.717 C 378.770 52.391,376.499 49.567,375.461 47.537 C 374.942 46.522,370.735 42.960,370.055 42.960 C 369.858 42.960,369.146 42.651,368.472 42.272 C 367.798 41.894,366.940 41.433,366.566 41.248 C 366.191 41.063,365.397 40.651,364.801 40.333 C 361.617 38.632,356.372 36.165,355.505 35.961 C 354.959 35.832,354.513 35.567,354.513 35.372 C 354.513 35.177,354.330 35.018,354.107 35.018 C 353.517 35.018,349.300 33.104,349.157 32.771 C 349.091 32.616,348.404 32.389,347.630 32.265 C 346.856 32.141,346.038 31.816,345.811 31.543 C 345.584 31.270,345.135 31.046,344.811 31.045 C 344.488 31.043,343.807 30.825,343.297 30.559 C 342.788 30.293,341.894 29.957,341.312 29.811 C 340.729 29.666,339.525 29.066,338.635 28.478 C 337.746 27.890,336.649 27.316,336.199 27.203 C 335.748 27.090,335.379 26.850,335.379 26.670 C 335.379 26.490,334.810 26.071,334.116 25.740 C 333.421 25.408,332.852 24.960,332.852 24.743 C 332.852 24.366,332.221 23.725,330.407 22.259 C 329.585 21.595,325.059 20.443,324.537 20.765 C 324.028 21.080,316.441 20.177,314.982 19.628 C 314.188 19.329,312.570 18.583,311.386 17.970 C 310.203 17.357,308.578 16.781,307.776 16.690 C 306.974 16.599,305.857 16.288,305.294 15.999 C 304.234 15.455,301.358 14.984,295.981 14.475 C 294.106 14.297,292.528 13.944,292.020 13.588 C 291.555 13.263,290.764 12.995,290.263 12.994 C 289.761 12.993,288.885 12.749,288.316 12.453 C 287.747 12.156,287.138 11.913,286.962 11.913 C 286.417 11.913,283.755 8.883,283.755 8.264 C 283.755 7.473,282.383 5.776,281.744 5.776 C 281.461 5.776,280.600 5.208,279.831 4.513 C 278.689 3.481,278.142 3.247,276.852 3.238 C 275.250 3.226,271.730 1.747,270.366 0.513 C 269.730 -0.062,269.675 -0.060,269.440 0.553 " stroke="none" fill="#000000" fill-rule="evenodd"></path></g></svg>