<svg id="svg" version="1.1" xmlns="http://www.w3.org/2000/svg" xmlns:xlink="http://www.w3.org/1999/xlink" width="400" height="481.02893890675244" viewBox="0, 0, 400,481.02893890675244"><g id="svgg"><path id="path0" d="M172.521 2.249 C 171.822 3.553,171.498 8.067,171.800 12.278 C 173.212 31.975,170.863 49.086,165.980 54.662 C 164.741 56.077,163.329 58.103,162.842 59.164 C 161.111 62.938,158.581 66.900,156.278 69.445 C 154.993 70.864,154.392 72.026,154.942 72.026 C 155.492 72.026,155.361 72.749,154.650 73.633 C 149.054 80.599,145.696 90.174,144.831 101.628 C 144.334 108.217,142.849 117.709,141.531 122.721 C 140.213 127.732,138.772 136.721,138.327 142.695 C 137.882 148.669,136.888 154.317,136.117 155.246 C 135.197 156.354,135.076 159.029,135.764 163.033 C 137.023 170.365,137.331 210.957,136.133 211.699 C 135.669 211.986,134.894 215.093,134.412 218.603 C 133.330 226.468,128.999 233.177,115.959 247.193 C 102.356 261.812,71.087 293.248,70.148 293.248 C 69.369 293.248,62.467 299.272,57.252 304.502 C 55.666 306.093,53.759 307.395,53.014 307.395 C 52.270 307.395,51.468 307.956,51.233 308.641 C 50.997 309.326,46.429 314.390,41.083 319.895 C 32.933 328.286,26.170 336.610,21.593 343.883 C 18.606 348.631,10.036 368.816,7.051 378.135 C 5.125 384.148,2.988 390.156,2.302 391.486 C 1.616 392.816,1.081 405.226,1.111 419.082 C 1.169 445.294,1.056 444.608,7.342 456.913 C 8.336 458.859,8.777 460.450,8.323 460.450 C 7.869 460.450,9.498 463.199,11.943 466.559 C 14.387 469.920,17.402 474.660,18.643 477.094 C 21.253 482.216,24.437 480.044,24.437 473.142 C 24.437 471.197,24.999 469.258,25.686 468.833 C 26.373 468.409,27.314 465.201,27.778 461.706 C 28.242 458.210,29.401 454.703,30.354 453.912 C 31.307 453.122,32.457 450.499,32.910 448.084 C 33.363 445.669,34.395 443.268,35.202 442.747 C 36.010 442.227,38.284 439.637,40.255 436.991 C 44.456 431.355,51.596 424.452,53.234 424.443 C 53.864 424.440,55.119 423.424,56.023 422.186 C 57.533 420.121,62.246 419.883,113.400 419.293 C 162.189 418.730,169.613 418.383,172.990 416.509 C 177.325 414.105,184.592 407.268,187.464 402.894 C 188.509 401.302,190.165 400.000,191.145 400.000 C 192.124 400.000,192.926 399.297,192.926 398.438 C 192.926 397.578,194.043 395.697,195.407 394.257 C 202.455 386.823,204.502 384.339,204.502 383.221 C 204.502 382.546,204.966 381.994,205.534 381.994 C 206.102 381.994,209.660 377.353,213.441 371.681 C 220.730 360.746,223.374 359.055,229.525 361.393 C 233.462 362.890,235.309 361.650,235.350 357.481 C 235.361 356.378,236.220 354.352,237.258 352.979 C 238.297 351.606,239.165 349.138,239.187 347.496 C 239.228 344.544,244.418 334.636,248.205 330.279 C 262.622 313.697,269.367 309.452,279.972 310.284 C 289.375 311.023,299.678 319.817,299.678 327.106 C 299.678 327.826,300.439 329.329,301.369 330.445 C 302.298 331.562,303.812 335.568,304.734 339.348 C 306.696 347.400,312.835 353.894,320.715 356.255 C 326.153 357.885,325.866 358.073,339.770 343.730 C 341.998 341.431,344.576 339.550,345.499 339.550 C 346.422 339.550,347.730 338.537,348.407 337.299 C 349.084 336.061,351.690 333.023,354.199 330.547 C 357.397 327.391,358.773 324.876,358.802 322.137 C 358.824 319.987,360.000 315.958,361.415 313.183 C 362.830 310.408,363.991 307.247,363.996 306.159 C 364.000 305.071,365.154 302.444,366.559 300.322 C 367.965 298.199,369.119 295.297,369.123 293.872 C 369.128 292.446,370.201 289.263,371.507 286.798 C 372.813 284.332,374.289 280.654,374.786 278.623 C 375.283 276.592,376.529 274.091,377.555 273.065 C 378.582 272.038,379.421 270.081,379.421 268.714 C 379.421 267.347,380.579 264.069,381.994 261.429 C 383.408 258.789,384.566 255.900,384.566 255.008 C 384.566 254.116,385.846 249.767,387.412 245.343 C 391.243 234.513,391.680 187.940,388.029 179.586 C 386.262 175.543,385.852 170.446,385.852 152.500 C 385.852 128.424,386.286 126.735,392.928 124.967 C 396.760 123.946,396.790 123.867,397.623 112.452 C 398.084 106.134,398.854 97.856,399.335 94.057 C 400.192 87.286,400.119 87.075,395.628 83.373 C 393.108 81.295,391.179 78.949,391.343 78.158 C 391.506 77.367,388.746 74.825,385.209 72.510 C 381.672 70.194,377.943 67.563,376.922 66.664 C 375.901 65.765,374.367 64.927,373.512 64.802 C 372.657 64.676,369.740 63.067,367.031 61.226 C 364.321 59.384,361.460 57.878,360.672 57.878 C 359.885 57.878,358.214 56.743,356.959 55.357 C 355.704 53.970,354.279 52.957,353.792 53.106 C 353.305 53.254,349.178 51.518,344.620 49.246 C 340.063 46.974,334.148 44.774,331.476 44.358 C 328.803 43.941,326.917 43.114,327.284 42.519 C 328.110 41.183,322.419 37.270,316.399 35.034 C 306.301 31.285,292.461 27.041,290.278 27.026 C 288.998 27.017,288.291 26.460,288.706 25.788 C 289.121 25.116,288.287 23.938,286.853 23.170 C 285.418 22.403,284.227 22.229,284.205 22.784 C 284.184 23.340,283.613 22.848,282.938 21.691 C 281.593 19.389,270.970 16.416,255.949 14.138 C 250.643 13.333,244.566 12.183,242.444 11.581 C 240.322 10.979,233.087 10.156,226.367 9.752 C 219.646 9.348,212.990 8.807,211.576 8.549 C 205.518 7.445,192.161 5.941,190.778 6.207 C 189.950 6.366,187.056 5.378,184.347 4.010 C 176.273 -0.066,173.945 -0.412,172.521 2.249 " stroke="none" fill="#000000" fill-rule="evenodd"></path></g></svg>