<svg id="svg" version="1.1" xmlns="http://www.w3.org/2000/svg" xmlns:xlink="http://www.w3.org/1999/xlink" width="400" height="279.14614121510675" viewBox="0, 0, 400,279.14614121510675"><g id="svgg"><path id="path0" d="M354.680 0.682 C 349.179 0.919,345.951 1.353,344.899 1.996 C 341.808 3.885,340.429 5.622,340.032 8.127 C 339.810 9.527,339.173 11.176,338.616 11.792 C 338.059 12.407,337.601 13.627,337.598 14.502 C 337.585 19.513,327.439 27.149,318.896 28.579 C 317.457 28.819,315.684 29.358,314.955 29.776 C 314.225 30.194,313.333 30.562,312.972 30.593 C 309.857 30.865,303.835 31.674,301.149 32.183 C 290.806 34.141,253.241 34.125,247.619 32.160 C 246.716 31.844,244.351 31.399,242.365 31.171 C 240.378 30.943,237.865 30.360,236.782 29.876 C 235.698 29.392,233.481 28.800,231.856 28.561 C 224.627 27.499,218.195 25.059,212.641 21.274 C 208.827 18.674,204.269 14.818,204.269 14.191 C 204.269 13.062,194.801 4.596,193.518 4.577 C 192.748 4.565,191.544 4.122,190.843 3.592 C 189.150 2.311,181.651 2.323,177.997 3.612 C 176.461 4.154,174.429 4.600,173.481 4.602 C 172.533 4.604,170.870 5.094,169.787 5.690 C 168.165 6.582,165.139 6.825,152.709 7.060 C 135.731 7.380,135.788 7.362,134.902 12.598 C 134.607 14.342,133.580 15.898,131.215 18.181 C 126.019 23.199,125.833 23.345,122.774 24.807 C 120.178 26.047,118.759 26.521,115.561 27.214 C 110.923 28.218,110.151 28.710,105.153 33.840 C 102.229 36.842,99.836 39.793,99.836 40.399 C 99.836 41.005,99.245 42.252,98.522 43.171 C 97.771 44.125,97.209 45.835,97.209 47.163 C 97.209 48.441,96.783 49.956,96.263 50.531 C 95.743 51.106,95.015 53.449,94.647 55.739 C 94.278 58.028,93.604 60.350,93.150 60.897 C 91.761 62.571,91.985 77.032,93.424 78.625 C 94.052 79.320,94.759 80.904,94.994 82.145 C 95.230 83.386,95.696 84.750,96.030 85.176 C 99.250 89.290,95.431 97.675,89.787 98.881 C 88.631 99.128,87.359 99.592,86.960 99.912 C 86.562 100.232,83.473 100.689,80.095 100.929 C 76.718 101.169,73.202 101.758,72.281 102.238 C 71.099 102.855,67.608 103.113,60.394 103.116 C 54.285 103.118,49.909 103.391,49.506 103.795 C 49.135 104.166,45.307 104.759,41.000 105.113 C 36.693 105.467,32.578 105.941,31.856 106.166 C 31.133 106.392,24.469 106.759,17.047 106.983 C 5.530 107.330,3.284 107.565,1.722 108.589 L -0.108 109.789 0.110 117.674 C 0.293 124.265,0.517 125.698,1.478 126.399 C 2.110 126.861,2.627 127.868,2.627 128.638 C 2.627 129.408,3.218 130.407,3.941 130.859 C 4.663 131.310,5.255 131.998,5.255 132.388 C 5.255 132.777,5.920 133.720,6.732 134.483 C 7.545 135.246,8.539 136.259,8.941 136.736 C 12.270 140.683,26.698 152.381,28.237 152.381 C 28.601 152.381,28.900 152.684,28.900 153.054 C 28.900 153.424,29.640 154.008,30.544 154.352 C 37.231 156.895,45.320 162.891,45.320 165.305 C 45.320 165.806,45.764 166.385,46.305 166.593 C 46.847 166.801,47.291 167.485,47.291 168.113 C 47.291 168.741,47.882 169.789,48.604 170.443 C 49.327 171.097,49.918 172.163,49.918 172.811 C 49.918 173.460,50.295 174.227,50.755 174.516 C 51.885 175.224,55.172 181.752,55.172 183.286 C 55.172 183.961,55.806 185.104,56.580 185.825 C 57.554 186.733,58.089 188.205,58.318 190.612 C 58.500 192.524,59.014 194.680,59.460 195.402 C 59.906 196.125,60.438 198.254,60.643 200.135 C 60.847 202.015,61.443 204.232,61.966 205.061 C 62.489 205.890,63.125 208.637,63.379 211.166 C 63.633 213.695,64.118 216.103,64.458 216.519 C 64.798 216.934,65.372 220.038,65.733 223.415 C 66.094 226.793,66.648 230.343,66.965 231.303 C 67.282 232.264,67.883 235.958,68.300 239.513 C 68.718 243.068,69.325 246.568,69.650 247.291 C 69.976 248.013,70.324 254.516,70.425 261.741 C 70.525 268.966,70.847 275.246,71.139 275.698 C 71.969 276.981,93.154 276.842,95.656 275.538 C 96.690 274.998,98.276 274.547,99.179 274.536 C 103.890 274.478,112.003 270.351,116.612 265.667 C 120.836 261.374,128.386 252.845,128.667 252.050 C 128.810 251.645,129.771 250.604,130.802 249.737 C 131.833 248.869,132.677 247.860,132.677 247.495 C 132.677 246.194,138.315 241.184,141.686 239.489 C 148.091 236.269,181.571 237.340,188.377 240.982 C 189.123 241.381,190.379 241.708,191.169 241.708 C 194.533 241.708,201.703 247.528,204.704 252.695 C 205.705 254.419,206.903 256.220,207.367 256.697 C 207.831 257.175,208.210 257.951,208.210 258.423 C 208.210 258.895,208.606 259.609,209.089 260.010 C 209.573 260.411,210.323 261.926,210.758 263.375 C 211.192 264.824,211.799 266.010,212.106 266.010 C 212.414 266.010,212.864 266.799,213.106 267.764 C 213.348 268.729,214.119 270.247,214.819 271.137 C 215.519 272.027,216.092 273.609,216.092 274.653 C 216.092 276.053,216.506 276.709,217.670 277.151 C 218.538 277.481,219.431 278.047,219.654 278.408 C 220.343 279.522,253.381 278.617,256.028 277.412 C 257.222 276.869,259.439 276.473,260.955 276.532 C 262.471 276.592,264.547 276.613,265.568 276.580 L 267.425 276.519 265.404 274.498 C 263.175 272.270,263.098 271.804,263.347 262.069 C 263.502 256.017,263.572 255.760,265.661 253.530 C 266.846 252.266,268.047 250.345,268.329 249.261 C 268.611 248.177,268.954 246.847,269.090 246.305 C 269.226 245.764,269.636 238.418,270.001 229.982 C 270.681 214.274,270.479 211.845,268.215 208.557 C 267.725 207.844,267.323 206.301,267.323 205.129 C 267.323 203.045,265.172 198.073,263.942 197.312 C 263.601 197.102,263.387 195.524,263.465 193.807 C 263.779 186.931,270.019 184.601,286.295 185.284 C 287.156 185.320,288.486 185.054,289.250 184.693 C 290.015 184.332,293.300 183.755,296.552 183.411 C 299.858 183.061,304.055 182.126,306.076 181.289 C 308.062 180.466,310.785 179.654,312.126 179.485 C 313.467 179.316,314.907 178.764,315.326 178.259 C 315.746 177.753,316.874 177.340,317.835 177.340 C 319.012 177.340,320.752 176.272,323.173 174.063 C 328.423 169.275,329.005 168.801,329.640 168.801 C 329.957 168.801,330.569 168.377,330.999 167.858 C 331.430 167.340,332.651 166.725,333.713 166.491 C 335.776 166.038,336.946 164.499,336.946 162.238 C 336.946 161.470,337.225 161.014,337.566 161.225 C 337.907 161.436,338.933 160.332,339.847 158.773 C 340.761 157.214,342.373 155.299,343.430 154.517 C 345.373 153.081,349.425 147.604,349.425 146.415 C 349.425 145.473,353.398 141.702,355.585 140.569 C 356.620 140.033,357.597 139.253,357.757 138.835 C 357.918 138.418,358.572 138.213,359.212 138.380 C 360.641 138.754,364.416 135.696,365.257 133.482 C 365.707 132.299,366.219 131.964,367.192 132.219 C 368.133 132.465,368.838 132.059,369.629 130.814 C 370.241 129.852,371.044 128.853,371.413 128.595 C 371.783 128.338,372.111 127.894,372.142 127.610 C 372.258 126.553,373.301 124.431,374.244 123.331 C 374.780 122.707,375.299 121.525,375.396 120.704 C 375.700 118.152,376.824 115.886,378.928 113.582 C 380.041 112.363,380.952 110.689,380.952 109.861 C 380.952 109.034,381.224 107.843,381.556 107.216 C 384.069 102.472,385.060 99.893,385.019 98.202 C 384.993 97.123,385.380 95.789,385.878 95.238 C 386.377 94.687,386.759 93.348,386.729 92.262 C 386.698 91.177,387.116 89.407,387.659 88.330 C 388.202 87.252,389.011 83.120,389.456 79.146 C 389.902 75.172,390.516 70.739,390.821 69.294 C 391.125 67.849,391.556 62.381,391.778 57.143 C 392.316 44.456,394.471 31.958,396.551 29.462 C 397.296 28.567,397.995 25.083,398.205 21.211 C 398.229 20.775,398.643 20.267,399.124 20.082 C 400.477 19.562,400.154 16.429,398.372 12.808 C 397.484 11.002,396.748 8.728,396.736 7.756 C 396.725 6.784,396.420 5.806,396.059 5.583 C 395.698 5.360,395.402 4.325,395.402 3.284 C 395.402 2.243,395.077 1.190,394.680 0.945 C 393.780 0.389,365.757 0.205,354.680 0.682 " stroke="none" fill="#000000" fill-rule="evenodd"></path></g></svg>