<svg id="svg" version="1.1" xmlns="http://www.w3.org/2000/svg" xmlns:xlink="http://www.w3.org/1999/xlink" width="400" height="408.7824351297405" viewBox="0, 0, 400,408.7824351297405"><g id="svgg"><path id="path0" d="M390.468 0.752 C 389.836 1.151,386.284 1.731,382.575 2.040 C 378.866 2.349,375.072 3.005,374.143 3.498 C 369.617 5.899,364.675 9.992,360.401 14.878 C 357.809 17.841,355.060 20.916,354.291 21.710 C 353.523 22.504,352.894 23.457,352.894 23.828 C 352.894 24.199,352.181 25.148,351.310 25.937 C 350.347 26.808,349.521 28.913,349.204 31.303 C 348.917 33.466,348.229 35.688,347.676 36.242 C 347.122 36.796,346.411 40.095,346.096 43.574 C 345.781 47.054,345.038 50.454,344.445 51.131 C 343.852 51.809,343.127 54.503,342.835 57.119 C 342.542 59.736,341.830 62.423,341.252 63.092 C 340.674 63.760,339.954 66.721,339.652 69.672 C 339.350 72.622,338.620 75.436,338.031 75.926 C 337.441 76.415,336.722 78.597,336.433 80.776 C 336.144 82.954,335.479 85.165,334.955 85.689 C 334.431 86.214,333.762 87.597,333.470 88.764 C 332.670 91.950,327.357 97.012,322.719 99.007 C 318.012 101.032,302.039 101.161,300.068 99.190 C 299.526 98.647,297.585 98.204,295.756 98.204 C 293.640 98.204,291.693 97.623,290.401 96.607 C 289.284 95.729,287.863 95.010,287.242 95.010 C 285.350 95.010,278.643 92.509,278.643 91.803 C 278.643 91.439,277.295 90.708,275.649 90.177 C 274.002 89.647,272.295 88.950,271.856 88.629 C 271.417 88.307,269.983 87.787,268.669 87.472 C 265.912 86.810,266.386 87.194,255.674 76.950 C 251.165 72.637,246.944 68.811,246.293 68.447 C 245.642 68.083,245.110 67.276,245.110 66.655 C 245.110 66.034,244.391 65.141,243.513 64.671 C 242.635 64.201,241.916 63.099,241.916 62.222 C 241.916 61.346,241.402 60.431,240.774 60.190 C 240.146 59.949,239.267 58.703,238.820 57.421 C 238.373 56.139,237.450 55.090,236.768 55.090 C 236.087 55.090,235.529 54.564,235.529 53.920 C 235.529 52.735,234.874 51.879,229.150 45.583 C 225.462 41.526,222.318 42.327,223.268 47.080 C 223.580 48.638,223.338 49.413,222.432 49.760 C 221.731 50.029,221.158 51.103,221.158 52.147 C 221.158 53.190,220.439 54.694,219.561 55.489 C 218.683 56.284,217.964 57.362,217.964 57.886 C 217.964 58.409,217.246 59.666,216.367 60.679 C 215.489 61.691,214.770 62.943,214.770 63.460 C 214.770 63.978,213.872 64.882,212.774 65.469 C 211.677 66.057,210.778 66.810,210.778 67.143 C 210.778 67.476,208.823 68.673,206.433 69.804 C 204.044 70.934,201.873 72.208,201.609 72.635 C 201.346 73.061,199.725 73.788,198.007 74.251 C 196.289 74.713,193.827 75.981,192.536 77.067 C 191.245 78.153,189.790 79.042,189.303 79.042 C 188.816 79.042,187.077 79.760,185.438 80.639 C 183.799 81.517,181.627 82.236,180.611 82.236 C 179.595 82.236,177.793 82.711,176.607 83.292 C 175.421 83.873,171.631 84.445,168.184 84.563 C 164.529 84.689,160.703 85.325,159.003 86.091 C 156.404 87.261,149.861 87.433,98.706 87.675 L 41.323 87.945 39.388 89.881 C 38.323 90.945,37.136 91.816,36.749 91.816 C 33.805 91.816,33.156 96.601,32.742 121.357 C 32.351 144.746,32.264 145.834,30.539 148.890 C 29.551 150.640,28.743 152.847,28.743 153.795 C 28.743 154.743,28.250 155.707,27.648 155.938 C 27.045 156.169,26.303 157.353,25.998 158.569 C 25.692 159.786,24.748 161.756,23.899 162.949 C 23.050 164.141,22.355 166.005,22.355 167.091 C 22.355 168.177,21.816 169.513,21.158 170.060 C 20.499 170.607,19.960 171.675,19.960 172.434 C 19.960 173.193,19.062 175.503,17.964 177.568 C 16.866 179.633,15.968 181.948,15.968 182.714 C 15.968 184.053,15.291 185.128,11.377 190.007 C 10.389 191.239,9.581 192.965,9.581 193.842 C 9.581 194.720,9.042 195.645,8.383 195.898 C 7.725 196.150,7.186 196.859,7.186 197.472 C 7.186 198.085,6.516 199.444,5.699 200.491 C 4.881 201.538,3.940 203.293,3.608 204.391 C 3.276 205.489,2.418 207.054,1.702 207.870 C -0.224 210.062,-0.210 237.348,1.719 240.319 C 2.431 241.417,3.261 243.752,3.562 245.509 C 3.864 247.265,4.596 249.458,5.191 250.382 C 5.785 251.306,6.522 253.401,6.829 255.037 C 7.136 256.673,7.859 258.193,8.435 258.414 C 9.012 258.635,9.719 259.888,10.007 261.198 C 10.294 262.509,11.025 263.771,11.630 264.003 C 12.236 264.236,12.976 265.729,13.274 267.323 C 13.573 268.916,14.252 270.653,14.782 271.184 C 15.313 271.714,15.985 273.635,16.275 275.452 C 16.566 277.269,17.307 279.538,17.923 280.495 C 18.539 281.452,19.295 283.612,19.603 285.293 C 19.910 286.975,20.618 288.526,21.176 288.740 C 21.734 288.954,22.429 290.722,22.721 292.668 C 23.066 294.969,23.653 296.208,24.400 296.208 C 25.145 296.208,25.581 297.120,25.641 298.802 C 25.692 300.230,25.817 301.756,25.919 302.196 C 26.021 302.635,26.162 305.509,26.232 308.583 C 26.364 314.336,27.693 316.168,31.735 316.168 C 32.327 316.168,34.299 316.886,36.117 317.764 C 37.934 318.643,40.352 319.361,41.489 319.361 C 42.626 319.361,44.309 319.888,45.228 320.532 C 46.802 321.634,49.624 322.500,57.086 324.169 C 58.842 324.562,63.330 325.977,67.059 327.312 C 70.788 328.648,74.602 329.741,75.534 329.741 C 76.467 329.741,78.143 330.459,79.260 331.337 C 80.376 332.216,82.182 332.934,83.272 332.934 C 86.981 332.934,96.607 338.310,96.607 340.381 C 96.607 340.904,97.325 341.781,98.204 342.330 C 99.082 342.878,99.800 343.819,99.800 344.420 C 99.800 345.021,100.300 345.928,100.911 346.435 C 101.522 346.942,102.274 349.052,102.583 351.124 C 102.891 353.195,103.526 355.355,103.993 355.922 C 104.460 356.490,104.876 358.440,104.916 360.256 C 104.982 363.185,105.247 363.627,107.262 364.166 C 108.511 364.500,109.970 365.370,110.504 366.100 C 111.069 366.873,113.058 367.606,115.266 367.855 C 118.015 368.165,119.687 368.911,121.344 370.568 C 122.601 371.826,124.332 372.854,125.190 372.854 C 126.048 372.854,127.188 373.382,127.723 374.026 C 128.258 374.671,128.931 375.125,129.218 375.034 C 130.582 374.605,134.820 377.167,135.608 378.896 C 136.095 379.964,136.965 380.838,137.542 380.838 C 138.120 380.838,140.809 382.994,143.518 385.629 C 146.228 388.263,149.106 390.419,149.915 390.419 C 150.724 390.419,152.624 391.342,154.136 392.471 C 155.649 393.599,158.144 395.055,159.681 395.707 C 161.218 396.358,163.373 397.740,164.471 398.778 C 165.569 399.815,167.186 400.784,168.064 400.931 C 168.942 401.078,171.605 402.545,173.982 404.192 C 176.551 405.971,179.244 407.186,180.622 407.186 C 181.896 407.186,183.669 407.576,184.560 408.053 C 187.021 409.370,189.322 406.475,189.577 401.740 C 189.689 399.678,190.380 396.830,191.114 395.411 C 191.847 393.992,192.489 392.558,192.539 392.224 C 192.686 391.252,194.118 387.732,194.898 386.427 C 195.291 385.768,195.980 384.374,196.429 383.329 C 196.878 382.283,197.911 380.487,198.725 379.337 C 199.538 378.187,201.920 373.930,204.017 369.878 C 206.115 365.826,209.184 361.166,210.839 359.521 C 212.493 357.877,213.674 356.252,213.463 355.910 C 213.252 355.569,213.584 355.289,214.200 355.289 C 214.817 355.289,215.972 354.571,216.766 353.693 C 217.561 352.814,218.695 352.096,219.285 352.096 C 219.876 352.096,220.359 351.600,220.359 350.995 C 220.359 350.390,221.395 349.465,222.661 348.941 C 223.926 348.417,225.970 346.936,227.201 345.651 C 228.433 344.365,229.869 343.313,230.393 343.313 C 231.428 343.313,237.280 336.548,236.725 335.993 C 236.539 335.807,236.922 333.874,237.577 331.699 C 238.232 329.524,238.967 324.511,239.211 320.559 C 239.455 316.607,239.866 312.834,240.124 312.176 C 241.047 309.821,241.193 307.502,241.795 285.772 C 242.361 265.320,242.528 263.521,244.156 260.398 C 245.120 258.549,245.908 256.344,245.908 255.497 C 245.908 254.650,246.838 253.095,247.974 252.041 C 250.072 250.096,251.861 247.439,252.775 244.910 C 253.053 244.142,253.549 243.513,253.877 243.513 C 254.205 243.513,255.469 242.076,256.687 240.319 C 257.904 238.563,259.372 237.126,259.949 237.126 C 260.526 237.126,261.286 236.675,261.637 236.124 C 263.569 233.094,270.719 232.124,291.814 232.029 C 309.584 231.948,312.428 231.767,313.238 230.662 C 313.751 229.961,315.339 228.784,316.766 228.046 C 318.194 227.309,319.361 226.261,319.361 225.717 C 319.361 225.173,320.798 224.105,322.555 223.344 C 324.311 222.583,325.749 221.620,325.749 221.204 C 325.749 220.788,329.611 217.948,334.331 214.894 C 339.052 211.839,343.861 208.406,345.018 207.265 C 346.175 206.123,347.658 205.190,348.313 205.190 C 348.969 205.190,349.952 204.651,350.499 203.992 C 351.046 203.333,351.999 202.794,352.618 202.794 C 353.237 202.794,353.944 202.269,354.191 201.627 C 354.437 200.985,355.234 200.268,355.962 200.032 C 358.891 199.086,359.878 195.461,359.908 185.539 C 359.924 180.319,360.348 173.713,360.851 170.858 C 361.353 168.004,361.925 154.172,362.121 140.120 C 362.469 115.173,363.720 101.404,365.752 100.148 C 366.145 99.905,366.467 98.971,366.467 98.073 C 366.467 97.174,367.545 94.842,368.862 92.890 C 370.180 90.938,371.257 88.979,371.257 88.536 C 371.257 88.093,371.617 87.952,372.056 88.224 C 372.495 88.495,372.854 88.283,372.854 87.753 C 372.854 87.222,374.128 85.551,375.686 84.038 C 381.894 78.009,385.106 67.137,381.512 64.315 C 380.922 63.852,380.419 63.114,380.395 62.675 C 380.275 60.535,378.990 57.546,378.358 57.937 C 377.966 58.179,377.639 57.907,377.631 57.333 C 377.623 56.758,376.793 55.507,375.787 54.553 C 367.458 46.663,363.672 32.561,366.934 21.578 C 368.247 17.156,371.076 12.568,372.099 13.200 C 372.422 13.400,372.893 13.027,373.145 12.371 C 373.397 11.715,374.153 11.178,374.825 11.178 C 375.498 11.178,376.048 10.661,376.048 10.029 C 376.048 9.262,377.308 8.712,379.840 8.373 C 381.926 8.094,385.585 7.534,387.971 7.127 C 390.357 6.720,393.459 6.387,394.865 6.387 C 397.644 6.387,400.506 3.269,399.687 1.133 C 399.189 -0.163,392.359 -0.445,390.468 0.752 " stroke="none" fill="#000000" fill-rule="evenodd"></path></g></svg>