<svg id="svg" version="1.1" xmlns="http://www.w3.org/2000/svg" xmlns:xlink="http://www.w3.org/1999/xlink" width="400" height="217.45350500715307" viewBox="0, 0, 400,217.45350500715307"><g id="svgg"><path id="path0" d="M272.675 0.639 C 267.010 0.833,261.216 1.273,259.800 1.616 C 258.383 1.959,256.254 2.250,255.067 2.264 C 252.640 2.292,243.259 5.135,238.913 7.159 C 237.339 7.892,234.893 8.796,233.476 9.168 C 232.060 9.540,229.887 10.334,228.648 10.931 C 227.409 11.528,225.924 12.017,225.350 12.017 C 224.775 12.017,223.858 12.240,223.311 12.512 C 219.570 14.373,215.820 16.023,215.331 16.023 C 212.643 16.023,200.286 25.283,200.286 27.298 C 200.286 27.584,199.642 28.690,198.856 29.757 C 198.069 30.823,197.425 32.161,197.425 32.729 C 197.425 33.298,197.171 33.763,196.860 33.763 C 196.550 33.763,195.938 34.599,195.500 35.622 C 193.641 39.969,189.056 42.841,180.544 44.993 C 174.656 46.481,140.360 46.514,137.394 45.035 C 136.294 44.486,134.120 44.063,132.399 44.063 C 126.561 44.063,123.310 42.131,114.414 33.374 C 106.316 25.403,107.289 25.738,92.130 25.715 C 75.601 25.690,72.216 26.797,71.178 32.569 C 70.975 33.697,70.601 34.886,70.347 35.209 C 70.093 35.533,69.714 37.850,69.505 40.359 C 69.295 42.868,68.672 45.826,68.119 46.931 C 66.647 49.873,65.408 54.688,64.997 59.065 C 64.611 63.178,61.620 68.714,58.419 71.242 C 57.623 71.870,56.586 72.836,56.113 73.388 C 55.640 73.940,54.924 74.392,54.522 74.392 C 54.120 74.392,53.791 74.646,53.791 74.956 C 53.791 75.266,52.697 76.232,51.359 77.101 C 50.021 77.970,48.632 78.959,48.271 79.298 C 47.911 79.636,46.366 80.385,44.838 80.961 C 43.310 81.538,41.446 82.484,40.695 83.065 C 39.945 83.645,39.134 84.120,38.893 84.120 C 38.652 84.120,37.116 85.021,35.479 86.123 C 33.842 87.225,32.207 88.127,31.845 88.128 C 31.483 88.129,30.066 89.353,28.696 90.846 C 27.325 92.340,25.587 94.227,24.833 95.041 C 24.079 95.854,23.462 96.810,23.462 97.166 C 23.462 97.522,22.947 98.089,22.318 98.426 C 21.688 98.763,21.173 99.375,21.173 99.785 C 21.173 100.821,17.347 104.236,14.592 105.659 C 13.333 106.309,9.646 108.193,6.398 109.845 C -0.378 113.291,-0.489 113.439,1.111 116.950 C 1.765 118.387,2.257 119.764,2.203 120.010 C 2.021 120.836,3.399 123.605,3.992 123.605 C 4.314 123.605,4.578 123.947,4.578 124.364 C 4.578 124.781,5.222 125.727,6.009 126.466 C 6.795 127.206,7.439 128.143,7.439 128.549 C 7.439 128.955,7.935 129.552,8.540 129.876 C 9.145 130.201,10.334 131.883,11.182 133.616 C 12.030 135.349,12.888 136.767,13.089 136.767 C 13.678 136.767,14.801 140.898,15.448 145.438 C 16.599 153.519,17.243 156.514,17.953 157.082 C 18.347 157.396,18.839 158.108,19.048 158.664 C 20.000 161.201,29.433 161.311,34.269 158.842 C 35.092 158.422,36.667 157.903,37.768 157.689 C 40.828 157.096,46.201 154.679,50.072 152.156 C 56.933 147.682,60.030 145.873,64.226 143.891 C 66.031 143.038,67.801 141.988,68.159 141.556 C 68.517 141.125,69.190 140.773,69.655 140.773 C 70.119 140.773,71.311 140.424,72.303 139.999 C 79.721 136.816,87.910 136.008,92.012 138.054 C 98.142 141.112,100.045 144.407,101.297 154.134 C 101.575 156.289,102.192 158.647,102.668 159.374 C 103.144 160.101,103.708 162.393,103.920 164.468 C 104.133 166.543,104.525 168.240,104.792 168.240 C 105.059 168.240,105.649 169.129,106.103 170.214 C 106.912 172.152,112.801 178.541,113.777 178.541 C 114.050 178.541,114.868 179.056,115.594 179.685 C 116.319 180.315,117.466 180.830,118.142 180.830 C 118.818 180.830,119.692 181.152,120.086 181.545 C 120.625 182.084,125.216 182.278,138.655 182.333 L 156.509 182.405 160.607 184.524 C 163.760 186.153,164.871 187.061,165.423 188.457 C 165.817 189.455,166.503 190.699,166.946 191.222 C 167.486 191.858,167.889 194.514,168.166 199.263 C 168.595 206.612,169.382 208.992,172.350 211.900 C 173.032 212.568,173.285 213.385,173.072 214.232 C 172.419 216.832,173.813 217.173,184.783 217.102 C 201.291 216.996,205.735 214.720,210.916 203.720 C 211.435 202.618,212.051 201.588,212.285 201.431 C 212.518 201.273,213.033 200.114,213.429 198.856 C 213.824 197.597,214.465 196.052,214.853 195.422 C 215.240 194.793,215.738 193.132,215.958 191.731 C 216.179 190.330,216.654 188.829,217.015 188.394 C 217.405 187.924,217.811 184.092,218.018 178.924 C 218.310 171.643,218.569 169.810,219.626 167.556 C 220.320 166.079,220.887 164.619,220.887 164.312 C 220.887 164.006,221.249 163.026,221.691 162.135 C 223.646 158.195,224.893 155.174,224.893 154.378 C 224.893 153.904,225.392 152.882,226.002 152.106 C 226.612 151.331,227.279 150.027,227.484 149.209 C 227.689 148.391,228.188 147.595,228.592 147.440 C 228.996 147.285,229.504 145.979,229.720 144.538 C 229.936 143.096,230.329 141.917,230.593 141.917 C 230.857 141.917,231.396 140.565,231.790 138.913 C 233.061 133.590,237.874 127.951,242.657 126.180 C 244.060 125.661,245.626 125.015,246.138 124.746 C 246.650 124.476,248.067 124.082,249.286 123.870 C 252.818 123.255,259.640 121.442,260.842 120.799 C 261.448 120.474,263.199 119.939,264.734 119.608 C 266.269 119.278,268.040 118.786,268.670 118.516 C 270.121 117.894,275.493 116.383,278.112 115.861 C 279.213 115.641,280.372 115.261,280.687 115.017 C 281.505 114.381,288.281 112.607,290.987 112.320 C 292.246 112.186,294.098 111.704,295.103 111.249 C 297.049 110.367,300.144 109.651,306.152 108.692 C 308.197 108.365,310.386 107.863,311.016 107.575 C 311.645 107.288,314.456 106.523,317.262 105.875 C 320.068 105.228,323.188 104.188,324.196 103.565 C 325.204 102.942,326.423 102.432,326.904 102.432 C 327.386 102.432,329.344 101.656,331.257 100.707 C 333.169 99.758,335.320 98.724,336.036 98.409 C 336.753 98.095,338.112 97.330,339.056 96.710 C 340.000 96.089,341.352 95.327,342.060 95.016 C 342.768 94.704,343.348 94.212,343.348 93.922 C 343.348 93.633,344.381 92.884,345.645 92.259 C 347.485 91.349,350.787 87.779,350.787 86.701 C 350.787 86.484,353.679 81.582,356.223 77.486 C 356.853 76.473,358.116 74.396,359.031 72.872 C 360.896 69.765,368.167 60.520,370.451 58.352 C 371.270 57.574,371.945 56.617,371.950 56.223 C 371.955 55.830,372.201 55.508,372.495 55.508 C 372.790 55.508,374.914 53.708,377.216 51.507 C 379.518 49.307,381.622 47.504,381.892 47.501 C 382.161 47.499,383.357 46.724,384.549 45.780 C 385.742 44.835,386.982 44.063,387.306 44.063 C 387.630 44.063,388.624 43.484,389.515 42.775 C 391.692 41.045,393.513 40.057,394.527 40.057 C 394.988 40.057,395.571 39.710,395.823 39.285 C 396.074 38.861,397.050 38.151,397.990 37.707 C 399.884 36.814,400.463 35.357,399.317 34.366 C 397.880 33.125,391.692 29.343,390.467 28.957 C 389.787 28.743,388.918 28.192,388.537 27.732 C 388.155 27.272,387.415 26.896,386.892 26.896 C 386.093 26.896,381.058 24.038,379.113 22.481 C 377.483 21.175,375.100 19.948,369.385 17.471 C 365.923 15.970,363.003 14.513,362.897 14.232 C 362.791 13.952,361.375 13.067,359.750 12.266 C 355.237 10.043,350.819 7.606,349.865 6.814 C 349.394 6.423,347.155 5.909,344.890 5.672 C 339.042 5.059,331.573 4.051,327.897 3.377 C 326.166 3.060,321.203 2.585,316.868 2.322 C 312.532 2.059,308.284 1.564,307.426 1.222 C 305.527 0.465,286.877 0.152,272.675 0.639 " stroke="none" fill="#000000" fill-rule="evenodd"></path></g></svg>