<svg id="svg" version="1.1" xmlns="http://www.w3.org/2000/svg" xmlns:xlink="http://www.w3.org/1999/xlink" width="400" height="329.12280701754383" viewBox="0, 0, 400,329.12280701754383"><g id="svgg"><path id="path0" d="M156.158 0.829 C 155.979 1.338,155.732 2.544,155.610 3.509 C 155.488 4.474,154.877 6.053,154.253 7.018 C 153.628 7.982,152.906 10.089,152.647 11.699 C 152.388 13.310,151.726 14.800,151.176 15.011 C 150.626 15.222,150.175 16.056,150.175 16.864 C 150.175 18.704,146.739 26.134,145.561 26.842 C 145.079 27.132,144.475 28.607,144.220 30.121 C 143.964 31.634,143.349 33.028,142.854 33.218 C 142.358 33.408,141.752 34.820,141.507 36.354 C 141.261 37.889,140.585 39.328,140.004 39.551 C 139.423 39.773,138.946 40.676,138.945 41.557 C 138.943 42.437,138.351 44.127,137.629 45.311 C 136.907 46.496,136.078 48.233,135.788 49.171 C 135.233 50.967,135.093 51.151,130.509 56.100 C 127.796 59.029,126.580 59.957,123.158 61.712 C 118.247 64.231,104.747 73.397,100.231 77.280 C 98.042 79.162,95.989 80.703,95.669 80.705 C 95.349 80.707,94.140 81.495,92.982 82.457 C 90.855 84.223,82.373 88.537,79.242 89.445 C 78.308 89.716,76.281 90.501,74.737 91.190 C 73.193 91.879,70.667 92.845,69.123 93.338 C 67.579 93.830,64.737 94.814,62.807 95.526 C 60.877 96.237,56.667 97.439,53.451 98.196 C 50.236 98.953,47.236 99.867,46.785 100.228 C 46.334 100.588,44.228 101.214,42.105 101.618 C 36.599 102.666,32.152 103.783,30.526 104.526 C 29.754 104.879,28.175 105.313,27.018 105.492 C 23.181 106.083,16.513 107.538,15.088 108.096 C 11.667 109.434,10.603 109.710,6.043 110.447 C -0.026 111.428,-0.787 112.697,1.791 117.544 C 2.736 119.322,3.509 121.180,3.509 121.674 C 3.509 123.484,9.393 127.723,13.509 128.877 C 15.749 129.506,17.750 130.292,17.955 130.624 C 18.160 130.956,18.888 131.228,19.572 131.228 C 21.423 131.228,30.459 134.149,30.958 134.908 C 31.195 135.270,32.033 135.932,32.820 136.379 C 37.377 138.972,42.780 142.929,42.792 143.684 C 42.800 144.167,43.120 144.561,43.503 144.561 C 44.848 144.561,50.668 152.119,51.979 155.568 C 52.319 156.462,52.901 157.193,53.273 157.193 C 53.645 157.193,54.166 158.693,54.431 160.526 C 54.697 162.360,55.226 164.251,55.607 164.729 C 55.988 165.207,56.593 169.628,56.953 174.554 C 57.312 179.479,57.925 184.084,58.314 184.788 C 59.629 187.160,59.979 197.637,58.804 199.441 C 58.227 200.328,57.529 203.105,57.252 205.614 C 56.976 208.123,56.342 210.807,55.843 211.579 C 55.344 212.351,54.704 215.193,54.420 217.895 C 54.136 220.596,53.476 223.287,52.954 223.873 C 49.029 228.283,54.111 241.404,59.743 241.404 C 60.952 241.404,62.307 241.948,65.263 243.621 C 65.842 243.949,68.053 245.084,70.175 246.143 C 72.298 247.203,74.351 248.430,74.737 248.870 C 75.123 249.310,76.603 250.038,78.026 250.489 C 79.450 250.939,81.344 251.864,82.237 252.543 C 83.129 253.223,84.965 254.203,86.316 254.722 C 87.667 255.241,89.404 256.225,90.175 256.908 C 90.947 257.591,93.158 258.682,95.088 259.333 C 97.018 259.984,98.754 260.735,98.947 261.003 C 99.140 261.271,101.193 262.207,103.509 263.082 C 105.825 263.957,108.193 264.965,108.772 265.324 C 119.468 271.940,122.256 272.397,155.439 272.960 C 180.073 273.379,184.586 273.617,186.820 274.619 C 188.255 275.263,190.154 275.789,191.040 275.789 C 191.927 275.789,193.753 276.361,195.098 277.059 C 196.443 277.757,198.965 278.728,200.702 279.218 C 202.439 279.707,205.123 280.696,206.667 281.415 C 208.211 282.134,211.680 283.386,214.378 284.197 C 217.075 285.008,219.917 286.082,220.693 286.583 C 221.470 287.084,223.125 287.693,224.372 287.937 C 225.618 288.181,228.684 289.337,231.184 290.506 C 233.685 291.675,236.078 292.632,236.501 292.632 C 236.925 292.632,239.075 293.526,241.278 294.619 C 243.482 295.713,246.069 296.808,247.028 297.054 C 247.987 297.299,249.627 298.299,250.671 299.276 C 251.716 300.253,252.891 301.053,253.283 301.053 C 253.675 301.053,255.031 302.020,256.296 303.202 C 257.561 304.385,261.123 307.483,264.211 310.088 C 267.298 312.693,271.375 316.304,273.270 318.114 C 275.164 319.923,277.280 321.404,277.971 321.404 C 278.663 321.404,279.481 321.821,279.790 322.332 C 280.530 323.557,288.155 329.123,289.093 329.123 C 289.518 329.123,289.825 327.393,289.825 324.998 C 289.825 320.112,290.726 319.054,294.976 318.948 C 297.312 318.890,298.455 318.357,300.702 316.281 C 305.408 311.932,309.556 308.772,310.558 308.772 C 311.081 308.772,311.762 308.366,312.070 307.869 C 312.558 307.085,322.928 301.754,323.966 301.754 C 324.480 301.754,328.966 299.825,331.579 298.480 C 333.921 297.274,348.909 296.084,360.000 296.223 C 366.875 296.309,373.477 295.022,376.574 292.993 C 377.466 292.408,378.483 291.930,378.835 291.930 C 380.684 291.930,390.229 281.096,391.212 277.881 C 391.505 276.924,392.157 275.667,392.661 275.088 C 393.333 274.317,393.639 270.259,393.807 259.937 L 394.035 245.838 397.113 242.882 C 400.582 239.551,400.542 238.786,396.657 234.297 C 394.379 231.664,390.877 224.426,390.877 222.349 C 390.877 221.612,390.436 220.839,389.897 220.633 C 389.358 220.426,388.699 218.778,388.431 216.970 C 388.164 215.163,387.447 213.128,386.839 212.448 C 386.084 211.605,385.639 209.369,385.441 205.430 C 385.281 202.251,384.738 198.702,384.235 197.544 C 383.731 196.386,383.109 193.961,382.852 192.155 C 382.595 190.348,381.769 188.088,381.017 187.132 C 380.265 186.175,379.649 185.048,379.649 184.626 C 379.649 184.205,379.096 183.263,378.421 182.534 C 373.328 177.034,371.872 175.644,368.772 173.315 C 366.842 171.866,364.492 169.935,363.550 169.024 C 362.608 168.114,360.871 166.648,359.690 165.768 C 358.510 164.887,355.018 161.708,351.930 158.703 C 345.523 152.467,340.212 148.070,339.085 148.070 C 338.662 148.070,338.063 147.658,337.754 147.155 C 337.151 146.171,332.593 143.860,331.257 143.860 C 326.034 143.860,307.801 125.020,306.346 118.119 C 306.087 116.891,305.421 115.510,304.867 115.050 C 304.313 114.590,303.860 113.691,303.860 113.052 C 303.860 112.414,303.228 111.350,302.456 110.689 C 301.684 110.028,301.053 109.022,301.053 108.453 C 301.053 107.883,300.421 107.080,299.649 106.667 C 298.877 106.254,298.246 105.329,298.246 104.612 C 298.246 103.895,297.767 103.124,297.182 102.900 C 296.598 102.676,295.816 101.695,295.445 100.720 C 295.075 99.745,294.518 98.947,294.209 98.947 C 293.900 98.947,291.602 96.213,289.104 92.870 C 286.606 89.528,281.956 84.170,278.772 80.964 C 275.588 77.758,272.982 74.811,272.982 74.415 C 272.982 74.020,272.351 73.302,271.579 72.820 C 270.807 72.338,270.175 71.669,270.175 71.335 C 270.175 71.000,268.202 68.773,265.789 66.384 C 263.377 63.996,259.460 59.838,257.084 57.143 C 249.443 48.479,244.242 43.627,242.085 43.153 C 240.947 42.904,239.839 42.412,239.622 42.062 C 239.238 41.439,237.969 40.749,227.544 35.488 C 224.746 34.076,222.456 32.619,222.456 32.250 C 222.456 31.881,222.096 31.579,221.656 31.579 C 220.392 31.579,214.445 28.515,213.825 27.545 C 213.516 27.062,212.764 26.667,212.154 26.667 C 211.544 26.667,209.506 25.561,207.626 24.211 C 205.746 22.860,203.954 21.754,203.645 21.754 C 203.335 21.754,201.994 20.607,200.664 19.206 C 196.947 15.289,187.430 8.421,185.718 8.421 C 184.878 8.421,183.011 7.789,181.571 7.018 C 180.131 6.246,178.241 5.604,177.371 5.592 C 176.501 5.579,175.176 5.106,174.427 4.539 C 173.678 3.972,172.320 3.509,171.410 3.509 C 170.500 3.509,168.902 3.076,167.860 2.547 C 166.818 2.018,164.386 1.369,162.456 1.104 C 160.526 0.839,158.393 0.460,157.716 0.263 C 157.039 0.065,156.338 0.320,156.158 0.829 " stroke="none" fill="#000000" fill-rule="evenodd"></path></g></svg>