<svg id="svg" version="1.1" xmlns="http://www.w3.org/2000/svg" xmlns:xlink="http://www.w3.org/1999/xlink" width="400" height="486.23376623376623" viewBox="0, 0, 400,486.23376623376623"><g id="svgg"><path id="path0" d="M118.693 1.552 C 116.832 2.361,114.871 4.175,114.336 5.582 C 113.801 6.990,111.700 10.320,109.668 12.982 C 107.375 15.986,105.974 18.977,105.974 20.869 C 105.974 22.631,105.097 24.667,103.896 25.696 C 102.753 26.674,101.818 28.196,101.818 29.077 C 101.818 29.959,100.952 32.310,99.893 34.301 C 98.833 36.293,97.652 39.628,97.268 41.714 C 96.883 43.799,95.932 46.034,95.153 46.680 C 94.375 47.326,93.407 50.529,93.003 53.797 C 92.598 57.066,91.767 60.350,91.155 61.094 C 89.735 62.824,89.697 77.645,91.109 79.057 C 92.379 80.327,91.753 113.719,90.399 116.883 C 89.910 118.026,89.280 120.984,88.999 123.457 C 88.718 125.930,87.747 128.772,86.841 129.773 C 85.936 130.773,85.195 132.612,85.195 133.858 C 85.195 135.105,84.260 136.925,83.117 137.903 C 81.974 138.882,81.039 140.423,81.039 141.328 C 81.039 142.233,79.870 144.557,78.442 146.494 C 77.013 148.430,75.844 150.575,75.844 151.260 C 75.844 151.945,75.143 152.774,74.286 153.103 C 73.429 153.432,72.727 154.466,72.727 155.402 C 72.727 156.337,71.558 158.492,70.130 160.189 C 68.701 161.887,67.532 163.892,67.532 164.644 C 67.532 165.396,66.875 166.264,66.072 166.572 C 65.269 166.880,64.304 168.534,63.927 170.248 C 63.551 171.961,62.621 173.879,61.860 174.511 C 61.099 175.142,60.155 177.395,59.761 179.518 C 59.367 181.640,58.439 184.078,57.697 184.935 C 56.956 185.792,56.005 187.662,55.584 189.091 C 55.164 190.519,54.228 192.390,53.506 193.247 C 52.785 194.104,51.873 195.857,51.481 197.143 C 51.090 198.429,50.382 199.481,49.909 199.481 C 48.642 199.481,42.603 212.456,42.564 215.259 C 42.546 216.581,41.845 218.570,41.006 219.679 C 38.312 223.241,38.870 281.661,41.583 279.985 C 42.048 279.698,42.752 280.986,43.148 282.848 C 43.544 284.710,44.582 287.044,45.455 288.033 C 49.216 292.299,49.150 327.097,45.369 332.867 C 44.566 334.093,43.570 336.640,43.155 338.527 C 42.741 340.414,41.774 343.168,41.006 344.647 C 40.239 346.126,39.292 350.420,38.903 354.188 C 38.513 357.956,37.618 362.449,36.914 364.173 C 36.210 365.897,35.301 369.520,34.896 372.225 C 34.490 374.930,33.770 377.143,33.296 377.143 C 32.822 377.143,31.685 379.013,30.771 381.299 C 29.856 383.584,28.636 385.455,28.060 385.455 C 27.484 385.455,27.013 386.623,27.013 388.052 C 27.013 389.481,26.570 390.649,26.030 390.649 C 24.500 390.649,17.269 402.163,13.631 410.390 C 12.424 413.119,11.140 415.342,8.140 419.896 C 7.142 421.410,5.994 423.981,5.588 425.610 C 5.182 427.239,4.311 429.039,3.651 429.610 C 1.746 431.260,-0.436 441.538,0.847 442.821 C 2.416 444.391,42.171 443.306,46.234 441.583 C 47.948 440.856,50.286 439.886,51.429 439.427 C 58.033 436.777,91.429 436.838,91.429 439.500 C 91.429 439.918,92.822 440.935,94.524 441.759 C 98.053 443.468,107.013 451.565,107.013 453.044 C 107.013 453.584,107.714 454.026,108.571 454.026 C 109.429 454.026,110.130 454.416,110.130 454.894 C 110.130 456.616,119.905 465.629,124.061 467.738 C 126.399 468.925,129.427 470.767,130.789 471.831 C 132.152 472.895,134.022 473.769,134.945 473.773 C 135.868 473.776,137.823 474.405,139.290 475.171 C 141.682 476.419,144.228 477.229,149.870 478.539 C 154.077 479.515,155.630 479.775,161.558 480.488 C 164.987 480.901,168.325 481.676,168.976 482.210 C 174.862 487.037,253.554 486.811,261.299 481.945 C 261.870 481.586,266.045 480.953,270.577 480.540 C 275.109 480.126,280.485 479.055,282.525 478.160 C 284.565 477.265,288.338 475.608,290.909 474.478 C 299.365 470.761,304.980 463.913,305.796 456.321 C 305.998 454.440,306.706 452.359,307.368 451.697 C 308.030 451.035,308.571 450.047,308.571 449.501 C 308.571 448.955,309.856 446.827,311.425 444.773 C 312.994 442.719,314.175 440.724,314.049 440.340 C 313.625 439.048,322.696 435.325,326.302 435.310 C 328.264 435.301,331.895 434.589,334.370 433.727 C 338.028 432.453,344.532 432.190,369.130 432.318 C 401.185 432.486,401.485 432.439,399.136 427.690 C 397.644 424.674,396.094 415.285,395.947 408.384 C 395.882 405.282,395.208 402.009,394.452 401.112 C 390.373 396.277,387.853 386.441,389.549 381.980 C 390.162 380.366,390.310 378.501,389.878 377.835 C 389.445 377.169,389.066 374.519,389.036 371.948 C 389.006 369.377,388.197 363.766,387.239 359.481 C 384.960 349.279,384.280 343.400,383.994 331.429 C 383.834 324.679,383.227 320.573,382.074 318.442 C 380.688 315.878,380.416 312.175,380.539 297.581 C 380.692 279.486,377.958 261.990,373.408 251.948 C 372.631 250.234,371.499 246.535,370.891 243.729 C 370.284 240.923,369.468 238.118,369.078 237.496 C 368.070 235.884,367.635 233.792,367.414 229.484 C 367.307 227.404,365.998 223.920,364.485 221.692 C 362.980 219.476,360.682 215.091,359.377 211.948 C 358.072 208.805,355.824 204.364,354.381 202.078 C 352.938 199.792,351.741 197.688,351.721 197.403 C 351.701 197.117,350.634 195.408,349.349 193.606 C 348.064 191.803,347.013 189.670,347.013 188.865 C 347.013 188.060,345.668 186.113,344.023 184.537 C 342.098 182.693,340.842 180.244,340.495 177.663 C 339.792 172.420,335.234 166.454,331.612 166.036 C 330.083 165.859,328.831 165.154,328.831 164.469 C 328.831 163.784,325.681 160.268,321.831 156.657 C 315.568 150.782,314.759 149.566,314.149 145.114 C 313.604 141.137,312.788 139.619,310.088 137.560 C 307.922 135.908,306.474 133.730,306.055 131.493 C 305.695 129.573,304.502 126.861,303.404 125.465 C 302.256 124.007,301.639 122.040,301.952 120.843 C 302.541 118.591,297.190 112.126,293.658 110.823 C 292.519 110.403,291.970 109.493,292.314 108.596 C 292.634 107.762,292.503 106.837,292.023 106.540 C 291.543 106.243,290.152 103.876,288.931 101.280 C 286.328 95.741,278.699 87.273,276.312 87.273 C 275.399 87.273,272.816 85.417,270.572 83.148 C 268.329 80.879,265.208 78.485,263.636 77.827 C 262.065 77.169,260.779 76.266,260.779 75.821 C 260.779 74.539,253.954 70.850,249.229 69.578 C 246.859 68.939,244.163 68.048,243.239 67.596 C 242.315 67.144,238.604 65.309,234.994 63.517 C 231.384 61.726,227.109 60.260,225.495 60.260 C 223.845 60.260,222.298 59.578,221.962 58.701 C 221.596 57.748,220.021 57.143,217.903 57.143 C 215.999 57.143,213.997 56.726,213.455 56.216 C 212.912 55.706,208.494 54.278,203.636 53.042 C 198.779 51.807,192.234 50.099,189.091 49.248 C 185.948 48.396,181.593 47.243,179.413 46.686 C 177.233 46.129,174.311 44.927,172.919 44.016 C 171.528 43.104,170.390 42.735,170.390 43.196 C 170.390 43.657,169.703 43.126,168.864 42.017 C 168.025 40.908,167.324 40.382,167.306 40.850 C 167.288 41.317,165.987 40.794,164.416 39.688 C 162.844 38.581,160.443 37.329,159.080 36.905 C 157.717 36.481,154.678 35.034,152.327 33.689 C 149.976 32.344,144.312 29.345,139.740 27.025 C 130.723 22.448,126.753 17.662,126.753 11.367 C 126.753 9.650,126.092 6.662,125.283 4.727 C 124.475 2.792,124.085 0.937,124.417 0.604 C 125.523 -0.502,122.124 0.061,118.693 1.552 " stroke="none" fill="#000000" fill-rule="evenodd"></path></g></svg>