<svg id="svg" version="1.1" xmlns="http://www.w3.org/2000/svg" xmlns:xlink="http://www.w3.org/1999/xlink" width="400" height="366.4556962025316" viewBox="0, 0, 400,366.4556962025316"><g id="svgg"><path id="path0" d="M96.519 0.509 C 91.002 2.467,83.942 8.756,83.276 12.305 C 83.057 13.476,82.457 14.596,81.945 14.792 C 81.432 14.989,81.013 15.624,81.013 16.203 C 81.013 16.782,80.476 18.144,79.819 19.229 C 79.162 20.314,78.417 21.915,78.162 22.785 C 77.907 23.655,77.353 24.794,76.931 25.316 C 76.509 25.839,75.679 27.580,75.087 29.187 C 74.105 31.854,69.816 37.382,66.829 39.831 C 65.496 40.925,60.995 44.916,58.039 47.627 C 56.995 48.584,55.932 49.367,55.676 49.367 C 54.905 49.367,54.426 52.148,55.084 52.806 C 55.421 53.142,55.696 53.910,55.696 54.512 C 55.696 55.113,56.146 56.056,56.697 56.606 C 58.063 57.972,58.050 64.904,56.678 66.420 C 56.138 67.016,55.696 68.079,55.696 68.781 C 55.696 69.483,55.127 70.572,54.430 71.203 C 53.734 71.833,53.165 72.876,53.165 73.522 C 53.165 74.168,52.595 75.184,51.899 75.780 C 51.203 76.376,50.633 77.230,50.633 77.678 C 50.633 78.127,50.063 78.981,49.367 79.577 C 48.671 80.173,48.101 80.987,48.101 81.384 C 48.101 81.782,47.574 82.787,46.930 83.617 C 46.253 84.490,45.602 86.689,45.387 88.831 C 45.182 90.869,44.585 93.011,44.059 93.591 C 43.385 94.337,42.909 97.246,42.441 103.494 C 42.076 108.360,41.707 112.911,41.622 113.608 C 41.536 114.304,41.706 117.761,41.999 121.290 C 42.431 126.496,42.352 128.108,41.579 129.834 C 41.055 131.005,40.456 133.365,40.247 135.080 C 40.038 136.795,39.475 138.647,38.996 139.194 C 38.516 139.742,37.929 140.831,37.690 141.614 C 37.452 142.397,36.976 143.038,36.633 143.038 C 36.291 143.038,35.712 143.892,35.348 144.937 C 34.984 145.981,34.423 146.835,34.102 146.835 C 33.780 146.835,33.174 147.619,32.754 148.576 C 32.334 149.533,31.059 151.666,29.920 153.316 C 28.780 154.966,27.848 156.562,27.848 156.863 C 27.848 157.164,27.128 158.235,26.248 159.243 C 23.604 162.271,23.255 162.734,20.434 166.940 C 18.942 169.165,17.722 171.255,17.722 171.585 C 17.722 172.370,12.239 177.848,11.454 177.848 C 11.122 177.848,10.399 178.299,9.847 178.851 C 9.246 179.452,7.141 180.021,4.581 180.275 L 0.316 180.696 0.379 186.709 C 0.437 192.239,0.781 194.979,1.731 197.468 C 1.930 197.991,2.120 198.747,2.154 199.149 C 2.227 200.020,5.284 202.532,6.271 202.532 C 6.651 202.532,6.962 202.824,6.962 203.180 C 6.962 203.537,7.603 204.106,8.386 204.445 C 13.329 206.582,20.185 214.661,20.273 218.452 C 20.284 218.921,20.945 220.634,21.742 222.260 C 23.066 224.962,23.204 226.191,23.338 236.501 C 23.500 249.032,23.307 248.471,28.179 250.612 C 31.541 252.089,37.975 256.224,37.975 256.908 C 37.975 257.957,41.587 258.398,53.347 258.785 C 61.692 259.060,65.380 259.409,65.717 259.954 C 65.980 260.381,68.569 261.906,71.470 263.343 C 76.164 265.668,80.762 268.623,83.544 271.104 C 84.066 271.570,85.419 272.485,86.551 273.137 C 87.682 273.790,88.608 274.653,88.608 275.055 C 88.608 275.457,89.605 276.464,90.824 277.292 C 92.043 278.120,93.201 279.296,93.398 279.905 C 93.595 280.514,94.164 281.013,94.663 281.013 C 95.162 281.013,95.570 281.401,95.570 281.877 C 95.570 282.352,96.184 283.522,96.935 284.477 C 97.948 285.765,98.416 287.520,98.746 291.274 C 98.991 294.058,99.476 296.519,99.824 296.744 C 100.173 296.968,100.773 298.964,101.159 301.178 C 101.545 303.392,102.225 305.642,102.671 306.179 C 103.265 306.893,103.566 311.582,103.797 323.735 C 104.019 335.333,104.343 340.592,104.877 341.234 C 105.297 341.738,105.835 343.419,106.073 344.968 C 106.311 346.517,107.035 348.294,107.683 348.917 C 108.331 349.540,108.861 350.440,108.861 350.917 C 108.861 352.547,112.167 356.839,114.313 357.995 C 115.492 358.629,116.456 359.344,116.456 359.582 C 116.456 359.820,117.666 360.215,119.146 360.459 C 120.625 360.703,122.188 361.187,122.618 361.534 C 123.048 361.882,124.662 362.245,126.205 362.342 C 127.747 362.439,129.246 362.655,129.536 362.822 C 131.599 364.008,143.348 364.217,208.544 364.228 C 277.132 364.240,282.117 364.313,284.315 365.348 C 289.899 367.977,290.281 365.144,285.024 360.091 C 280.916 356.142,275.949 349.588,275.949 348.115 C 275.949 347.566,275.482 346.450,274.912 345.636 C 273.086 343.029,272.533 330.923,273.162 307.278 C 273.794 283.493,273.717 283.894,278.165 281.261 C 279.209 280.643,280.868 279.337,281.852 278.360 C 282.837 277.382,283.924 276.582,284.268 276.582 C 284.613 276.582,285.828 275.870,286.969 275.000 C 288.110 274.130,289.249 273.418,289.501 273.418 C 289.752 273.418,290.891 272.706,292.032 271.835 C 293.173 270.965,294.300 270.253,294.537 270.253 C 294.774 270.253,296.416 269.256,298.188 268.038 C 299.959 266.820,301.754 265.823,302.177 265.823 C 303.427 265.823,311.323 259.427,316.772 254.000 C 324.109 246.693,329.114 241.258,329.114 240.596 C 329.114 240.279,329.755 239.594,330.538 239.074 C 331.321 238.554,335.149 235.032,339.045 231.248 C 342.940 227.463,348.032 222.658,350.360 220.570 C 352.688 218.481,355.524 215.918,356.663 214.873 C 357.802 213.829,360.910 211.266,363.571 209.177 C 366.231 207.089,369.506 204.383,370.848 203.165 C 372.190 201.946,374.338 200.095,375.621 199.051 C 376.903 198.006,378.793 196.369,379.821 195.411 C 380.849 194.454,381.960 193.671,382.292 193.671 C 382.623 193.671,384.694 192.144,386.894 190.278 C 389.094 188.412,391.590 186.514,392.441 186.061 C 393.291 185.607,394.922 184.357,396.064 183.283 C 397.207 182.208,398.482 181.329,398.899 181.329 C 400.765 181.329,399.913 178.089,397.738 176.918 C 396.545 176.275,395.570 175.517,395.570 175.233 C 395.570 174.949,394.644 174.242,393.513 173.662 C 392.381 173.082,391.313 172.434,391.139 172.222 C 390.965 172.009,388.972 170.438,386.709 168.729 C 384.446 167.021,381.028 164.126,379.114 162.295 C 375.048 158.407,369.147 155.470,363.291 154.420 C 361.028 154.015,358.180 153.315,356.962 152.866 C 355.156 152.200,350.365 151.253,347.152 150.927 C 341.815 150.385,336.494 147.349,334.895 143.935 C 334.420 142.919,333.791 141.661,333.498 141.139 C 331.598 137.749,329.740 133.142,329.702 131.727 C 329.610 128.255,324.361 123.135,320.159 122.416 C 315.606 121.637,309.717 120.134,307.816 119.265 C 306.719 118.764,305.281 118.354,304.620 118.354 C 303.959 118.354,303.082 118.018,302.671 117.608 C 302.190 117.126,298.039 116.717,290.994 116.455 C 284.857 116.228,279.508 115.737,278.797 115.337 C 278.101 114.945,275.823 114.017,273.734 113.276 C 271.646 112.535,269.509 111.591,268.987 111.179 C 268.465 110.766,267.041 109.896,265.823 109.244 C 264.604 108.593,263.323 107.737,262.975 107.344 C 262.627 106.950,261.569 106.134,260.624 105.529 C 259.679 104.925,258.255 103.841,257.459 103.121 C 256.664 102.400,254.254 100.399,252.104 98.674 C 249.440 96.538,248.064 94.941,247.783 93.663 C 247.556 92.631,247.130 91.638,246.836 91.456 C 246.147 91.030,242.405 83.364,242.405 82.378 C 242.405 81.966,242.127 81.134,241.788 80.529 C 241.449 79.925,240.737 78.434,240.207 77.215 C 237.233 70.381,232.742 67.761,220.570 65.759 C 218.481 65.415,216.203 64.878,215.506 64.565 C 214.810 64.252,212.959 63.803,211.392 63.568 C 209.826 63.332,207.547 62.748,206.329 62.270 C 205.111 61.791,202.975 61.268,201.582 61.106 C 200.190 60.945,197.627 60.520,195.886 60.162 C 189.334 58.814,180.425 57.467,172.468 56.619 C 155.348 54.797,152.501 54.425,151.424 53.873 C 150.815 53.560,147.753 52.819,144.620 52.225 C 130.679 49.581,126.512 43.831,125.989 26.520 C 125.762 19.021,125.366 14.426,124.898 13.861 C 124.494 13.374,123.968 11.925,123.728 10.643 C 123.488 9.360,122.751 7.821,122.089 7.222 C 121.427 6.623,120.886 5.813,120.886 5.421 C 120.886 5.029,119.839 3.721,118.559 2.514 L 116.233 0.320 107.009 0.190 C 101.936 0.118,97.215 0.262,96.519 0.509 " stroke="none" fill="#000000" fill-rule="evenodd"></path></g></svg>