<svg id="svg" version="1.1" xmlns="http://www.w3.org/2000/svg" xmlns:xlink="http://www.w3.org/1999/xlink" width="400" height="328.2758620689655" viewBox="0, 0, 400,328.2758620689655"><g id="svgg"><path id="path0" d="M134.158 2.069 C 133.069 4.157,131.454 6.129,128.506 8.972 C 127.621 9.825,126.897 10.903,126.897 11.367 C 126.897 12.336,119.186 21.243,112.350 28.172 C 108.717 31.854,106.664 33.141,103.037 34.011 C 100.479 34.625,98.137 35.529,97.833 36.020 C 97.489 36.578,84.128 36.834,62.204 36.704 C 22.816 36.469,21.072 36.674,16.049 42.122 C 10.975 47.626,8.276 51.220,8.276 52.474 C 8.276 53.120,7.731 54.302,7.064 55.100 C 6.398 55.898,4.916 60.690,3.770 65.747 C 2.625 70.805,1.290 75.933,0.804 77.143 C 0.272 78.466,0.031 94.397,0.199 117.143 L 0.478 154.943 3.378 159.096 C 6.866 164.092,8.721 165.770,12.577 167.418 C 14.185 168.104,15.327 168.946,15.115 169.288 C 14.904 169.630,16.899 170.600,19.550 171.445 C 22.200 172.289,25.445 173.752,26.763 174.695 C 28.080 175.637,30.825 176.858,32.862 177.406 C 34.900 177.955,37.062 179.000,37.666 179.728 C 38.271 180.457,40.698 181.765,43.061 182.636 C 45.423 183.507,47.977 184.719,48.736 185.330 C 49.494 185.941,51.770 186.948,53.793 187.568 C 55.816 188.188,59.540 189.512,62.069 190.511 C 64.598 191.509,69.352 193.192,72.634 194.249 C 75.917 195.307,79.153 196.723,79.826 197.396 C 80.500 198.070,81.895 198.621,82.928 198.621 C 85.280 198.621,107.043 209.965,110.931 213.218 C 112.518 214.546,116.571 217.287,119.938 219.310 C 123.305 221.333,128.053 224.437,130.488 226.207 C 132.924 227.977,135.857 230.046,137.007 230.805 C 138.157 231.563,141.925 234.341,145.381 236.977 C 148.836 239.614,153.304 242.608,155.310 243.631 C 157.315 244.654,159.208 245.900,159.517 246.399 C 159.826 246.898,161.509 247.986,163.257 248.816 C 165.006 249.646,166.437 250.898,166.437 251.599 C 166.437 252.300,167.368 253.805,168.506 254.943 C 169.644 256.080,170.575 257.269,170.575 257.584 C 170.575 257.899,172.824 260.175,175.573 262.641 C 184.915 271.024,193.103 281.021,193.103 284.043 C 193.103 284.477,193.674 285.306,194.372 285.885 C 195.070 286.464,195.885 288.160,196.184 289.654 C 196.785 292.662,201.168 299.770,202.421 299.770 C 202.860 299.770,203.218 300.211,203.218 300.750 C 203.218 301.290,205.908 304.381,209.195 307.620 C 212.483 310.859,215.172 313.948,215.172 314.485 C 215.172 315.021,215.793 315.698,216.552 315.989 C 217.310 316.280,217.931 317.251,217.931 318.147 C 217.931 319.042,218.514 320.258,219.226 320.849 C 219.938 321.440,221.214 323.385,222.062 325.172 C 223.831 328.901,226.063 327.927,228.646 322.299 C 229.931 319.500,230.560 318.394,234.143 312.644 C 235.246 310.874,236.428 308.077,236.770 306.429 C 237.112 304.781,237.771 303.667,238.236 303.954 C 239.402 304.675,239.279 277.271,238.095 272.644 C 236.254 265.449,235.872 240.581,237.577 238.876 C 238.404 238.049,239.080 236.681,239.080 235.837 C 239.080 233.934,247.111 226.213,249.112 226.191 C 249.916 226.182,251.524 225.174,252.685 223.950 C 253.845 222.726,256.328 221.228,258.202 220.620 C 260.076 220.012,262.644 218.831,263.908 217.996 C 267.533 215.602,291.657 204.138,293.072 204.138 C 293.496 204.138,295.202 202.897,296.863 201.379 C 298.524 199.862,300.272 198.621,300.746 198.621 C 301.221 198.621,301.609 198.228,301.609 197.749 C 301.609 196.951,303.304 194.816,307.854 189.885 C 311.143 186.319,312.621 183.044,313.213 178.008 C 313.542 175.209,314.124 173.111,314.506 173.348 C 314.888 173.584,315.923 172.255,316.806 170.394 C 317.689 168.533,318.762 166.571,319.192 166.034 C 319.621 165.497,321.013 163.756,322.285 162.166 C 323.557 160.576,324.598 158.892,324.598 158.424 C 324.598 157.956,325.589 156.711,326.801 155.657 C 328.013 154.604,329.358 153.166,329.789 152.462 C 331.942 148.955,346.836 143.448,354.171 143.448 C 357.314 143.448,360.464 142.895,361.642 142.136 C 362.762 141.414,366.782 140.417,370.575 139.920 C 379.051 138.809,385.446 137.128,386.667 135.688 C 387.172 135.091,389.081 134.007,390.909 133.279 C 398.442 130.275,398.898 128.821,399.170 106.917 C 399.429 86.037,399.286 85.310,394.707 84.161 C 393.354 83.821,390.578 82.793,388.538 81.876 C 386.497 80.959,383.488 79.923,381.850 79.574 C 380.212 79.225,378.636 78.557,378.347 78.090 C 378.059 77.623,377.119 77.241,376.259 77.241 C 375.399 77.241,374.210 76.464,373.617 75.514 C 373.024 74.565,370.615 72.856,368.264 71.718 C 365.913 70.580,363.786 69.119,363.538 68.471 C 363.289 67.823,362.119 67.050,360.938 66.754 C 359.758 66.457,358.183 65.981,357.440 65.696 C 356.546 65.353,355.899 65.935,355.528 67.414 C 355.219 68.644,352.860 71.876,350.287 74.595 C 347.713 77.315,345.007 80.678,344.274 82.069 C 343.541 83.460,342.538 84.598,342.045 84.598 C 341.553 84.598,341.149 85.070,341.149 85.648 C 341.149 86.226,339.287 88.878,337.011 91.542 C 334.736 94.206,332.856 96.733,332.834 97.158 C 332.757 98.687,323.800 104.828,321.648 104.828 C 320.438 104.828,319.055 105.172,318.575 105.592 C 315.706 108.103,308.746 108.539,271.104 108.567 C 223.639 108.603,222.035 108.294,209.812 96.782 C 206.993 94.126,204.356 91.954,203.952 91.954 C 203.549 91.954,203.218 91.357,203.218 90.627 C 203.218 89.897,202.474 88.759,201.565 88.098 C 200.656 87.437,198.532 84.747,196.846 82.121 C 195.160 79.494,193.214 77.128,192.522 76.862 C 191.830 76.597,191.264 75.554,191.264 74.544 C 191.264 73.534,190.437 72.265,189.425 71.724 C 188.414 71.183,187.586 70.090,187.586 69.296 C 187.586 68.502,186.569 66.643,185.327 65.167 C 181.829 61.010,177.003 57.533,163.329 49.319 C 161.758 48.376,159.301 46.617,157.867 45.411 C 156.434 44.205,154.845 43.218,154.337 43.218 C 152.482 43.218,139.770 31.951,139.770 30.306 C 139.770 29.857,138.943 29.047,137.931 28.506 C 136.920 27.964,136.092 26.759,136.092 25.827 C 136.092 24.896,135.471 23.618,134.713 22.989 C 132.921 21.502,132.881 13.537,134.648 10.257 C 136.536 6.752,137.993 1.764,137.406 0.814 C 136.547 -0.576,135.283 -0.088,134.158 2.069 " stroke="none" fill="#000000" fill-rule="evenodd"></path></g></svg>