<svg id="svg" version="1.1" xmlns="http://www.w3.org/2000/svg" xmlns:xlink="http://www.w3.org/1999/xlink" width="400" height="280.1801801801802" viewBox="0, 0, 400,280.1801801801802"><g id="svgg"><path id="path0" d="M231.002 0.875 C 229.967 1.293,226.724 1.926,223.795 2.280 C 220.865 2.635,218.008 3.292,217.444 3.740 C 216.881 4.189,213.638 5.133,210.237 5.838 C 201.700 7.609,196.255 9.061,194.244 10.102 C 193.309 10.586,190.590 11.562,188.202 12.271 C 185.815 12.980,183.613 13.961,183.310 14.451 C 183.008 14.942,181.436 15.896,179.818 16.572 C 177.089 17.712,171.693 21.509,166.903 25.661 C 165.794 26.623,163.825 29.654,162.528 32.398 C 155.390 47.497,155.821 46.921,145.270 55.451 C 143.660 56.753,142.342 58.184,142.342 58.631 C 142.342 60.087,136.683 64.895,134.303 65.462 C 133.026 65.766,131.577 66.311,131.081 66.673 C 130.586 67.036,128.559 67.840,126.577 68.460 C 124.595 69.080,122.588 69.943,122.117 70.379 C 121.646 70.815,120.544 71.171,119.667 71.171 C 118.791 71.171,116.349 72.070,114.242 73.168 C 100.970 80.086,89.044 75.596,74.018 58.023 L 71.010 54.505 59.663 54.202 C 40.508 53.692,26.284 59.113,23.123 68.129 C 22.710 69.307,22.032 70.270,21.616 70.270 C 21.201 70.270,20.404 71.653,19.846 73.344 C 19.288 75.034,18.243 76.643,17.524 76.919 C 16.805 77.195,16.216 78.248,16.216 79.260 C 16.216 80.271,15.405 81.793,14.414 82.641 C 13.423 83.490,12.613 84.640,12.613 85.198 C 12.613 85.755,11.810 87.136,10.830 88.266 C 9.849 89.397,8.796 91.660,8.489 93.297 C 8.182 94.933,7.420 96.468,6.796 96.707 C 6.172 96.946,5.396 98.468,5.072 100.089 C 4.748 101.709,3.953 103.670,3.304 104.445 C 0.751 107.500,0.064 112.342,1.904 114.317 C 2.839 115.320,3.604 116.534,3.604 117.014 C 3.604 117.494,4.617 118.684,5.856 119.659 C 7.095 120.633,8.108 122.032,8.108 122.767 C 8.108 123.502,8.716 124.608,9.459 125.225 C 10.203 125.842,10.811 126.741,10.811 127.223 C 10.811 127.706,11.723 129.368,12.838 130.917 C 13.953 132.467,15.302 135.165,15.836 136.912 C 16.370 138.660,17.282 139.989,17.863 139.865 C 18.444 139.741,18.919 140.360,18.919 141.241 C 18.919 142.122,19.477 143.642,20.159 144.619 C 20.841 145.597,21.916 148.829,22.548 151.802 C 23.181 154.775,24.321 157.713,25.082 158.331 C 25.865 158.968,26.603 161.311,26.782 163.737 C 26.957 166.091,27.510 169.234,28.011 170.721 C 28.512 172.207,29.275 178.650,29.706 185.039 C 30.138 191.427,30.856 196.900,31.303 197.201 C 33.096 198.408,34.256 206.542,34.465 219.369 C 34.599 227.620,35.036 232.888,35.586 232.897 C 36.081 232.904,37.013 233.244,37.656 233.652 C 38.406 234.128,39.592 233.627,40.966 232.252 C 42.639 230.579,45.471 229.656,53.914 228.029 C 59.857 226.884,65.508 225.395,66.472 224.720 C 67.436 224.044,69.394 223.279,70.824 223.018 C 72.254 222.758,75.418 221.526,77.855 220.281 C 80.293 219.036,82.948 218.018,83.756 218.018 C 84.564 218.018,85.708 217.536,86.297 216.946 C 87.951 215.292,89.878 215.024,98.885 215.193 C 104.674 215.302,108.002 214.951,109.752 214.046 C 111.274 213.258,116.640 212.486,123.281 212.097 C 129.335 211.743,134.445 211.198,134.638 210.886 C 134.831 210.574,138.772 210.614,143.395 210.974 C 148.019 211.334,155.653 211.901,160.360 212.233 C 165.068 212.565,169.357 213.185,169.893 213.610 C 171.376 214.786,185.288 215.384,187.918 214.384 C 189.425 213.811,192.181 213.809,195.794 214.378 C 198.851 214.859,202.973 215.351,204.955 215.471 C 206.937 215.590,209.572 216.210,210.811 216.848 C 212.050 217.485,213.813 218.009,214.729 218.012 C 215.645 218.016,217.672 218.589,219.233 219.286 C 223.383 221.139,231.337 223.241,236.396 223.821 C 238.823 224.099,241.298 224.732,241.895 225.228 C 242.492 225.723,245.259 226.181,248.045 226.245 C 250.830 226.310,254.234 226.974,255.609 227.721 C 256.983 228.469,261.554 230.869,265.766 233.055 C 269.977 235.241,274.437 237.578,275.676 238.248 C 276.914 238.918,279.144 239.995,280.631 240.640 C 282.117 241.286,284.043 242.401,284.910 243.119 C 285.777 243.836,286.486 244.164,286.486 243.846 C 286.486 243.529,288.472 244.052,290.900 245.009 C 293.327 245.966,296.064 246.739,296.981 246.727 C 299.778 246.690,306.664 248.826,308.300 250.238 C 309.148 250.971,310.436 251.342,311.162 251.064 C 311.887 250.785,312.966 251.142,313.558 251.855 C 314.150 252.569,315.295 253.163,316.101 253.175 C 318.562 253.212,327.233 256.390,331.705 258.894 C 334.030 260.196,336.518 261.261,337.234 261.261 C 337.951 261.261,340.609 262.687,343.142 264.429 C 345.675 266.172,347.748 267.325,347.748 266.992 C 347.748 266.660,348.457 267.012,349.324 267.775 C 351.218 269.442,358.458 272.973,359.983 272.973 C 360.580 272.973,361.294 273.560,361.569 274.277 C 362.115 275.701,366.476 278.191,370.390 279.314 C 373.148 280.105,381.675 275.564,380.624 273.864 C 380.322 273.374,380.630 272.973,381.310 272.973 C 381.990 272.973,383.736 271.721,385.192 270.190 C 388.390 266.825,392.227 264.704,393.932 265.358 C 394.621 265.623,396.180 265.461,397.396 264.999 L 399.607 264.158 399.838 211.133 C 400.088 153.779,399.851 150.023,395.708 145.696 C 388.103 137.753,375.810 135.846,336.036 136.438 C 288.908 137.139,287.218 137.128,286.203 136.113 C 285.665 135.575,283.359 135.135,281.078 135.135 C 274.321 135.135,264.865 125.745,264.865 119.035 C 264.865 117.753,259.324 109.009,258.512 109.009 C 258.139 109.009,257.410 107.793,256.892 106.306 C 256.374 104.820,255.523 103.604,255.002 103.604 C 254.481 103.604,254.054 102.953,254.054 102.157 C 254.054 101.361,252.230 97.466,250.000 93.501 C 247.770 89.536,245.946 85.807,245.946 85.215 C 245.946 82.591,234.565 74.775,230.744 74.775 C 229.394 74.775,219.648 68.070,217.268 65.505 C 214.067 62.054,215.684 44.663,219.840 37.838 C 220.594 36.599,221.710 34.775,222.320 33.784 C 222.929 32.793,223.784 31.170,224.220 30.177 C 225.508 27.241,242.032 11.723,243.878 11.716 C 245.605 11.709,255.205 2.034,254.545 0.966 C 253.831 -0.190,233.825 -0.267,231.002 0.875 " stroke="none" fill="#000000" fill-rule="evenodd"></path></g></svg>