<svg id="svg" version="1.1" xmlns="http://www.w3.org/2000/svg" xmlns:xlink="http://www.w3.org/1999/xlink" width="400" height="819.8581560283689" viewBox="0, 0, 400,819.8581560283689"><g id="svgg"><path id="path0" d="M278.723 1.418 C 278.241 2.199,276.120 2.837,274.009 2.837 C 271.898 2.837,267.789 4.113,264.878 5.674 C 261.967 7.234,258.641 8.511,257.488 8.511 C 256.334 8.511,251.225 10.759,246.135 13.508 C 241.044 16.257,236.879 18.072,236.879 17.543 C 236.879 17.014,235.762 17.560,234.397 18.756 C 233.032 19.952,229.025 22.447,225.493 24.299 C 214.815 29.899,207.610 36.966,206.246 43.177 C 205.647 45.904,201.335 51.454,194.494 58.306 C 182.399 70.418,177.305 76.474,177.305 78.740 C 177.305 80.625,165.366 93.318,159.574 97.590 C 157.234 99.317,150.751 104.236,145.167 108.521 C 139.583 112.806,133.787 116.312,132.286 116.312 C 127.792 116.312,125.586 122.101,127.775 128.153 C 129.167 132.003,129.225 134.017,128.014 136.474 C 127.135 138.257,125.415 143.227,124.191 147.518 C 121.564 156.728,119.893 159.118,114.184 161.833 C 111.718 163.006,109.742 165.164,109.485 166.967 C 109.240 168.679,107.863 170.452,106.424 170.909 C 104.985 171.366,101.036 174.747,97.649 178.423 C 94.261 182.099,90.734 185.114,89.811 185.124 C 87.186 185.152,79.433 191.364,79.433 193.440 C 79.433 194.466,78.156 196.460,76.596 197.872 C 75.035 199.284,73.759 201.173,73.759 202.069 C 73.759 202.966,71.476 205.898,68.686 208.587 C 65.896 211.275,62.078 216.667,60.201 220.567 C 58.325 224.468,52.949 231.719,48.253 236.680 C 43.558 241.641,39.716 246.588,39.716 247.673 C 39.716 248.758,38.934 249.486,37.977 249.291 C 37.020 249.096,36.027 250.306,35.770 251.980 C 35.513 253.653,34.062 256.146,32.545 257.519 C 31.028 258.891,29.787 261.070,29.787 262.360 C 29.787 263.650,28.901 265.918,27.817 267.400 C 26.734 268.882,26.155 270.896,26.531 271.876 C 26.907 272.856,25.836 275.596,24.149 277.964 C 22.463 280.332,21.507 282.270,22.024 282.270 C 22.541 282.270,21.379 284.982,19.442 288.298 C 17.338 291.898,14.674 300.599,12.830 309.897 C 11.132 318.460,9.012 326.346,8.121 327.420 C 6.257 329.666,4.595 340.153,3.361 357.447 C 2.888 364.078,1.972 370.166,1.326 370.975 C 0.009 372.627,0.575 445.826,2.067 466.667 C 4.649 502.751,10.058 534.945,14.818 542.553 C 15.795 544.113,17.066 547.943,17.643 551.064 C 18.221 554.184,19.285 557.453,20.007 558.328 C 21.537 560.180,26.221 578.032,27.549 587.066 C 28.051 590.485,30.908 597.506,33.898 602.669 C 36.887 607.832,40.484 614.610,41.890 617.730 C 43.297 620.851,45.265 624.376,46.265 625.564 C 50.130 630.156,59.390 649.512,61.756 657.944 C 63.122 662.811,65.414 667.616,66.851 668.622 C 70.184 670.956,73.393 680.008,73.495 687.357 C 73.603 695.192,73.986 696.482,77.793 701.854 C 80.167 705.202,80.857 707.586,80.204 710.186 C 79.060 714.745,84.695 723.804,90.563 726.838 C 94.817 729.038,99.291 734.745,99.291 737.971 C 99.291 741.016,108.628 750.355,111.674 750.355 C 114.404 750.355,120.196 755.446,119.507 757.241 C 119.129 758.228,124.509 761.262,134.919 765.929 C 138.522 767.544,142.558 770.069,143.889 771.539 C 145.219 773.010,148.016 774.639,150.104 775.160 C 152.192 775.681,155.045 777.139,156.443 778.399 C 159.301 780.975,169.837 785.176,174.767 785.707 C 175.322 785.767,176.918 787.007,178.314 788.464 C 179.709 789.921,183.404 791.906,186.525 792.875 C 189.645 793.845,194.275 795.824,196.812 797.273 C 199.349 798.722,202.386 799.540,203.560 799.089 C 204.735 798.638,207.264 799.297,209.181 800.553 C 211.098 801.809,213.395 802.837,214.285 802.837 C 215.175 802.837,218.434 804.841,221.527 807.291 C 224.620 809.740,228.223 811.856,229.533 811.993 C 230.843 812.130,235.426 813.945,239.716 816.026 L 247.518 819.811 248.579 812.388 C 252.025 788.288,247.182 720.341,241.075 707.092 C 238.180 700.812,236.946 690.561,236.893 672.340 C 236.855 659.366,236.178 651.362,234.793 647.518 C 233.668 644.397,232.721 639.803,232.686 637.309 C 232.652 634.815,231.028 629.773,229.078 626.105 C 227.128 622.437,225.532 618.672,225.532 617.739 C 225.532 616.806,224.255 614.887,222.695 613.475 C 221.135 612.063,219.858 609.710,219.858 608.246 C 219.858 606.782,218.976 605.246,217.898 604.832 C 216.820 604.419,215.515 601.438,214.999 598.210 C 214.482 594.981,213.290 591.413,212.349 590.280 C 209.529 586.887,209.086 532.048,211.830 526.008 C 213.012 523.406,214.405 517.926,214.924 513.830 C 215.444 509.734,216.480 506.383,217.227 506.383 C 217.974 506.383,219.530 504.309,220.685 501.773 C 222.678 497.398,223.946 495.303,230.427 485.672 C 234.358 479.831,251.093 460.503,253.393 459.149 C 254.452 458.526,255.319 457.163,255.319 456.121 C 255.319 455.079,256.935 453.168,258.910 451.874 C 260.886 450.580,262.125 448.911,261.664 448.165 C 261.203 447.419,261.450 446.809,262.214 446.809 C 262.978 446.809,267.377 443.034,271.991 438.421 C 276.604 433.808,282.494 428.747,285.079 427.174 C 290.355 423.966,303.954 412.227,312.674 403.353 C 328.009 387.749,334.752 380.324,334.752 379.039 C 334.752 378.265,336.275 376.633,338.136 375.414 C 339.997 374.194,342.885 370.376,344.555 366.928 C 346.224 363.480,348.835 359.531,350.357 358.154 C 351.879 356.776,352.780 355.092,352.359 354.410 C 351.938 353.729,352.567 352.798,353.757 352.341 C 354.947 351.885,356.283 350.369,356.726 348.974 C 357.169 347.578,358.789 344.986,360.326 343.214 C 361.863 341.442,363.121 338.955,363.121 337.687 C 363.121 336.420,364.238 333.805,365.603 331.876 C 367.809 328.759,368.085 324.377,368.085 292.452 L 368.085 256.536 359.574 248.279 C 347.574 236.636,347.604 236.689,346.078 224.651 C 345.320 218.677,344.002 212.948,343.148 211.919 C 337.903 205.598,337.934 107.777,343.185 97.702 C 344.788 94.627,346.099 91.162,346.099 90.001 C 346.099 87.509,352.997 73.871,355.620 71.177 C 356.622 70.148,357.832 67.754,358.308 65.858 C 358.783 63.962,359.756 62.411,360.468 62.411 C 361.180 62.411,362.547 60.665,363.506 58.530 C 366.167 52.602,391.517 25.532,394.407 25.532 C 394.963 25.532,396.492 23.893,397.804 21.891 C 402.018 15.460,399.204 14.267,381.095 14.811 C 363.419 15.341,335.701 12.792,330.944 10.200 C 329.240 9.271,326.287 8.511,324.380 8.511 C 322.474 8.511,320.120 7.553,319.149 6.383 C 318.178 5.213,316.582 4.255,315.603 4.255 C 314.624 4.255,313.028 3.298,312.057 2.128 C 309.973 -0.383,280.228 -1.016,278.723 1.418 " stroke="none" fill="#000000" fill-rule="evenodd"></path></g></svg>