<svg id="svg" version="1.1" xmlns="http://www.w3.org/2000/svg" xmlns:xlink="http://www.w3.org/1999/xlink" width="400" height="210.24258760107818" viewBox="0, 0, 400,210.24258760107818"><g id="svgg"><path id="path0" d="M250.135 1.093 C 247.466 1.544,244.070 2.258,242.588 2.678 C 241.105 3.099,237.422 3.829,234.403 4.301 C 231.385 4.772,227.988 5.688,226.856 6.336 C 223.277 8.384,212.052 11.860,209.020 11.860 C 207.416 11.860,204.731 12.534,203.052 13.357 C 197.260 16.199,186.708 19.153,173.585 21.606 C 162.016 23.768,54.332 22.809,47.719 20.485 C 44.345 19.299,40.354 18.312,38.851 18.291 C 37.348 18.270,34.906 17.559,33.423 16.712 C 31.941 15.864,29.515 15.151,28.032 15.126 C 26.550 15.101,23.947 14.356,22.249 13.470 C 12.300 8.282,-1.558 12.308,0.999 19.644 C 1.636 21.470,2.156 30.636,2.156 40.013 C 2.156 54.521,2.478 57.879,4.313 62.534 C 5.499 65.543,6.469 69.182,6.469 70.622 C 6.469 73.082,12.260 80.976,13.833 80.660 C 14.230 80.580,16.011 81.166,17.790 81.963 C 21.849 83.780,22.735 83.969,31.015 84.777 C 34.730 85.140,38.034 85.863,38.356 86.384 C 38.678 86.905,40.776 87.332,43.018 87.332 C 45.260 87.332,50.690 88.235,55.084 89.340 C 59.478 90.445,65.196 91.674,67.792 92.070 C 70.387 92.467,73.527 93.504,74.770 94.374 C 76.013 95.245,77.676 95.957,78.466 95.957 C 79.774 95.957,84.655 97.916,93.261 101.896 C 99.624 104.839,102.264 105.201,120.216 105.595 C 134.634 105.911,140.279 108.174,149.681 117.411 C 153.063 120.732,157.156 124.046,158.777 124.775 C 160.399 125.503,161.725 126.595,161.725 127.201 C 161.725 127.806,162.375 128.302,163.170 128.302 C 163.965 128.302,167.240 129.749,170.448 131.517 C 173.656 133.285,177.008 134.744,177.898 134.758 C 178.787 134.772,180.905 135.509,182.603 136.395 C 184.302 137.281,186.531 138.005,187.557 138.005 C 188.584 138.005,190.248 138.917,191.257 140.032 C 192.266 141.146,194.946 142.355,197.214 142.718 C 199.482 143.080,201.945 144.109,202.687 145.004 C 203.430 145.899,204.710 146.631,205.531 146.631 C 207.896 146.631,231.806 158.428,231.806 159.595 C 231.806 160.174,233.504 160.647,235.580 160.647 C 237.655 160.647,239.353 161.099,239.353 161.650 C 239.353 162.715,253.897 170.347,255.940 170.355 C 256.602 170.358,259.690 172.291,262.803 174.651 C 265.916 177.011,268.464 178.696,268.464 178.395 C 268.464 177.389,274.366 181.631,276.550 184.207 C 277.736 185.605,279.507 187.621,280.487 188.686 C 281.466 189.751,282.612 191.762,283.034 193.155 C 283.925 196.101,288.927 201.758,290.034 201.074 C 290.450 200.817,291.308 201.744,291.941 203.134 C 295.546 211.046,321.679 210.884,329.483 202.902 C 331.390 200.951,334.285 196.717,335.916 193.492 C 337.548 190.267,339.777 186.820,340.870 185.831 C 341.963 184.842,342.857 183.432,342.857 182.698 C 342.857 181.963,343.544 181.099,344.382 180.777 C 345.221 180.456,346.556 179.016,347.347 177.578 C 348.139 176.140,350.230 172.834,351.994 170.231 C 353.758 167.628,355.734 164.528,356.385 163.342 C 359.348 157.947,360.762 155.654,362.264 153.809 C 364.328 151.275,369.261 142.825,371.347 138.250 C 372.614 135.472,372.988 129.281,373.106 109.140 C 373.213 90.943,373.674 82.313,374.704 79.245 C 375.500 76.873,376.706 71.536,377.382 67.385 C 378.059 63.235,379.301 58.309,380.142 56.441 C 380.983 54.572,381.671 52.628,381.671 52.120 C 381.671 50.727,387.139 40.739,388.823 39.055 C 389.633 38.245,390.296 36.964,390.296 36.209 C 390.296 35.453,391.267 33.957,392.453 32.884 C 393.639 31.811,394.609 29.912,394.609 28.664 C 394.609 27.416,395.508 25.833,396.607 25.147 C 402.266 21.613,400.199 6.979,393.514 3.242 L 388.679 0.539 321.833 0.406 C 285.067 0.332,252.803 0.642,250.135 1.093 " stroke="none" fill="#000000" fill-rule="evenodd"></path></g></svg>