<svg id="svg" version="1.1" xmlns="http://www.w3.org/2000/svg" xmlns:xlink="http://www.w3.org/1999/xlink" width="400" height="351.12881806108896" viewBox="0, 0, 400,351.12881806108896"><g id="svgg"><path id="path0" d="M180.611 0.578 C 168.713 1.529,158.856 3.935,156.977 6.346 C 156.396 7.092,155.380 8.251,154.720 8.922 C 154.059 9.593,153.519 10.369,153.519 10.648 C 153.519 10.927,153.334 11.155,153.108 11.155 C 152.882 11.155,150.688 13.086,148.232 15.445 C 145.776 17.804,142.674 20.325,141.339 21.048 C 140.003 21.771,137.697 23.128,136.214 24.063 C 134.731 24.998,132.732 26.242,131.773 26.826 C 130.815 27.410,129.040 28.541,127.830 29.340 C 126.621 30.138,125.387 30.795,125.090 30.800 C 124.793 30.806,123.598 31.460,122.434 32.254 C 120.188 33.787,117.728 35.198,113.413 37.428 C 111.952 38.183,108.726 39.871,106.243 41.180 C 103.760 42.488,101.324 43.559,100.830 43.559 C 100.335 43.559,99.794 43.780,99.627 44.049 C 99.460 44.319,98.626 44.693,97.773 44.880 C 96.920 45.068,95.937 45.564,95.589 45.984 C 95.241 46.403,94.066 46.746,92.978 46.746 C 91.890 46.746,90.281 47.105,89.402 47.543 C 88.399 48.044,85.352 48.472,81.221 48.695 L 74.638 49.049 70.946 52.546 C 63.836 59.279,56.839 66.550,56.839 67.205 C 56.839 67.568,56.481 68.162,56.042 68.526 C 55.604 68.890,55.246 69.599,55.246 70.102 C 55.246 70.606,54.768 71.450,54.183 71.979 C 53.599 72.508,53.121 73.230,53.121 73.583 C 53.121 73.937,52.643 74.834,52.058 75.577 C 51.474 76.319,50.996 77.279,50.996 77.708 C 50.996 78.137,50.644 78.781,50.213 79.138 C 49.783 79.496,49.296 80.660,49.131 81.727 C 48.967 82.793,48.459 85.697,48.002 88.181 C 47.071 93.249,48.620 122.454,49.902 123.999 C 50.232 124.397,50.645 125.930,50.820 127.407 C 51.143 130.139,52.298 131.810,55.922 134.791 C 56.719 135.446,57.371 136.503,57.371 137.139 C 57.371 137.776,57.789 138.760,58.300 139.327 C 59.631 140.803,59.697 165.326,58.376 167.369 C 57.917 168.078,57.385 169.455,57.195 170.428 C 57.004 171.401,56.368 172.808,55.782 173.554 C 55.195 174.300,54.714 175.357,54.714 175.902 C 54.714 176.447,54.492 176.892,54.221 176.892 C 53.668 176.892,50.465 181.445,50.465 182.231 C 50.465 182.509,50.221 182.736,49.922 182.736 C 49.624 182.736,49.088 183.375,48.732 184.157 C 47.684 186.458,43.180 191.509,35.393 199.114 C 28.983 205.375,29.084 205.286,26.118 207.326 C 23.527 209.108,21.913 210.701,15.671 217.632 C 13.918 219.579,11.467 222.201,10.226 223.459 C 8.984 224.717,7.968 226.017,7.968 226.349 C 7.968 226.680,7.221 227.802,6.308 228.842 C 5.395 229.882,4.323 231.511,3.926 232.462 C 3.528 233.412,2.977 234.330,2.700 234.501 C 2.423 234.672,1.901 236.134,1.540 237.749 C 1.178 239.364,0.684 240.809,0.441 240.959 C -0.138 241.317,-0.134 263.647,0.446 264.303 C 0.691 264.580,1.213 265.644,1.605 266.667 C 1.998 267.689,2.753 269.096,3.284 269.793 C 3.815 270.490,4.250 271.632,4.250 272.333 C 4.250 273.033,4.602 273.741,5.032 273.906 C 5.462 274.071,5.978 275.079,6.178 276.147 C 6.378 277.214,6.969 278.685,7.492 279.416 C 8.244 280.467,8.559 282.568,9.002 289.509 C 9.634 299.410,10.606 306.794,11.483 308.367 C 12.021 309.329,12.975 315.761,13.493 321.912 C 13.604 323.227,13.955 325.259,14.273 326.428 C 14.908 328.754,15.159 345.083,14.606 348.031 C 14.124 350.604,15.141 351.384,17.983 350.619 C 21.440 349.688,39.828 330.914,41.960 326.138 C 42.917 323.995,43.876 322.474,45.079 321.194 C 45.704 320.529,46.215 319.730,46.215 319.420 C 46.215 319.109,47.709 318.288,49.535 317.595 C 55.878 315.188,67.081 316.339,69.194 319.615 C 69.415 319.958,70.491 320.526,71.584 320.876 C 72.678 321.226,74.290 322.040,75.166 322.685 C 76.042 323.330,78.074 324.306,79.681 324.854 C 81.288 325.402,82.936 326.100,83.343 326.404 C 83.751 326.709,85.663 327.233,87.593 327.569 C 94.040 328.690,97.985 329.301,100.664 329.592 C 102.125 329.750,105.113 330.104,107.304 330.379 C 109.495 330.653,117.264 330.894,124.568 330.915 C 138.850 330.956,140.817 331.311,144.239 334.464 C 147.545 337.511,147.968 337.583,162.550 337.583 L 176.096 337.583 180.167 335.622 C 182.946 334.284,184.359 333.280,184.619 332.460 C 184.829 331.799,185.295 330.964,185.654 330.605 C 186.013 330.246,186.458 329.006,186.643 327.849 C 186.828 326.693,187.309 325.620,187.711 325.466 C 188.113 325.312,188.599 324.562,188.790 323.801 C 188.981 323.040,189.609 321.945,190.186 321.368 C 190.763 320.791,191.235 319.960,191.235 319.522 C 191.235 319.084,191.479 318.725,191.778 318.725 C 192.076 318.725,192.614 318.075,192.973 317.280 C 193.332 316.485,194.570 314.991,195.725 313.960 C 199.035 311.003,200.715 309.088,201.859 306.967 C 203.871 303.236,207.631 295.505,207.936 294.470 C 208.123 293.839,208.624 293.033,209.051 292.679 C 209.478 292.324,209.827 291.588,209.827 291.042 C 209.827 290.496,210.305 289.750,210.890 289.385 C 211.474 289.020,211.952 288.456,211.952 288.130 C 211.952 287.591,213.122 286.077,215.548 283.477 C 224.428 273.959,226.227 273.527,258.699 273.109 C 282.019 272.808,285.144 272.669,286.321 271.882 C 287.052 271.394,288.601 270.821,289.764 270.608 C 290.926 270.395,294.309 269.063,297.280 267.647 C 300.252 266.231,302.909 265.073,303.186 265.073 C 304.259 265.073,307.407 263.169,311.752 259.892 C 317.486 255.567,318.725 253.653,318.725 249.115 C 318.725 247.443,319.106 245.882,319.786 244.767 C 320.369 243.811,320.848 242.430,320.851 241.700 C 320.854 240.969,321.205 239.704,321.630 238.889 C 322.287 237.628,323.025 234.901,323.240 232.935 C 323.272 232.643,323.565 231.782,323.890 231.023 C 324.215 230.263,324.649 227.634,324.853 225.179 C 325.092 222.308,325.581 220.127,326.225 219.061 C 326.775 218.150,327.224 216.973,327.224 216.445 C 327.224 212.296,335.330 201.215,339.076 200.243 C 340.300 199.926,342.036 199.442,342.933 199.169 C 343.830 198.896,346.392 198.672,348.627 198.672 C 353.360 198.672,355.907 197.618,358.349 194.649 C 359.198 193.615,360.730 191.854,361.753 190.734 C 367.826 184.085,373.971 175.186,373.971 173.039 C 373.971 172.721,374.327 172.067,374.763 171.585 C 375.199 171.104,375.781 169.531,376.056 168.091 C 376.794 164.228,381.645 155.644,383.090 155.644 C 383.713 155.644,394.184 147.825,395.106 146.672 C 395.482 146.202,396.604 144.956,397.600 143.904 C 401.243 140.051,399.216 136.059,393.209 135.255 C 391.831 135.070,390.019 134.563,389.182 134.126 C 388.345 133.690,386.741 133.333,385.617 133.333 C 382.983 133.333,378.199 131.536,375.196 129.419 C 373.899 128.504,372.017 127.261,371.015 126.656 C 367.078 124.280,362.393 119.553,360.403 115.948 C 359.311 113.970,358.125 111.992,357.768 111.554 C 357.410 111.116,356.969 109.966,356.787 109.000 C 356.604 108.033,356.099 106.886,355.663 106.450 C 355.227 106.015,354.686 105.370,354.461 105.019 C 352.853 102.512,349.828 101.461,344.195 101.450 C 341.143 101.444,337.092 101.184,335.193 100.871 C 326.821 99.493,323.807 98.924,324.303 98.815 C 326.052 98.432,321.272 97.840,316.057 97.795 C 309.991 97.743,309.911 97.726,307.113 95.883 C 305.560 94.861,304.120 94.024,303.912 94.024 C 303.705 94.024,302.594 92.548,301.445 90.743 C 300.295 88.939,298.921 86.967,298.390 86.361 C 296.078 83.719,291.057 76.231,290.748 74.962 C 290.561 74.198,289.967 73.002,289.428 72.306 C 288.888 71.609,288.446 70.806,288.446 70.523 C 288.446 70.006,286.411 68.197,284.707 67.198 C 284.208 66.906,282.357 65.385,280.593 63.818 C 277.501 61.072,276.135 60.109,273.816 59.042 C 273.220 58.768,272.414 58.160,272.025 57.691 C 271.636 57.223,271.099 56.839,270.831 56.839 C 270.280 56.839,260.615 50.299,258.911 48.773 C 258.298 48.223,256.578 47.005,255.090 46.065 C 253.601 45.125,250.398 42.909,247.971 41.142 C 245.545 39.374,242.364 37.359,240.903 36.664 C 239.442 35.970,238.056 35.085,237.822 34.699 C 237.589 34.313,237.025 33.997,236.571 33.997 C 236.116 33.997,234.838 33.280,233.732 32.404 C 232.625 31.527,231.498 30.810,231.228 30.810 C 230.957 30.810,229.758 29.973,228.564 28.951 C 227.369 27.928,226.167 27.092,225.892 27.092 C 225.617 27.092,224.402 26.375,223.192 25.498 C 221.982 24.622,220.783 23.904,220.528 23.904 C 220.272 23.904,219.494 23.475,218.797 22.951 C 218.100 22.426,216.454 21.566,215.139 21.039 C 213.825 20.512,211.136 19.268,209.165 18.274 C 207.195 17.281,205.248 16.467,204.840 16.467 C 204.432 16.467,203.960 16.109,203.792 15.671 C 203.624 15.232,203.035 14.874,202.483 14.874 C 201.932 14.874,200.385 14.037,199.046 13.015 C 197.707 11.992,196.513 11.155,196.394 11.155 C 195.498 11.155,191.025 6.247,190.137 4.289 C 187.992 -0.440,188.903 -0.085,180.611 0.578 " stroke="none" fill="#000000" fill-rule="evenodd"></path></g></svg>