<svg id="svg" version="1.1" xmlns="http://www.w3.org/2000/svg" xmlns:xlink="http://www.w3.org/1999/xlink" width="400" height="284.593837535014" viewBox="0, 0, 400,284.593837535014"><g id="svgg"><path id="path0" d="M266.304 4.307 C 263.331 6.663,260.290 8.590,259.546 8.590 C 257.194 8.590,252.101 12.511,252.101 14.321 C 252.101 15.277,251.760 15.719,251.344 15.303 C 250.927 14.886,249.417 15.644,247.987 16.988 C 246.557 18.331,245.053 19.096,244.645 18.688 C 244.237 18.280,243.319 18.432,242.604 19.025 C 235.994 24.511,213.873 33.527,198.319 37.076 C 195.546 37.708,192.269 38.669,191.036 39.212 C 189.804 39.754,187.031 40.434,184.874 40.723 C 182.717 41.012,178.936 41.874,176.471 42.638 C 174.006 43.402,164.678 44.332,155.742 44.703 C 146.807 45.074,138.826 45.810,138.007 46.339 C 137.189 46.867,134.307 47.530,131.603 47.812 C 128.900 48.094,122.258 49.584,116.845 51.124 C 111.432 52.664,105.490 54.187,103.641 54.507 C 101.793 54.828,98.768 55.768,96.919 56.596 C 95.070 57.424,90.028 58.708,85.714 59.449 C 81.401 60.190,75.458 61.739,72.508 62.891 C 69.558 64.043,65.776 64.988,64.104 64.990 C 62.432 64.992,59.426 65.993,57.423 67.215 C 55.420 68.436,53.782 69.128,53.782 68.754 C 53.782 68.379,53.151 68.548,52.381 69.129 C 51.611 69.709,48.711 70.832,45.938 71.624 C 37.315 74.084,35.697 74.970,36.044 77.038 C 36.747 81.225,30.488 91.711,21.780 100.934 C 20.277 102.526,19.048 104.295,19.048 104.866 C 19.048 105.437,18.039 106.533,16.807 107.303 C 15.574 108.073,14.566 109.437,14.566 110.334 C 14.566 111.232,13.557 112.506,12.325 113.165 C 11.092 113.825,10.084 115.025,10.084 115.832 C 10.084 116.639,9.076 118.212,7.843 119.328 C 6.611 120.443,5.602 122.286,5.602 123.423 C 5.602 124.560,4.880 125.490,3.997 125.490 C 0.845 125.490,0.781 126.666,0.976 180.707 C 1.107 217.078,1.294 220.865,2.996 221.518 C 4.027 221.914,5.792 223.159,6.917 224.284 C 8.584 225.951,10.887 226.352,19.328 226.445 C 49.137 226.775,60.466 230.207,72.162 242.455 C 75.302 245.743,78.889 248.961,80.133 249.608 C 84.137 251.686,95.659 255.173,100.508 255.773 C 103.098 256.093,106.627 257.338,108.351 258.538 C 110.074 259.739,113.248 261.320,115.402 262.052 C 119.252 263.358,120.790 264.584,128.031 272.115 C 134.014 278.338,146.581 278.440,153.899 272.325 C 161.370 266.082,182.419 271.261,188.309 280.792 C 191.545 286.028,193.807 285.659,203.584 278.300 C 211.378 272.435,225.210 259.651,225.210 258.315 C 225.210 257.230,235.885 247.619,237.089 247.619 C 237.446 247.619,240.339 245.424,243.519 242.741 C 250.219 237.087,260.598 230.346,264.515 229.104 C 266.006 228.631,268.992 227.152,271.148 225.818 C 275.629 223.046,280.768 220.895,284.034 220.426 C 285.266 220.248,286.802 219.774,287.446 219.371 C 289.704 217.959,306.341 214.006,310.025 214.006 C 320.335 214.006,326.544 193.505,320.446 179.595 C 318.428 174.991,318.786 174.713,328.030 173.698 C 335.528 172.875,350.700 166.904,350.700 164.776 C 350.700 164.262,352.444 163.014,354.574 162.002 C 356.705 160.991,358.764 159.653,359.150 159.028 C 359.536 158.404,361.827 156.646,364.240 155.123 C 366.653 153.599,368.627 151.724,368.627 150.956 C 368.627 150.187,369.608 148.946,370.806 148.198 C 372.837 146.930,373.009 145.192,373.327 122.676 C 373.572 105.378,374.052 98.278,375.017 97.683 C 375.759 97.226,376.704 94.733,377.118 92.144 C 377.532 89.555,378.538 86.883,379.354 86.206 C 380.170 85.529,381.441 83.124,382.178 80.863 C 382.915 78.601,383.823 76.499,384.196 76.190 C 386.273 74.474,390.086 64.573,391.100 58.263 C 391.744 54.258,392.703 50.179,393.231 49.200 C 393.759 48.221,394.543 44.439,394.973 40.797 C 395.404 37.154,396.523 32.958,397.461 31.473 C 399.452 28.320,400.784 15.183,399.212 14.211 C 398.623 13.847,386.744 13.324,372.815 13.050 C 358.886 12.775,346.827 12.141,346.019 11.641 C 343.778 10.256,334.937 9.231,317.647 8.350 C 292.382 7.063,287.243 6.218,285.561 3.075 C 284.553 1.192,283.612 0.950,279.488 1.516 C 276.750 1.891,274.311 1.705,273.932 1.092 C 272.881 -0.609,272.084 -0.274,266.304 4.307 " stroke="none" fill="#000000" fill-rule="evenodd"></path></g></svg>