<svg id="svg" version="1.1" xmlns="http://www.w3.org/2000/svg" xmlns:xlink="http://www.w3.org/1999/xlink" width="400" height="369.6394686907021" viewBox="0, 0, 400,369.6394686907021"><g id="svgg"><path id="path0" d="M96.395 1.351 C 94.516 2.007,91.590 3.166,89.893 3.928 C 88.196 4.690,86.317 5.317,85.719 5.322 C 85.120 5.327,83.167 6.168,81.379 7.190 C 79.591 8.212,76.858 9.263,75.307 9.526 C 73.755 9.788,71.120 10.610,69.450 11.354 C 67.780 12.097,64.023 13.291,61.101 14.006 C 58.178 14.722,55.099 15.746,54.258 16.283 C 53.417 16.819,51.601 17.506,50.222 17.809 C 45.990 18.738,44.264 20.013,35.921 28.365 C 31.490 32.802,27.460 36.433,26.967 36.433 C 26.474 36.433,25.269 37.287,24.288 38.330 C 23.308 39.374,21.902 40.228,21.165 40.228 C 20.427 40.228,19.618 40.562,19.365 40.970 C 19.113 41.378,14.635 43.819,9.415 46.396 L -0.078 51.080 0.151 82.008 C 0.352 109.180,0.528 113.106,1.606 114.342 C 2.280 115.116,3.050 117.432,3.317 119.489 C 3.584 121.546,4.275 123.766,4.853 124.423 C 5.431 125.079,6.131 126.691,6.410 128.005 C 6.689 129.318,7.581 130.994,8.392 131.728 C 9.203 132.462,9.867 133.498,9.867 134.029 C 9.867 134.561,10.294 135.447,10.816 135.999 C 11.338 136.551,12.906 139.283,14.302 142.071 C 15.697 144.859,17.319 147.324,17.907 147.550 C 18.495 147.775,18.975 148.434,18.975 149.014 C 18.975 149.594,21.025 151.962,23.529 154.277 C 26.034 156.591,28.083 158.820,28.083 159.229 C 28.083 160.852,38.162 169.846,41.048 170.798 C 42.684 171.338,44.023 172.064,44.023 172.411 C 44.023 172.759,46.072 173.957,48.577 175.075 C 51.082 176.192,53.131 177.390,53.131 177.737 C 53.131 178.084,53.899 178.376,54.839 178.385 C 55.778 178.394,58.004 179.063,59.786 179.872 C 61.568 180.681,63.154 181.271,63.312 181.184 C 63.469 181.096,64.231 181.577,65.006 182.251 C 65.780 182.925,67.438 183.721,68.691 184.018 C 69.943 184.315,71.480 185.013,72.106 185.569 C 72.732 186.125,75.123 187.175,77.419 187.903 C 79.715 188.631,81.935 189.486,82.353 189.804 C 82.770 190.123,85.332 191.229,88.046 192.264 C 90.759 193.299,94.004 194.692,95.256 195.360 C 96.509 196.028,97.932 196.577,98.420 196.580 C 98.908 196.582,100.275 197.088,101.457 197.703 C 104.947 199.520,108.605 200.864,113.852 202.257 C 116.565 202.978,120.152 204.038,121.822 204.613 C 123.491 205.188,127.151 205.980,129.955 206.374 C 132.758 206.767,135.491 207.362,136.027 207.697 C 136.563 208.032,137.685 208.409,138.520 208.535 C 139.355 208.662,142.087 209.247,144.592 209.836 C 147.097 210.425,151.195 211.133,153.700 211.409 C 156.205 211.685,158.722 212.296,159.294 212.766 C 159.866 213.236,162.599 213.857,165.366 214.146 C 173.242 214.970,182.323 216.839,184.820 218.150 C 186.072 218.807,188.357 219.348,189.898 219.350 C 191.439 219.353,192.887 219.659,193.117 220.030 C 193.346 220.401,194.477 220.939,195.629 221.225 C 198.410 221.917,204.172 225.583,204.173 226.662 C 204.174 227.133,204.721 227.972,205.390 228.527 C 206.382 229.350,206.521 230.519,206.149 234.882 C 204.938 249.051,204.790 253.563,205.504 254.459 C 205.920 254.981,206.507 257.109,206.808 259.188 C 207.109 261.267,208.006 263.881,208.801 264.998 C 209.596 266.114,210.249 267.658,210.252 268.428 C 210.254 269.199,210.935 270.854,211.765 272.106 C 212.594 273.359,213.275 274.981,213.278 275.712 C 213.280 276.442,213.966 277.723,214.801 278.558 C 215.636 279.393,216.319 280.569,216.319 281.171 C 216.319 281.774,216.922 282.713,217.659 283.259 C 218.396 283.804,219.413 285.190,219.920 286.338 C 220.426 287.486,221.189 288.425,221.616 288.425 C 222.042 288.425,222.391 289.096,222.391 289.916 C 222.391 290.737,223.074 291.773,223.909 292.220 C 224.744 292.667,225.427 293.480,225.427 294.027 C 225.427 294.574,226.110 295.639,226.945 296.395 C 227.780 297.150,228.463 298.176,228.463 298.673 C 228.463 299.171,229.146 300.366,229.981 301.328 C 230.816 302.291,231.499 303.486,231.499 303.983 C 231.499 304.481,232.182 305.506,233.017 306.262 C 233.852 307.017,234.535 308.042,234.535 308.539 C 234.535 309.036,235.218 310.060,236.053 310.816 C 236.888 311.572,237.571 312.708,237.571 313.341 C 237.571 313.974,238.139 315.118,238.832 315.885 C 240.257 317.459,241.571 319.605,243.200 323.021 C 243.813 324.306,244.847 325.800,245.497 326.339 C 246.147 326.879,246.679 327.575,246.679 327.886 C 246.679 331.255,264.774 352.941,267.584 352.941 C 268.193 352.941,268.700 353.368,268.711 353.890 C 268.722 354.412,270.089 355.676,271.747 356.699 C 273.406 357.722,274.763 359.003,274.763 359.545 C 274.763 360.088,275.223 360.531,275.785 360.531 C 276.347 360.531,278.038 361.727,279.542 363.188 C 281.047 364.649,282.519 365.844,282.813 365.844 C 283.107 365.844,284.466 366.697,285.832 367.739 L 288.316 369.633 290.647 367.671 C 291.930 366.592,292.979 365.384,292.979 364.986 C 292.979 364.588,293.631 363.563,294.429 362.707 C 295.226 361.851,298.517 356.657,301.742 351.164 C 304.967 345.671,308.157 340.360,308.831 339.362 C 309.505 338.364,310.398 337.000,310.816 336.329 C 311.233 335.659,312.600 333.760,313.852 332.109 C 315.104 330.458,317.324 327.338,318.786 325.176 C 320.247 323.014,323.603 318.259,326.245 314.610 C 328.886 310.962,331.250 307.420,331.497 306.740 C 331.745 306.059,332.551 304.715,333.289 303.753 C 336.046 300.156,337.607 295.535,338.061 289.622 C 338.344 285.941,338.961 283.124,339.651 282.361 C 340.271 281.676,340.985 280.086,341.236 278.829 C 341.499 277.512,343.434 274.732,345.799 272.271 C 348.057 269.920,349.905 267.653,349.905 267.232 C 349.905 266.811,350.588 266.101,351.423 265.655 C 352.258 265.208,352.941 264.342,352.941 263.730 C 352.941 263.119,353.222 262.619,353.566 262.619 C 353.910 262.619,355.642 260.825,357.416 258.634 C 359.190 256.442,363.447 251.746,366.875 248.197 C 370.304 244.649,374.276 239.696,375.702 237.192 C 377.128 234.687,378.738 232.186,379.280 231.635 C 379.822 231.083,380.266 230.144,380.266 229.547 C 380.266 227.554,380.351 227.332,381.700 225.806 C 382.439 224.972,384.348 221.556,385.942 218.216 C 387.537 214.877,389.596 211.120,390.518 209.867 C 392.448 207.246,396.205 200.024,396.205 198.936 C 396.205 198.532,396.599 197.240,397.081 196.065 C 398.199 193.336,398.200 193.331,399.102 187.476 C 400.102 180.992,399.631 145.976,398.526 144.645 C 397.865 143.849,389.276 143.686,354.640 143.813 C 301.926 144.007,291.805 143.398,284.730 139.606 C 283.226 138.800,281.603 138.140,281.122 138.140 C 279.732 138.140,270.969 132.035,270.955 131.057 C 270.947 130.569,270.094 129.366,269.057 128.383 C 268.021 127.400,267.173 126.161,267.173 125.630 C 267.173 125.099,266.660 124.239,266.034 123.719 C 265.408 123.199,264.896 121.982,264.896 121.013 C 264.896 120.044,264.247 118.122,263.454 116.742 C 261.710 113.706,260.874 105.186,260.748 89.184 C 260.653 76.951,259.506 68.328,257.587 65.398 C 256.859 64.288,256.239 61.153,256.006 57.403 C 255.691 52.350,251.233 38.814,251.233 42.910 C 251.233 43.267,250.366 42.382,249.307 40.944 C 246.834 37.589,236.386 28.465,233.311 26.978 C 232.012 26.349,230.519 25.316,229.993 24.682 C 229.467 24.048,228.437 23.529,227.704 23.529 C 226.971 23.529,225.903 22.964,225.330 22.273 C 222.935 19.386,219.344 18.668,204.934 18.199 C 192.295 17.787,190.626 17.576,188.235 16.091 C 186.774 15.183,184.896 14.131,184.061 13.752 C 183.226 13.374,181.715 12.174,180.703 11.086 C 179.691 9.998,178.136 9.108,177.249 9.108 C 176.362 9.108,175.259 8.732,174.799 8.272 C 174.190 7.662,173.344 7.892,171.685 9.119 C 168.632 11.376,165.272 10.432,164.700 7.155 C 164.172 4.138,161.691 3.108,151.524 1.688 C 139.062 -0.053,101.084 -0.285,96.395 1.351 " stroke="none" fill="#000000" fill-rule="evenodd"></path></g></svg>