<svg id="svg" version="1.1" xmlns="http://www.w3.org/2000/svg" xmlns:xlink="http://www.w3.org/1999/xlink" width="400" height="211.6883116883117" viewBox="0, 0, 400,211.6883116883117"><g id="svgg"><path id="path0" d="M107.792 2.254 C 103.864 3.249,97.143 4.171,92.857 4.304 L 85.065 4.545 84.678 9.091 C 84.464 11.591,83.150 16.114,81.755 19.142 C 80.361 22.170,79.221 26.677,79.221 29.159 C 79.221 31.640,78.052 36.635,76.623 40.260 C 75.195 43.884,74.026 49.131,74.026 51.919 C 74.026 54.708,73.487 57.323,72.827 57.730 C 72.168 58.138,71.225 60.364,70.732 62.677 C 69.814 66.982,65.390 77.470,60.938 85.891 C 59.565 88.488,58.442 91.364,58.442 92.282 C 58.442 93.200,57.574 94.909,56.515 96.081 C 53.534 99.374,51.341 117.173,51.744 134.795 C 52.342 160.898,49.090 168.704,33.358 178.933 C 30.368 180.877,26.753 183.563,25.325 184.901 C 23.896 186.240,20.390 188.476,17.532 189.869 C 14.675 191.263,10.877 193.227,9.091 194.234 C 7.305 195.242,4.856 196.074,3.648 196.085 C -0.451 196.120,-0.064 198.520,4.617 202.091 C 8.740 205.236,10.868 205.763,22.895 206.621 C 30.382 207.156,37.324 208.272,38.324 209.101 C 39.468 210.050,48.461 210.869,62.603 211.313 C 90.024 212.172,90.844 211.854,109.677 193.020 C 116.553 186.145,122.960 180.519,123.917 180.519 C 124.873 180.519,126.360 179.671,127.220 178.635 C 128.080 177.599,131.512 176.354,134.846 175.869 C 138.181 175.383,144.708 173.592,149.351 171.889 C 153.994 170.185,162.449 168.181,168.140 167.436 C 173.832 166.691,179.326 165.385,180.351 164.534 C 181.701 163.413,198.687 162.769,242.081 162.194 C 278.189 161.715,304.267 160.836,307.792 159.977 C 311.006 159.195,316.003 158.529,318.896 158.498 C 321.789 158.467,324.711 157.950,325.390 157.349 C 327.195 155.751,343.226 150.649,346.443 150.649 C 347.958 150.649,349.567 150.052,350.018 149.322 C 350.469 148.591,354.156 146.301,358.211 144.232 C 368.634 138.914,379.948 126.995,381.851 119.328 C 383.162 114.043,383.903 113.155,388.098 111.839 C 390.715 111.017,394.528 108.967,396.571 107.283 L 400.284 104.221 397.325 94.845 C 395.593 89.356,392.707 83.595,390.365 80.949 C 388.164 78.463,386.311 76.035,386.246 75.553 C 385.908 73.027,381.693 65.149,379.870 63.636 C 378.716 62.679,376.951 59.931,375.948 57.530 C 374.945 55.129,372.203 51.247,369.854 48.903 C 367.506 46.559,362.370 40.979,358.442 36.502 C 350.361 27.295,343.117 22.078,338.414 22.078 C 336.656 22.078,334.852 21.485,334.403 20.760 C 332.604 17.849,324.126 15.733,311.615 15.074 C 304.363 14.691,297.740 13.806,296.898 13.107 C 296.055 12.408,294.217 12.006,292.813 12.214 C 291.409 12.423,289.383 12.166,288.312 11.644 C 286.478 10.751,277.839 8.382,272.078 7.193 C 260.784 4.862,248.648 3.646,233.117 3.288 C 223.117 3.058,214.789 2.736,214.610 2.571 C 212.072 0.236,116.879 -0.047,107.792 2.254 " stroke="none" fill="#000000" fill-rule="evenodd"></path></g></svg>