<svg id="svg" version="1.1" xmlns="http://www.w3.org/2000/svg" xmlns:xlink="http://www.w3.org/1999/xlink" width="400" height="497.59450171821305" viewBox="0, 0, 400,497.59450171821305"><g id="svgg"><path id="path0" d="M180.800 3.093 C 179.604 4.794,178.025 8.408,177.291 11.124 C 174.540 21.298,171.115 23.149,153.626 23.909 C 141.567 24.434,128.020 28.945,127.891 32.478 C 127.860 33.331,126.443 34.955,124.742 36.087 C 120.064 39.200,120.114 69.255,124.805 73.946 C 126.472 75.613,127.835 77.697,127.835 78.579 C 127.835 79.460,128.751 81.161,129.871 82.359 C 136.027 88.943,138.832 92.698,138.832 94.359 C 138.832 95.382,139.748 96.220,140.867 96.220 C 141.987 96.220,143.295 97.783,143.775 99.693 C 144.254 101.603,145.742 103.752,147.080 104.468 C 151.017 106.575,151.060 133.476,147.133 137.403 C 145.591 138.945,144.327 140.979,144.324 141.924 C 144.321 142.869,141.693 146.248,138.482 149.433 C 135.272 152.618,131.574 156.638,130.263 158.368 C 128.953 160.097,126.723 163.058,125.308 164.948 C 123.893 166.838,122.290 170.859,121.747 173.883 C 121.203 176.907,119.747 180.928,118.509 182.818 C 116.555 185.804,116.197 192.823,115.780 236.426 C 115.401 276.073,114.903 287.209,113.407 289.510 C 112.015 291.651,111.400 299.231,111.083 318.145 C 110.705 340.752,110.361 344.082,108.247 345.626 C 106.924 346.592,105.842 347.932,105.842 348.605 C 105.842 350.797,74.525 372.676,65.506 376.785 C 63.498 377.700,61.856 378.827,61.856 379.289 C 61.856 379.752,59.551 381.354,56.734 382.849 C 53.918 384.344,50.632 386.495,49.433 387.629 C 31.488 404.604,21.250 411.075,10.847 412.019 C 1.799 412.839,-1.888 415.388,2.544 417.760 C 6.582 419.921,31.180 421.054,50.218 419.956 L 66.937 418.991 75.049 411.450 C 79.511 407.303,84.863 403.014,86.942 401.919 C 89.021 400.825,90.722 399.379,90.722 398.707 C 90.722 396.928,102.975 388.402,108.591 386.274 C 111.237 385.271,116.495 383.086,120.275 381.418 C 124.055 379.750,128.694 377.917,130.584 377.345 C 132.474 376.773,136.612 375.143,139.780 373.723 C 142.948 372.302,148.824 370.448,152.839 369.602 C 156.853 368.756,160.756 367.611,161.512 367.058 C 165.224 364.341,207.774 361.564,223.163 363.034 C 242.912 364.921,249.505 371.914,256.127 398.001 C 260.609 415.658,264.502 426.263,267.236 428.263 C 268.435 429.139,269.416 430.532,269.416 431.358 C 269.416 433.499,277.520 435.458,294.158 437.340 C 304.027 438.456,309.628 439.765,311.869 441.480 C 313.672 442.858,315.837 444.020,316.680 444.062 C 322.819 444.367,324.861 451.892,324.630 473.345 C 324.506 484.792,324.867 494.860,325.433 495.718 C 326.161 496.823,337.059 497.223,362.887 497.092 L 399.313 496.907 399.673 443.426 C 399.981 397.595,399.735 389.492,397.954 386.774 C 396.811 385.029,395.867 381.879,395.856 379.773 C 395.845 377.668,394.944 374.399,393.853 372.509 C 392.763 370.619,391.254 367.714,390.499 366.054 C 389.745 364.394,387.015 360.029,384.432 356.354 C 381.849 352.680,379.323 348.373,378.819 346.785 C 378.315 345.196,376.998 343.550,375.893 343.125 C 374.787 342.701,373.883 341.583,373.883 340.641 C 373.883 338.960,370.983 335.567,364.368 329.510 C 327.294 295.561,320.421 281.906,325.773 252.830 C 326.530 248.722,327.715 240.828,328.408 235.287 C 329.115 229.628,330.621 224.159,331.844 222.808 C 333.041 221.485,334.021 219.499,334.021 218.395 C 334.021 217.292,335.209 214.057,336.662 211.207 C 338.116 208.357,339.708 203.635,340.202 200.715 C 340.695 197.794,341.980 195.066,343.058 194.653 C 344.136 194.239,345.017 192.728,345.017 191.294 C 345.017 189.860,346.267 187.098,347.794 185.156 C 352.715 178.900,353.376 157.537,349.249 138.144 C 348.605 135.120,348.551 128.848,349.129 124.207 C 350.645 112.034,346.311 74.730,342.750 69.295 C 341.698 67.690,340.446 61.185,339.967 54.838 C 339.081 43.099,335.952 37.113,330.699 37.113 C 329.706 37.113,327.320 35.876,325.398 34.364 C 323.476 32.852,321.094 31.615,320.104 31.615 C 317.306 31.615,306.089 27.233,303.672 25.197 C 302.478 24.191,301.157 23.368,300.735 23.368 C 299.766 23.368,275.831 11.943,269.416 8.419 C 254.882 0.433,252.156 0.000,216.389 0.000 C 183.297 0.000,182.953 0.030,180.800 3.093 " stroke="none" fill="#000000" fill-rule="evenodd"></path></g></svg>