<svg id="svg" version="1.1" xmlns="http://www.w3.org/2000/svg" xmlns:xlink="http://www.w3.org/1999/xlink" width="400" height="564.9805447470817" viewBox="0, 0, 400,564.9805447470817"><g id="svgg"><path id="path0" d="M222.568 0.537 C 220.035 0.806,217.933 1.509,214.602 3.204 C 213.859 3.582,212.721 3.891,212.073 3.891 C 211.425 3.891,210.895 4.241,210.895 4.669 C 210.895 5.097,210.433 5.447,209.868 5.447 C 208.461 5.447,199.075 10.532,192.546 14.831 C 185.641 19.379,179.034 23.345,178.353 23.351 C 178.060 23.354,176.900 23.837,175.774 24.424 C 173.189 25.773,164.671 28.530,161.089 29.177 C 159.591 29.448,157.452 30.020,156.336 30.448 C 155.220 30.876,152.653 31.467,150.632 31.761 L 146.958 32.296 147.028 58.366 C 147.108 88.258,147.598 97.909,149.126 99.669 C 150.575 101.340,151.056 140.431,149.663 143.264 C 149.156 144.294,148.517 147.155,148.243 149.621 C 147.969 152.088,147.422 153.907,147.028 153.663 C 146.633 153.419,145.871 154.202,145.334 155.404 C 144.329 157.651,138.258 164.202,137.179 164.202 C 135.938 164.202,133.111 170.963,132.623 175.097 C 132.344 177.451,131.665 180.103,131.112 180.989 C 130.560 181.875,129.862 184.566,129.562 186.969 C 129.262 189.371,128.573 191.507,128.031 191.715 C 127.488 191.923,126.796 193.435,126.493 195.074 C 126.189 196.713,125.476 199.105,124.907 200.389 C 124.338 201.673,123.643 204.973,123.361 207.721 C 123.080 210.470,122.210 213.972,121.428 215.503 C 118.486 221.267,116.732 225.784,116.732 227.592 C 116.732 228.620,116.294 229.924,115.759 230.489 C 115.224 231.055,114.314 232.863,113.737 234.509 C 112.431 238.229,105.401 245.423,99.222 249.361 C 96.654 250.997,93.054 253.343,91.222 254.573 C 89.391 255.803,87.621 256.809,87.289 256.809 C 86.957 256.809,85.347 258.035,83.712 259.533 C 82.076 261.031,80.449 262.257,80.096 262.257 C 79.744 262.257,79.175 262.720,78.832 263.285 C 78.490 263.851,75.759 266.164,72.763 268.426 C 65.053 274.248,56.809 281.782,56.809 283.007 C 56.809 283.579,56.452 284.047,56.014 284.047 C 55.577 284.047,54.796 285.010,54.279 286.187 C 53.762 287.364,52.993 288.570,52.569 288.867 C 52.146 289.164,51.565 292.420,51.278 296.103 C 50.958 300.226,50.316 303.307,49.608 304.123 C 48.976 304.851,48.240 307.132,47.973 309.191 C 47.706 311.250,47.012 313.410,46.431 313.991 C 45.782 314.641,45.201 317.727,44.924 322.002 C 44.676 325.826,43.922 330.275,43.249 331.888 C 42.575 333.501,42.023 336.651,42.023 338.889 C 42.023 341.127,41.638 344.062,41.168 345.412 C 40.527 347.250,40.562 348.888,41.307 351.948 C 42.786 358.019,41.144 363.847,36.980 367.303 C 36.385 367.797,35.654 369.313,35.355 370.672 C 35.057 372.031,33.633 374.581,32.192 376.340 C 30.751 378.099,29.572 379.889,29.572 380.318 C 29.572 380.748,28.428 382.638,27.029 384.518 C 25.630 386.399,23.974 388.988,23.348 390.272 C 22.723 391.556,21.456 393.658,20.533 394.942 C 18.485 397.790,15.370 403.891,15.962 403.891 C 16.686 403.891,12.352 411.244,11.258 411.874 C 10.695 412.198,9.850 413.626,9.381 415.047 C 8.912 416.467,7.498 418.391,6.239 419.322 C 0.106 423.857,-1.097 434.470,4.355 435.950 C 5.598 436.288,22.899 436.524,42.802 436.475 C 79.694 436.384,91.438 437.104,94.499 439.645 C 95.126 440.164,96.780 440.770,98.175 440.990 C 99.571 441.210,101.077 441.871,101.523 442.459 C 103.272 444.765,108.060 445.866,118.008 446.250 C 123.512 446.463,129.767 447.025,131.907 447.500 C 134.047 447.975,138.599 448.816,142.023 449.369 C 149.834 450.631,150.930 451.106,153.903 454.517 C 158.193 459.438,157.694 464.591,152.927 464.591 C 151.995 464.591,151.035 464.789,150.793 465.030 C 150.179 465.645,133.836 465.571,131.750 464.944 C 129.621 464.305,126.070 467.798,126.070 470.531 C 126.070 472.361,129.842 474.645,133.341 474.932 C 135.342 475.097,141.634 480.917,141.634 482.603 C 141.634 485.296,144.316 485.746,158.481 485.427 C 165.958 485.259,172.228 485.368,172.415 485.670 C 172.602 485.972,174.069 485.923,175.677 485.560 C 177.284 485.198,178.690 484.891,178.802 484.879 C 178.913 484.866,180.015 484.334,181.249 483.696 C 190.109 479.114,219.711 479.481,226.928 484.261 C 229.159 485.739,231.759 486.703,234.087 486.916 C 239.629 487.424,241.242 487.874,241.277 488.925 C 241.294 489.452,242.318 491.064,243.552 492.506 C 248.708 498.535,244.074 501.315,228.469 501.555 C 219.896 501.688,214.738 502.182,209.339 503.387 C 205.272 504.295,200.480 505.043,198.689 505.048 C 193.102 505.066,191.711 506.001,191.255 510.051 C 190.776 514.299,187.735 518.655,184.720 519.412 C 182.213 520.041,176.138 524.262,175.556 525.781 C 175.331 526.368,174.550 526.848,173.821 526.848 C 173.092 526.848,171.876 527.409,171.119 528.095 C 170.362 528.780,167.883 530.312,165.610 531.500 C 163.338 532.687,161.141 534.384,160.729 535.269 C 160.316 536.155,159.128 537.335,158.089 537.891 C 157.049 538.448,155.387 540.190,154.393 541.763 C 153.400 543.336,151.262 545.614,149.640 546.825 C 141.401 552.981,135.907 561.447,138.582 563.868 C 140.006 565.157,142.912 564.862,142.078 563.513 C 141.691 562.886,143.899 561.658,151.362 558.346 C 152.646 557.776,156.114 557.082,159.068 556.804 C 162.022 556.526,165.978 556.155,167.859 555.978 C 172.071 555.583,173.392 554.890,175.875 551.772 C 176.946 550.428,178.772 548.178,179.933 546.772 C 181.095 545.366,182.402 543.278,182.838 542.133 C 183.273 540.987,184.490 539.723,185.542 539.323 C 186.594 538.923,187.798 537.952,188.219 537.166 C 188.640 536.380,189.975 535.238,191.185 534.628 C 192.395 534.019,195.172 532.370,197.357 530.963 C 204.908 526.099,217.795 528.169,219.914 534.585 C 221.419 539.142,223.740 539.504,244.747 538.451 C 267.384 537.317,270.212 536.920,276.265 534.030 C 280.858 531.837,280.911 531.795,289.070 524.220 C 296.735 517.103,303.697 516.315,310.604 521.780 C 312.402 523.203,314.296 524.205,314.813 524.007 C 315.330 523.808,315.935 524.122,316.158 524.704 C 316.443 525.445,318.381 525.819,322.647 525.955 C 325.993 526.062,329.120 526.473,329.598 526.869 C 330.140 527.319,330.796 527.259,331.347 526.707 C 332.005 526.049,332.533 526.076,333.421 526.813 C 334.402 527.627,334.698 527.578,335.098 526.535 C 335.611 525.197,335.447 524.444,333.548 519.455 C 332.565 516.871,332.358 511.269,332.330 486.453 C 332.302 462.286,331.986 453.360,330.680 439.834 C 328.807 420.440,329.452 405.597,332.326 401.946 C 332.663 401.518,334.238 398.716,335.826 395.720 C 337.414 392.724,340.125 389.047,341.852 387.549 C 343.578 386.051,346.234 383.687,347.754 382.296 C 349.275 380.905,350.917 379.767,351.403 379.767 C 351.890 379.767,352.955 379.029,353.770 378.127 C 354.586 377.226,356.479 375.854,357.977 375.080 C 359.475 374.306,362.067 372.154,363.736 370.299 C 368.162 365.381,374.879 359.796,379.699 357.026 C 383.569 354.801,388.249 350.575,388.304 349.256 C 388.317 348.953,389.731 347.202,391.448 345.365 C 393.164 343.527,395.791 339.471,397.284 336.352 L 400.000 330.680 400.000 312.984 C 400.000 298.193,399.800 295.003,398.783 293.551 C 397.548 291.787,388.790 285.603,387.528 285.603 C 387.149 285.603,385.511 284.697,383.887 283.591 C 379.279 280.450,369.844 276.261,365.540 275.445 C 363.391 275.037,361.245 274.382,360.771 273.988 C 359.430 272.876,349.931 270.867,343.733 270.385 C 334.759 269.687,319.919 266.126,317.471 264.082 C 316.808 263.529,314.882 262.583,313.191 261.980 C 296.796 256.137,294.088 252.684,293.898 237.390 C 293.795 229.096,293.544 227.146,292.416 225.900 C 291.670 225.075,290.833 222.674,290.558 220.566 C 290.283 218.457,289.766 216.358,289.411 215.902 C 289.055 215.446,288.398 211.944,287.950 208.120 C 287.503 204.296,286.717 199.767,286.205 198.054 C 285.022 194.104,284.901 171.360,286.049 168.793 C 290.978 157.770,292.150 156.045,300.874 146.986 C 303.603 144.151,305.842 141.525,305.848 141.149 C 305.854 140.774,307.252 138.716,308.954 136.576 C 316.682 126.863,319.066 123.670,319.066 123.032 C 319.066 122.654,319.567 122.153,320.179 121.918 C 320.791 121.684,321.528 119.919,321.816 117.997 C 322.104 116.074,322.784 114.331,323.327 114.123 C 323.869 113.915,324.555 112.753,324.850 111.541 C 325.146 110.329,327.889 106.807,330.948 103.710 C 336.425 98.168,336.496 98.043,335.625 95.539 C 335.138 94.140,334.499 89.844,334.204 85.992 C 333.909 82.140,333.406 78.638,333.086 78.210 C 332.766 77.782,332.265 74.990,331.972 72.006 C 330.973 61.843,327.348 60.318,305.865 61.025 C 285.986 61.678,271.599 60.650,268.697 58.368 C 267.608 57.511,266.271 56.809,265.727 56.809 C 263.421 56.809,250.839 45.059,250.093 42.208 C 249.839 41.239,249.135 40.169,248.528 39.829 C 247.921 39.490,247.139 37.407,246.791 35.201 C 246.442 32.995,245.799 30.739,245.361 30.187 C 244.923 29.635,244.337 27.385,244.058 25.187 C 243.778 22.989,243.067 20.188,242.477 18.961 C 241.887 17.735,241.169 14.403,240.882 11.557 C 239.847 1.297,236.188 -0.905,222.568 0.537 " stroke="none" fill="#000000" fill-rule="evenodd"></path></g></svg>