<svg id="svg" version="1.1" xmlns="http://www.w3.org/2000/svg" xmlns:xlink="http://www.w3.org/1999/xlink" width="400" height="339.4594594594595" viewBox="0, 0, 400,339.4594594594595"><g id="svgg"><path id="path0" d="M90.745 0.776 C 90.187 1.130,88.370 1.424,86.709 1.430 C 85.048 1.436,83.475 1.788,83.213 2.211 C 82.951 2.635,82.339 2.828,81.853 2.642 C 81.366 2.455,79.054 2.949,76.714 3.739 C 74.374 4.529,70.687 5.463,68.520 5.816 C 66.353 6.169,63.590 6.918,62.380 7.481 C 61.170 8.045,58.883 8.661,57.297 8.851 C 46.364 10.162,38.333 14.181,29.835 22.594 C 22.649 29.708,15.856 37.823,15.856 39.294 C 15.856 39.796,15.369 40.393,14.775 40.621 C 14.180 40.849,13.694 41.682,13.694 42.472 C 13.694 43.262,13.083 44.488,12.336 45.197 C 11.590 45.906,10.736 47.617,10.440 48.998 C 10.144 50.380,9.431 52.228,8.856 53.105 C 8.282 53.981,7.857 54.881,7.913 55.104 C 8.751 58.454,5.135 67.475,2.563 68.453 C -0.450 69.599,0.192 73.850,3.658 75.705 C 4.421 76.113,5.045 76.817,5.045 77.270 C 5.045 78.092,19.376 92.367,22.966 95.120 C 24.010 95.921,27.039 97.983,29.696 99.701 C 34.122 102.565,42.523 110.566,42.523 111.920 C 42.523 112.234,43.739 113.699,45.225 115.177 C 48.253 118.187,50.450 120.868,50.450 121.552 C 50.450 122.075,56.518 129.382,58.737 131.532 C 60.962 133.687,65.586 140.886,65.586 142.194 C 65.586 142.823,65.943 143.559,66.380 143.829 C 66.817 144.099,67.632 145.416,68.191 146.755 C 68.751 148.094,69.497 149.189,69.849 149.189 C 70.201 149.189,70.829 150.162,71.243 151.351 C 71.658 152.541,72.338 153.514,72.755 153.514 C 73.172 153.514,73.514 153.975,73.514 154.539 C 73.514 155.103,74.324 156.529,75.315 157.706 C 76.306 158.884,77.117 160.206,77.117 160.645 C 77.117 161.083,77.386 161.441,77.715 161.441 C 78.396 161.441,85.752 168.574,85.792 169.273 C 85.806 169.524,87.309 171.027,89.132 172.613 C 90.955 174.198,97.228 180.279,103.072 186.126 C 108.916 191.973,114.050 196.757,114.481 196.757 C 114.912 196.757,115.620 197.421,116.054 198.233 C 116.489 199.044,117.554 200.031,118.422 200.426 C 120.086 201.182,121.717 202.135,124.685 204.084 C 125.676 204.734,127.946 205.493,129.730 205.770 C 131.514 206.046,135.243 206.873,138.018 207.608 C 140.793 208.342,145.820 209.299,149.189 209.733 C 152.559 210.168,157.586 211.115,160.360 211.837 C 163.135 212.560,168.649 213.723,172.613 214.422 C 176.577 215.121,180.631 216.012,181.622 216.402 C 182.613 216.792,185.532 217.534,188.108 218.051 C 197.288 219.894,199.858 220.545,200.691 221.237 C 201.156 221.623,203.405 222.158,205.688 222.426 C 207.972 222.695,210.869 223.596,212.127 224.430 C 213.385 225.264,215.343 226.426,216.477 227.012 C 217.611 227.598,218.819 228.814,219.162 229.714 C 219.504 230.615,220.116 231.351,220.523 231.351 C 220.929 231.351,221.261 231.839,221.261 232.435 C 221.261 233.031,221.910 234.729,222.703 236.208 C 223.495 237.687,224.146 239.389,224.149 239.989 C 224.151 240.590,224.653 242.040,225.264 243.211 C 225.875 244.383,226.567 246.815,226.803 248.617 C 227.039 250.418,227.834 253.095,228.571 254.566 C 229.307 256.037,229.910 257.858,229.910 258.613 C 229.910 259.368,230.516 260.759,231.257 261.705 C 231.999 262.650,232.848 264.536,233.145 265.895 C 233.442 267.254,234.796 269.948,236.154 271.880 C 237.513 273.813,238.926 276.187,239.294 277.156 C 239.663 278.126,240.297 278.919,240.703 278.919 C 241.109 278.919,241.441 279.366,241.441 279.912 C 241.441 280.458,241.947 281.324,242.564 281.836 C 243.182 282.349,244.138 283.848,244.690 285.168 C 245.241 286.488,246.195 287.568,246.810 287.568 C 247.425 287.568,247.936 287.973,247.945 288.468 C 247.954 288.964,250.907 292.775,254.507 296.937 C 258.107 301.099,261.533 305.616,262.120 306.973 C 263.601 310.397,279.960 326.284,282.602 326.864 C 283.738 327.114,284.853 327.617,285.078 327.982 C 285.646 328.900,292.854 332.252,294.261 332.252 C 294.893 332.252,295.597 332.554,295.825 332.923 C 297.067 334.933,316.359 339.571,320.721 338.908 C 325.594 338.168,330.654 333.296,330.760 329.241 C 330.788 328.179,331.258 326.863,331.805 326.316 C 332.352 325.769,333.040 323.881,333.335 322.120 C 333.629 320.359,334.479 317.366,335.223 315.469 C 335.968 313.571,336.577 311.134,336.577 310.053 C 336.577 308.971,337.180 306.956,337.917 305.575 C 338.746 304.020,339.391 300.944,339.608 297.504 C 339.802 294.446,340.293 291.527,340.700 291.017 C 341.107 290.507,341.797 288.016,342.234 285.482 C 342.670 282.947,343.522 280.327,344.126 279.659 C 344.731 278.991,345.225 277.922,345.225 277.283 C 345.225 274.548,364.115 253.778,367.081 253.252 C 367.547 253.169,370.198 252.223,372.973 251.148 C 377.176 249.520,379.462 249.142,386.667 248.883 C 400.140 248.397,399.420 249.027,399.622 237.556 L 399.748 230.428 396.525 227.466 C 394.752 225.837,392.620 224.469,391.786 224.426 C 390.952 224.383,389.622 224.300,388.829 224.240 C 388.036 224.181,385.735 222.594,383.715 220.715 C 368.437 206.497,361.460 200.360,360.571 200.360 C 360.197 200.360,359.121 199.541,358.181 198.540 C 357.240 197.539,355.643 196.288,354.632 195.760 C 353.620 195.232,351.495 194.115,349.910 193.276 C 344.862 190.607,337.741 187.594,335.135 187.024 C 333.748 186.721,331.316 185.893,329.730 185.184 C 328.144 184.475,325.018 183.365,322.783 182.717 C 320.549 182.069,318.116 181.081,317.378 180.522 C 316.640 179.963,315.599 179.495,315.064 179.482 C 314.529 179.470,313.070 179.000,311.821 178.437 C 305.521 175.602,302.402 174.414,301.260 174.414 C 300.568 174.414,298.582 173.888,296.847 173.244 C 290.527 170.899,286.681 170.600,257.297 170.169 L 227.387 169.730 222.974 167.387 C 220.546 166.099,218.114 165.044,217.569 165.042 C 217.023 165.041,215.604 164.468,214.414 163.770 C 213.225 163.072,210.955 162.063,209.369 161.529 C 204.784 159.982,196.194 155.604,194.866 154.136 C 194.197 153.397,193.007 152.793,192.220 152.793 C 191.434 152.793,189.209 151.820,187.276 150.631 C 185.343 149.441,183.357 148.468,182.861 148.468 C 182.366 148.468,180.668 147.760,179.088 146.895 C 171.327 142.641,168.752 141.270,165.766 139.802 C 163.982 138.925,162.036 137.921,161.441 137.571 C 160.847 137.220,159.551 136.588,158.562 136.165 C 153.904 134.175,148.468 128.023,148.468 124.742 C 148.468 123.964,148.114 123.109,147.680 122.841 C 147.217 122.555,147.054 121.274,147.285 119.735 C 148.587 111.053,149.651 106.022,150.370 105.145 C 150.821 104.595,151.426 102.360,151.716 100.180 C 152.005 98.000,152.747 95.243,153.365 94.054 C 154.912 91.077,154.822 70.988,153.239 65.857 C 152.642 63.924,151.946 59.521,151.691 56.073 C 151.393 52.031,150.866 49.503,150.209 48.958 C 149.648 48.493,149.188 47.584,149.186 46.939 C 149.184 46.294,147.892 44.144,146.316 42.162 C 144.740 40.180,143.128 37.829,142.734 36.937 C 142.340 36.045,141.558 35.315,140.996 35.315 C 140.434 35.315,139.805 34.876,139.599 34.338 C 139.066 32.950,125.530 25.304,123.506 25.248 C 123.056 25.235,121.758 24.741,120.623 24.149 C 119.488 23.556,117.808 23.070,116.890 23.068 C 112.304 23.055,99.459 14.972,99.459 12.099 C 99.459 11.513,98.811 10.447,98.018 9.730 C 97.225 9.012,96.577 7.999,96.577 7.478 C 96.577 4.117,92.631 -0.417,90.745 0.776 " stroke="none" fill="#000000" fill-rule="evenodd"></path></g></svg>