<svg id="svg" version="1.1" xmlns="http://www.w3.org/2000/svg" xmlns:xlink="http://www.w3.org/1999/xlink" width="400" height="294.9367088607595" viewBox="0, 0, 400,294.9367088607595"><g id="svgg"><path id="path0" d="M150.949 0.701 C 143.328 2.324,140.549 3.903,134.359 10.127 C 129.022 15.492,129.114 15.335,129.114 19.097 C 129.114 22.504,126.795 27.123,125.050 27.192 C 124.729 27.205,123.969 27.666,123.361 28.216 C 122.752 28.767,120.309 29.552,117.931 29.960 C 115.553 30.369,113.294 30.906,112.911 31.153 C 106.746 35.136,62.570 34.824,54.741 30.742 C 53.700 30.199,51.939 29.753,50.828 29.751 C 49.718 29.749,48.633 29.462,48.418 29.114 C 47.633 27.845,37.594 29.570,35.443 31.343 C 34.921 31.774,33.639 32.565,32.595 33.103 C 31.551 33.640,28.006 36.238,24.717 38.875 C 21.429 41.513,18.367 43.671,17.913 43.671 C 17.460 43.671,17.089 43.956,17.089 44.304 C 17.089 44.652,16.582 44.937,15.964 44.937 C 15.345 44.937,13.192 45.791,11.179 46.835 C 9.166 47.880,7.144 48.734,6.685 48.734 C 6.227 48.734,5.518 49.135,5.112 49.625 C 4.705 50.115,3.402 50.977,2.216 51.539 L 0.061 52.562 1.342 54.734 C 2.047 55.929,3.101 57.062,3.685 57.253 C 4.269 57.444,6.133 58.880,7.828 60.445 C 9.522 62.011,11.092 63.291,11.315 63.291 C 11.538 63.291,12.083 63.872,12.527 64.582 C 12.970 65.291,13.608 65.702,13.945 65.494 C 14.281 65.285,14.557 65.566,14.557 66.118 C 14.557 66.669,15.269 67.391,16.139 67.722 C 17.009 68.052,17.722 68.632,17.722 69.009 C 17.722 69.386,17.941 69.560,18.208 69.394 C 20.329 68.084,29.128 87.611,29.030 93.409 C 28.721 111.796,28.948 134.592,29.482 138.608 C 29.842 141.318,39.227 151.899,41.272 151.899 C 41.580 151.899,42.460 152.595,43.227 153.447 C 44.863 155.264,54.129 161.488,57.618 163.113 C 58.950 163.733,60.338 164.881,60.703 165.665 C 61.067 166.448,61.656 167.089,62.012 167.089 C 62.367 167.089,62.658 167.623,62.658 168.277 C 62.658 170.329,63.980 170.699,74.051 171.464 C 79.446 171.874,84.877 172.479,86.118 172.807 C 87.360 173.135,91.062 173.708,94.346 174.081 C 116.934 176.640,120.757 177.529,126.899 181.652 C 127.943 182.353,129.296 183.098,129.905 183.309 C 130.514 183.520,131.013 183.936,131.013 184.233 C 131.013 184.805,136.616 187.409,137.601 187.295 C 137.918 187.258,138.426 187.673,138.730 188.216 C 139.034 188.759,140.373 189.497,141.706 189.856 C 143.039 190.215,145.179 191.220,146.460 192.090 C 147.742 192.959,149.167 193.671,149.626 193.671 C 150.086 193.671,151.145 194.208,151.980 194.865 C 154.470 196.823,160.114 200.000,161.104 200.000 C 161.611 200.000,162.025 200.250,162.025 200.556 C 162.025 200.862,162.951 201.485,164.082 201.940 C 165.214 202.396,167.114 203.556,168.305 204.519 C 169.495 205.482,170.674 206.144,170.923 205.990 C 171.172 205.836,171.764 206.178,172.238 206.751 C 172.713 207.323,173.956 208.188,175.000 208.673 C 176.044 209.159,178.608 210.814,180.696 212.353 C 182.785 213.892,185.354 215.545,186.405 216.026 C 188.114 216.809,196.834 225.738,197.363 227.246 C 197.479 227.577,197.906 227.850,198.312 227.852 C 199.092 227.856,200.468 229.850,203.312 235.099 C 205.036 238.280,205.042 238.338,205.053 251.296 L 205.063 264.300 207.437 266.545 C 210.883 269.804,216.667 272.518,222.785 273.747 C 224.003 273.992,226.566 274.707,228.481 275.336 C 230.396 275.965,233.528 276.673,235.443 276.909 C 239.365 277.393,239.207 277.363,245.253 278.792 C 254.740 281.036,269.805 283.148,275.604 283.047 C 278.025 283.006,280.304 283.212,280.667 283.506 C 281.031 283.800,286.151 284.364,292.045 284.759 C 297.938 285.154,303.065 285.716,303.437 286.007 C 303.809 286.298,305.339 286.723,306.837 286.952 C 310.115 287.452,313.741 289.637,316.215 292.604 C 318.587 295.447,320.593 294.942,321.263 291.331 C 321.509 290.007,322.078 288.354,322.528 287.658 C 322.978 286.962,323.636 284.584,323.990 282.373 C 324.344 280.163,324.990 277.925,325.425 277.401 C 326.448 276.168,327.566 274.261,328.816 271.612 C 329.367 270.445,330.082 269.164,330.406 268.764 C 333.408 265.054,334.177 263.980,334.177 263.498 C 334.177 259.575,356.314 242.401,361.364 242.407 C 362.250 242.408,364.114 241.860,365.506 241.190 C 366.899 240.519,370.032 239.641,372.468 239.237 C 374.905 238.834,378.608 237.976,380.696 237.332 C 385.657 235.802,390.123 234.735,393.752 234.213 C 399.285 233.416,402.133 229.414,398.819 227.093 C 398.170 226.638,397.435 225.340,397.187 224.209 C 396.938 223.078,396.486 222.152,396.181 222.152 C 395.876 222.152,395.436 221.084,395.202 219.778 C 394.968 218.473,394.377 216.946,393.888 216.385 C 393.400 215.824,392.734 213.729,392.408 211.730 C 392.083 209.731,391.554 207.769,391.233 207.370 C 390.912 206.972,390.444 205.364,390.194 203.797 C 389.943 202.231,389.221 199.953,388.588 198.734 C 387.956 197.516,387.290 195.045,387.109 193.245 C 386.928 191.444,386.501 189.450,386.161 188.814 C 385.821 188.178,384.452 185.410,383.119 182.662 C 379.317 174.822,378.515 173.418,377.843 173.418 C 377.498 173.418,377.215 172.883,377.215 172.229 C 377.215 171.576,376.788 170.687,376.266 170.253 C 375.744 169.820,375.316 169.174,375.316 168.817 C 375.316 168.461,374.364 166.715,373.199 164.939 C 366.166 154.210,363.298 141.598,366.091 133.682 C 366.586 132.278,367.061 129.465,367.146 127.432 C 367.247 125.010,367.700 123.213,368.460 122.225 C 369.098 121.395,369.621 119.971,369.623 119.060 C 369.624 118.150,370.194 116.473,370.888 115.333 C 371.583 114.193,372.152 112.742,372.152 112.108 C 372.152 111.474,372.722 110.440,373.418 109.810 C 374.114 109.180,374.684 108.202,374.684 107.638 C 374.684 107.073,375.072 106.049,375.548 105.362 C 376.023 104.676,376.630 103.402,376.897 102.532 C 377.163 101.661,377.914 100.193,378.564 99.269 C 379.215 98.345,379.747 97.109,379.747 96.521 C 379.747 95.934,380.316 94.729,381.013 93.844 C 381.709 92.959,382.278 91.813,382.278 91.298 C 382.278 90.783,382.887 89.279,383.632 87.954 C 385.120 85.306,384.867 83.606,382.908 83.094 C 382.214 82.912,381.646 82.512,381.646 82.205 C 381.646 81.897,381.233 81.646,380.728 81.646 C 380.223 81.646,379.582 81.283,379.304 80.839 C 379.025 80.396,378.033 79.547,377.098 78.953 C 376.163 78.359,374.703 77.226,373.852 76.436 C 373.001 75.646,370.936 74.003,369.263 72.785 C 363.882 68.867,356.329 61.836,356.329 60.746 C 356.329 60.405,355.902 60.127,355.380 60.127 C 354.858 60.127,354.430 59.702,354.430 59.183 C 354.430 58.663,353.861 57.883,353.165 57.448 C 352.468 57.013,351.899 56.297,351.899 55.856 C 351.899 55.416,351.187 54.436,350.316 53.679 C 349.446 52.922,348.734 51.848,348.734 51.292 C 348.734 50.736,348.165 49.794,347.468 49.197 C 346.772 48.601,346.203 47.555,346.203 46.873 C 346.203 46.191,345.754 45.382,345.207 45.075 C 344.171 44.496,342.972 42.694,341.640 39.715 C 340.767 37.763,338.628 37.374,337.336 38.931 C 336.406 40.052,332.228 41.973,326.952 43.707 C 322.008 45.331,308.456 45.444,302.823 43.908 C 298.900 42.837,296.297 42.259,290.636 41.200 C 286.792 40.481,285.019 40.016,283.228 39.257 C 281.760 38.635,276.489 37.057,273.738 36.416 C 272.695 36.173,271.452 35.650,270.974 35.254 C 270.006 34.450,266.342 33.032,263.930 32.528 C 263.062 32.347,261.923 31.823,261.398 31.364 C 260.873 30.905,259.809 30.336,259.033 30.100 C 257.339 29.584,249.803 23.615,246.686 20.321 C 239.897 13.145,228.776 4.183,223.734 1.825 L 220.570 0.345 187.025 0.253 C 168.576 0.203,152.342 0.404,150.949 0.701 " stroke="none" fill="#000000" fill-rule="evenodd"></path></g></svg>