<svg id="svg" version="1.1" xmlns="http://www.w3.org/2000/svg" xmlns:xlink="http://www.w3.org/1999/xlink" width="400" height="275.711159737418" viewBox="0, 0, 400,275.711159737418"><g id="svgg"><path id="path0" d="M342.012 0.946 C 340.682 1.721,334.061 3.314,325.164 4.999 C 323.720 5.273,321.599 6.229,320.451 7.125 C 319.303 8.020,317.817 8.753,317.149 8.753 C 315.049 8.753,308.215 15.770,305.320 20.898 C 301.991 26.798,291.466 39.791,291.466 38.002 C 291.466 37.765,289.792 39.192,287.746 41.173 C 285.700 43.154,282.648 45.480,280.963 46.341 C 279.278 47.203,275.339 49.330,272.210 51.069 C 269.081 52.809,264.453 55.236,261.926 56.463 C 259.398 57.690,257.330 59.077,257.330 59.544 C 257.330 60.012,256.860 60.394,256.286 60.394 C 255.711 60.394,252.462 61.744,249.065 63.393 C 245.668 65.043,240.385 67.255,237.324 68.308 C 234.264 69.361,230.719 70.766,229.447 71.430 C 228.174 72.094,225.164 72.644,222.757 72.653 C 220.350 72.661,216.214 73.250,213.567 73.961 C 207.872 75.489,174.939 75.727,164.989 74.312 C 161.619 73.833,155.040 73.129,150.368 72.747 C 145.696 72.365,141.344 71.613,140.697 71.076 C 140.049 70.538,137.766 69.831,135.624 69.503 C 133.482 69.176,131.335 68.622,130.853 68.273 C 130.372 67.923,128.796 67.356,127.352 67.011 C 125.908 66.666,124.121 65.839,123.382 65.173 C 122.642 64.507,120.232 63.164,118.027 62.188 C 115.821 61.212,113.523 59.819,112.919 59.091 C 112.315 58.363,110.907 57.768,109.791 57.768 C 108.675 57.768,107.546 57.419,107.282 56.992 C 107.019 56.565,105.321 55.945,103.511 55.614 C 99.583 54.896,87.765 49.348,82.338 45.674 C 79.239 43.576,78.046 43.209,76.384 43.841 C 73.332 45.001,67.396 49.992,67.396 51.397 C 67.396 52.065,63.654 56.402,59.081 61.035 C 54.508 65.668,50.766 70.133,50.766 70.957 C 50.766 72.927,43.217 83.151,41.763 83.151 C 40.340 83.151,32.385 91.158,32.385 92.590 C 32.385 93.175,31.971 93.654,31.465 93.654 C 30.959 93.654,29.951 94.934,29.225 96.499 C 28.498 98.063,27.342 100.328,26.656 101.532 C 25.970 102.735,25.403 104.761,25.396 106.033 C 25.389 107.306,24.792 108.573,24.070 108.850 C 23.332 109.133,22.757 110.436,22.757 111.822 C 22.757 113.180,22.028 115.721,21.136 117.469 C 20.055 119.590,19.309 123.655,18.894 129.681 C 18.525 135.028,17.803 139.253,17.124 140.035 C 16.493 140.762,15.719 142.796,15.404 144.554 C 15.090 146.313,14.252 147.975,13.543 148.247 C 12.834 148.519,12.254 149.267,12.254 149.910 C 12.254 151.522,6.796 156.674,5.088 156.674 C 4.322 156.674,2.810 157.391,1.728 158.267 L -0.239 159.860 2.187 161.768 C 3.521 162.817,4.294 163.676,3.904 163.676 C 3.515 163.676,4.121 164.661,5.252 165.864 C 6.382 167.068,7.802 168.053,8.407 168.053 C 9.011 168.053,9.632 168.939,9.786 170.022 C 10.000 171.528,10.786 172.096,13.129 172.436 C 15.440 172.771,16.129 173.258,15.933 174.417 C 15.790 175.262,16.324 176.203,17.119 176.508 C 17.914 176.814,20.000 178.382,21.755 179.994 C 23.510 181.605,25.398 182.926,25.951 182.928 C 26.503 182.930,29.186 184.105,31.912 185.539 C 34.638 186.973,39.391 188.926,42.475 189.878 C 45.559 190.831,49.179 192.164,50.518 192.841 C 51.858 193.519,55.056 194.341,57.626 194.670 C 60.195 194.998,62.952 195.623,63.753 196.059 C 72.068 200.588,78.277 201.218,104.085 200.157 L 116.703 199.637 119.425 202.007 C 120.922 203.310,123.706 205.164,125.612 206.127 C 127.517 207.090,129.603 208.370,130.246 208.972 C 130.890 209.573,131.988 210.066,132.688 210.066 C 133.388 210.066,134.335 211.050,134.792 212.254 C 135.250 213.457,136.186 214.442,136.874 214.442 C 137.561 214.442,139.515 216.540,141.217 219.104 C 144.126 223.486,147.046 226.692,147.046 225.504 C 147.046 224.811,153.910 228.390,154.542 229.412 C 154.809 229.844,156.223 230.197,157.685 230.197 C 159.147 230.197,161.388 230.760,162.666 231.448 C 166.091 233.293,170.565 234.562,171.876 234.059 C 172.507 233.817,173.525 234.223,174.138 234.961 C 174.751 235.700,175.620 236.078,176.067 235.801 C 176.515 235.524,177.388 235.718,178.006 236.231 C 178.625 236.744,179.888 237.310,180.813 237.488 C 182.387 237.791,183.198 238.055,187.090 239.531 C 187.932 239.850,188.818 240.179,189.059 240.263 C 189.300 240.346,190.088 240.634,190.810 240.903 C 191.532 241.172,194.486 242.075,197.374 242.909 C 200.263 243.743,203.854 245.163,205.355 246.064 C 206.856 246.965,208.938 247.702,209.981 247.702 C 211.024 247.702,212.849 248.339,214.035 249.116 C 215.222 249.893,216.193 250.255,216.193 249.920 C 216.193 249.585,217.473 250.097,219.037 251.059 C 220.602 252.020,223.457 253.096,225.383 253.448 C 227.309 253.801,230.254 255.213,231.928 256.585 C 233.602 257.958,235.844 259.081,236.909 259.081 C 237.975 259.081,239.063 259.431,239.327 259.859 C 239.592 260.287,240.833 260.895,242.086 261.209 C 243.338 261.524,246.219 262.676,248.487 263.770 C 250.755 264.864,254.471 266.280,256.744 266.917 C 259.017 267.553,261.078 268.399,261.323 268.797 C 262.075 270.013,275.056 275.797,276.429 275.527 C 277.353 275.345,277.780 273.842,277.940 270.216 C 278.063 267.435,278.639 264.585,279.221 263.884 C 279.803 263.183,280.443 259.156,280.643 254.937 C 280.998 247.439,284.673 233.179,286.608 231.788 C 287.065 231.460,287.655 227.679,287.921 223.387 C 288.186 219.095,288.860 215.031,289.418 214.356 C 289.977 213.681,290.705 211.678,291.037 209.904 C 291.368 208.130,292.388 206.001,293.303 205.173 C 294.218 204.345,294.967 203.227,294.967 202.690 C 294.967 201.478,307.492 189.059,308.714 189.059 C 308.980 189.059,310.676 187.779,312.484 186.214 C 314.292 184.650,318.169 181.615,321.099 179.471 C 324.030 177.326,326.623 175.061,326.862 174.438 C 327.102 173.814,327.891 173.304,328.618 173.304 C 329.344 173.304,330.583 172.319,331.372 171.115 C 332.843 168.870,333.921 168.154,342.232 163.908 C 349.563 160.161,357.558 152.999,358.471 149.359 C 358.773 148.156,359.575 146.960,360.254 146.699 C 360.933 146.439,361.488 145.312,361.488 144.195 C 361.488 143.078,362.233 140.704,363.143 138.918 C 364.053 137.132,365.067 134.601,365.395 133.293 C 365.724 131.985,366.707 129.325,367.582 127.383 C 368.456 125.440,369.446 122.179,369.782 120.136 C 370.118 118.092,370.753 116.198,371.192 115.927 C 371.632 115.655,371.991 113.469,371.991 111.068 C 371.991 108.092,372.687 105.395,374.179 102.593 C 375.383 100.332,376.368 97.680,376.368 96.701 C 376.368 95.721,376.900 94.142,377.551 93.193 C 378.201 92.243,378.989 88.946,379.301 85.866 C 379.613 82.787,380.269 79.785,380.758 79.196 C 381.247 78.606,382.247 76.104,382.980 73.636 C 383.713 71.167,384.631 69.147,385.021 69.147 C 387.177 69.147,396.613 58.621,397.089 55.682 C 397.370 53.957,398.139 52.096,398.799 51.548 C 399.745 50.763,400.000 46.758,400.000 32.694 L 400.000 14.836 397.374 14.311 C 395.930 14.022,394.748 13.443,394.748 13.025 C 394.748 9.352,383.938 2.643,377.999 2.631 C 376.731 2.628,374.564 2.037,373.185 1.318 C 370.205 -0.236,344.567 -0.542,342.012 0.946 " stroke="none" fill="#000000" fill-rule="evenodd"></path></g></svg>