<svg id="svg" version="1.1" xmlns="http://www.w3.org/2000/svg" xmlns:xlink="http://www.w3.org/1999/xlink" width="400" height="328.72727272727275" viewBox="0, 0, 400,328.72727272727275"><g id="svgg"><path id="path0" d="M40.536 6.046 C 39.522 9.521,37.915 12.845,36.966 13.434 C 36.017 14.023,34.821 16.739,34.309 19.470 C 33.797 22.201,32.413 25.235,31.234 26.214 C 30.055 27.192,29.091 29.133,29.091 30.527 C 29.091 31.922,27.867 34.623,26.371 36.531 C 24.876 38.439,23.199 42.073,22.646 44.606 C 22.093 47.139,20.699 49.573,19.547 50.015 C 18.396 50.456,17.455 52.208,17.455 53.907 C 17.455 55.606,16.163 58.638,14.584 60.645 C 13.005 62.653,11.268 66.667,10.724 69.566 C 10.180 72.464,8.951 75.620,7.993 76.579 C 7.034 77.537,5.855 81.655,5.372 85.730 C 4.890 89.805,3.484 94.583,2.248 96.348 C -1.456 101.635,-0.962 138.612,2.909 145.834 C 4.509 148.820,5.818 152.256,5.818 153.471 C 5.818 155.955,14.105 171.192,16.139 172.449 C 16.862 172.897,17.455 174.554,17.455 176.131 C 17.455 177.709,18.377 179.354,19.505 179.787 C 20.633 180.220,21.943 182.117,22.416 184.004 C 22.890 185.890,24.146 188.302,25.209 189.365 C 27.460 191.616,30.086 196.382,36.278 209.455 C 38.741 214.655,42.059 221.330,43.651 224.288 C 45.243 227.247,46.545 231.846,46.545 234.510 C 46.545 237.173,47.466 240.667,48.591 242.274 C 49.717 243.880,51.105 248.313,51.676 252.124 C 52.248 255.935,53.563 259.900,54.598 260.936 C 55.634 261.971,56.957 266.030,57.539 269.955 C 58.121 273.880,59.812 279.372,61.298 282.160 C 62.784 284.948,64.022 288.548,64.049 290.160 C 64.076 291.772,65.363 295.709,66.909 298.909 C 68.455 302.109,69.742 305.784,69.769 307.077 C 69.796 308.369,71.037 310.987,72.527 312.895 C 74.017 314.803,75.665 317.733,76.189 319.406 C 76.712 321.080,78.628 323.846,80.446 325.554 L 83.750 328.658 96.057 325.663 C 102.826 324.015,111.636 322.133,115.636 321.480 C 119.636 320.827,129.011 318.591,136.469 316.510 C 143.926 314.430,151.114 312.727,152.440 312.727 C 153.767 312.727,158.138 311.472,162.154 309.938 C 166.169 308.404,174.691 306.036,181.091 304.675 C 187.491 303.315,194.364 301.508,196.364 300.659 C 198.364 299.811,205.236 297.669,211.636 295.901 C 226.509 291.792,235.636 288.578,246.545 283.609 C 251.345 281.422,257.355 279.183,259.899 278.632 C 262.444 278.082,265.342 276.648,266.339 275.447 C 267.336 274.246,270.163 272.230,272.621 270.968 C 275.080 269.706,279.015 266.804,281.367 264.519 C 283.719 262.233,286.478 260.364,287.498 260.364 C 288.518 260.364,290.053 259.055,290.909 257.455 C 291.765 255.855,293.183 254.545,294.059 254.545 C 294.936 254.545,298.841 252.255,302.739 249.455 C 306.636 246.655,310.445 244.364,311.204 244.364 C 311.962 244.364,313.106 243.450,313.746 242.334 C 314.778 240.532,326.012 233.146,337.263 226.871 C 339.452 225.650,343.166 222.868,345.516 220.689 C 347.866 218.510,350.300 216.727,350.925 216.727 C 351.551 216.727,352.829 214.927,353.767 212.727 C 354.705 210.527,356.376 207.639,357.482 206.309 C 358.588 204.980,359.625 203.016,359.787 201.946 C 359.949 200.876,360.714 199.018,361.488 197.818 C 364.715 192.810,366.545 188.603,366.545 186.194 C 366.545 184.783,367.533 182.809,368.740 181.807 C 369.947 180.806,371.335 177.483,371.825 174.423 C 372.314 171.364,373.944 167.748,375.448 166.387 C 376.952 165.026,378.182 162.807,378.182 161.455 C 378.182 160.103,379.491 157.812,381.091 156.364 C 382.691 154.916,384.000 152.848,384.000 151.769 C 384.000 150.690,385.309 147.365,386.909 144.380 C 388.509 141.395,389.818 136.895,389.818 134.381 C 389.818 131.868,390.783 129.010,391.962 128.032 C 393.140 127.054,394.537 123.864,395.065 120.945 C 395.593 118.025,396.911 113.885,397.994 111.744 C 400.482 106.826,393.716 101.824,384.556 101.809 C 381.450 101.804,376.999 100.804,374.665 99.587 C 372.330 98.370,366.439 96.749,361.574 95.987 C 346.809 93.672,333.980 90.813,330.909 89.153 C 327.735 87.438,317.312 85.081,302.545 82.739 C 297.345 81.914,292.058 80.306,290.795 79.165 C 289.532 78.024,287.014 77.091,285.201 77.091 C 283.387 77.091,280.166 76.189,278.043 75.087 C 273.781 72.875,264.706 70.311,254.322 68.384 C 250.599 67.694,245.559 66.097,243.121 64.837 C 240.684 63.577,237.185 62.541,235.345 62.536 C 233.505 62.532,230.125 61.550,227.834 60.355 C 225.542 59.160,221.942 58.178,219.834 58.173 C 217.725 58.168,214.270 57.261,212.156 56.158 C 207.085 53.512,191.087 48.000,188.479 48.000 C 187.349 48.000,186.185 47.282,185.892 46.404 C 185.600 45.527,181.782 44.160,177.408 43.367 C 173.033 42.573,168.800 41.390,168.000 40.737 C 167.200 40.084,163.946 39.141,160.770 38.641 C 157.593 38.141,153.525 36.770,151.730 35.593 C 149.935 34.417,146.952 33.455,145.102 33.455 C 143.252 33.455,140.447 32.569,138.869 31.488 C 137.291 30.406,133.087 29.068,129.527 28.515 C 125.966 27.961,122.366 26.974,121.527 26.320 C 120.687 25.666,117.579 24.759,114.620 24.305 C 111.661 23.851,107.079 22.533,104.438 21.376 C 97.621 18.389,84.542 14.545,81.192 14.545 C 79.631 14.545,76.925 13.738,75.177 12.751 C 72.254 11.099,68.880 10.064,53.348 6.057 C 50.290 5.268,46.571 3.521,45.084 2.175 C 42.501 -0.162,42.297 0.011,40.536 6.046 " stroke="none" fill="#000000" fill-rule="evenodd"></path></g></svg>