<svg id="svg" version="1.1" xmlns="http://www.w3.org/2000/svg" xmlns:xlink="http://www.w3.org/1999/xlink" width="400" height="496.2962962962963" viewBox="0, 0, 400,496.2962962962963"><g id="svgg"><path id="path0" d="M329.709 0.992 C 327.929 1.989,323.841 3.261,320.576 3.835 C 317.414 4.390,311.538 7.940,308.529 11.111 C 307.241 12.469,305.165 14.630,303.916 15.913 C 302.668 17.196,300.832 19.604,299.838 21.263 C 295.039 29.269,293.930 31.403,293.464 33.526 C 293.187 34.788,291.025 37.901,288.661 40.443 C 286.297 42.986,283.697 46.038,282.883 47.225 C 281.875 48.697,280.664 49.383,279.075 49.383 C 277.793 49.383,276.284 49.938,275.720 50.617 C 275.157 51.296,273.535 51.852,272.116 51.852 C 270.697 51.852,268.428 52.151,267.073 52.516 C 262.512 53.745,239.490 51.900,237.363 50.135 C 236.826 49.689,236.070 49.397,235.683 49.485 C 235.296 49.572,234.424 49.426,233.745 49.158 C 230.306 47.806,218.951 46.186,216.049 46.634 C 211.681 47.308,211.134 47.833,208.070 54.293 C 205.707 59.276,202.467 62.691,198.765 64.099 C 198.313 64.271,197.387 64.890,196.708 65.473 C 194.743 67.160,184.071 68.574,171.825 68.769 C 156.436 69.014,158.025 66.890,158.025 87.217 C 158.025 103.429,157.920 104.631,156.379 106.173 C 155.473 107.078,154.733 108.189,154.733 108.642 C 154.733 109.095,154.389 109.465,153.968 109.465 C 153.548 109.465,152.715 109.928,152.116 110.494 C 151.518 111.060,149.918 112.062,148.560 112.722 C 147.202 113.381,145.535 114.362,144.856 114.900 C 144.177 115.439,141.214 116.514,138.272 117.289 C 135.329 118.065,131.755 119.214,130.328 119.843 C 128.902 120.473,126.191 120.988,124.303 120.988 C 119.151 120.988,107.036 123.392,103.202 125.176 C 101.342 126.041,99.135 126.749,98.298 126.749 C 97.002 126.749,88.889 134.232,88.889 135.428 C 88.889 136.201,84.379 142.798,83.437 143.403 C 82.919 143.736,82.245 145.676,81.939 147.714 C 81.634 149.753,80.850 151.954,80.198 152.606 C 79.546 153.258,79.012 154.593,79.012 155.572 C 79.012 158.521,63.144 176.132,60.487 176.132 C 59.923 176.132,59.000 176.687,58.436 177.366 C 57.873 178.045,56.576 178.601,55.556 178.601 C 54.535 178.601,53.238 179.156,52.675 179.835 C 52.111 180.514,51.174 181.070,50.592 181.070 C 50.011 181.070,47.741 181.955,45.549 183.036 C 43.357 184.118,40.387 185.448,38.948 185.992 C 37.509 186.537,36.145 187.469,35.917 188.064 C 35.689 188.658,34.370 189.394,32.987 189.698 C 31.603 190.001,30.260 190.592,30.002 191.010 C 29.744 191.428,28.802 191.770,27.909 191.770 C 27.016 191.770,26.084 192.296,25.837 192.940 C 25.590 193.584,24.027 194.657,22.364 195.324 C 20.702 195.991,17.901 198.097,16.140 200.003 L 12.938 203.470 13.399 230.158 C 13.867 257.283,13.280 267.313,11.152 268.504 C 10.521 268.857,9.768 270.224,9.479 271.541 C 9.190 272.859,8.420 274.141,7.769 274.391 C 7.117 274.641,6.584 275.726,6.584 276.801 C 6.584 277.877,5.865 279.409,4.985 280.205 C 4.105 281.001,3.137 282.817,2.832 284.242 C 2.528 285.666,1.694 287.837,0.979 289.066 C -0.268 291.209,-0.221 291.429,2.127 294.416 C 4.476 297.405,6.183 299.815,9.227 304.444 C 10.001 305.621,11.954 309.233,13.566 312.470 C 17.143 319.652,16.318 319.336,31.549 319.368 C 38.415 319.383,46.626 319.786,49.794 320.264 C 52.963 320.741,59.673 321.383,64.705 321.691 C 69.981 322.013,74.376 322.683,75.088 323.273 C 75.766 323.836,78.911 324.622,82.076 325.020 C 85.241 325.417,88.532 326.108,89.389 326.556 C 90.246 327.003,95.947 327.634,102.058 327.958 C 116.128 328.702,130.476 333.037,133.328 337.404 C 134.749 339.580,140.123 341.046,148.509 341.545 C 154.294 341.889,157.627 342.430,157.837 343.057 C 158.015 343.594,159.520 344.035,161.180 344.038 C 162.840 344.041,165.258 344.596,166.555 345.273 C 167.852 345.949,169.368 346.502,169.925 346.502 C 170.482 346.502,171.609 347.243,172.428 348.148 C 173.247 349.053,174.249 349.794,174.654 349.794 C 176.914 349.794,183.177 358.028,183.783 361.797 C 184.240 364.632,187.574 371.085,190.482 374.759 C 201.498 388.680,201.606 388.827,203.430 392.387 C 203.952 393.405,204.876 394.239,205.482 394.239 C 206.088 394.239,206.584 394.613,206.584 395.070 C 206.584 395.920,236.013 425.591,244.943 433.745 C 252.492 440.637,263.802 449.383,265.167 449.383 C 265.498 449.383,266.655 450.216,267.737 451.235 C 272.192 455.425,274.563 457.340,275.926 457.848 C 276.718 458.143,277.366 458.933,277.366 459.604 C 277.366 460.275,277.830 461.120,278.396 461.482 C 279.686 462.307,283.128 469.272,283.128 471.058 C 283.128 471.790,283.867 473.601,284.771 475.083 C 285.674 476.565,286.415 478.814,286.417 480.081 C 286.418 481.348,287.160 483.917,288.066 485.791 C 288.971 487.665,289.712 489.638,289.712 490.175 C 289.712 490.712,290.691 492.219,291.887 493.525 L 294.062 495.899 298.883 493.510 C 301.534 492.196,303.704 490.654,303.704 490.083 C 303.704 489.513,305.802 487.807,308.367 486.293 C 310.932 484.778,313.850 482.984,314.851 482.305 C 315.852 481.626,317.735 480.394,319.035 479.568 C 320.335 478.742,322.510 476.428,323.868 474.426 C 325.226 472.424,326.769 470.785,327.297 470.784 C 328.646 470.781,335.802 463.978,335.802 462.699 C 335.802 461.211,339.260 454.973,340.739 453.793 C 341.418 453.252,341.692 452.529,341.349 452.186 C 341.006 451.843,341.562 450.672,342.585 449.583 C 343.608 448.495,344.328 447.541,344.186 447.465 C 343.523 447.108,345.383 443.694,348.044 440.383 C 349.657 438.375,351.053 436.213,351.146 435.578 C 351.240 434.943,351.921 433.754,352.661 432.937 C 353.401 432.119,354.203 429.668,354.442 427.491 C 354.698 425.167,355.441 423.120,356.242 422.535 C 357.172 421.854,357.625 420.259,357.664 417.519 C 357.696 415.309,357.995 413.059,358.328 412.520 C 358.662 411.981,358.956 409.962,358.983 408.033 C 359.010 406.105,359.414 403.488,359.882 402.218 C 360.460 400.646,360.463 399.640,359.891 399.068 C 359.365 398.542,359.306 397.092,359.732 395.204 C 360.726 390.792,360.716 390.871,360.556 389.210 C 360.487 388.482,361.335 387.293,362.442 386.567 C 363.747 385.712,364.636 384.154,364.974 382.131 C 365.886 376.675,366.069 366.726,365.290 365.021 C 363.994 362.184,362.593 360.006,361.106 358.519 C 360.317 357.730,359.671 356.242,359.671 355.213 C 359.671 354.184,358.971 352.709,358.116 351.935 C 357.261 351.161,355.369 347.678,353.911 344.194 C 350.000 334.851,349.557 333.921,348.049 331.889 C 345.715 328.746,344.463 316.969,345.930 311.964 C 346.606 309.658,346.968 307.042,346.734 306.149 C 346.501 305.257,346.701 304.527,347.178 304.527 C 348.229 304.527,353.586 297.183,353.285 296.155 C 353.167 295.755,353.640 295.209,354.335 294.943 C 355.030 294.676,356.549 292.449,357.711 289.993 C 358.872 287.538,361.085 284.303,362.627 282.805 C 364.170 281.306,365.432 279.513,365.432 278.819 C 365.432 278.126,366.162 277.367,367.055 277.134 C 368.204 276.833,368.834 275.734,369.212 273.372 C 369.548 271.271,370.621 269.182,372.107 267.734 C 373.406 266.468,374.873 263.951,375.367 262.140 C 375.861 260.329,376.864 257.922,377.595 256.790 C 378.326 255.658,378.830 253.606,378.714 252.230 C 378.590 250.747,379.146 248.902,380.077 247.703 C 381.960 245.280,384.573 237.688,384.234 235.625 C 384.101 234.817,384.261 233.727,384.590 233.203 C 384.920 232.679,385.209 226.404,385.233 219.258 C 385.276 206.613,385.350 206.068,388.029 198.812 C 389.543 194.713,391.039 190.492,391.354 189.433 C 391.669 188.374,392.706 185.781,393.658 183.671 C 394.609 181.562,395.524 178.919,395.689 177.798 C 395.855 176.678,396.334 175.348,396.754 174.842 C 397.173 174.336,397.305 173.711,397.046 173.452 C 396.786 173.192,396.980 172.223,397.476 171.297 C 400.253 166.107,400.228 62.920,397.448 59.571 C 396.934 58.952,396.686 57.786,396.896 56.981 C 397.626 54.190,396.371 48.148,395.062 48.148 C 394.110 48.148,393.771 46.874,393.584 42.589 C 393.364 37.572,393.113 36.862,391.004 35.303 C 389.186 33.959,388.547 32.674,388.128 29.512 C 387.625 25.721,382.713 18.945,380.453 18.924 C 380.113 18.921,378.929 17.588,377.821 15.961 C 375.675 12.810,366.856 6.584,364.539 6.584 C 363.776 6.584,362.090 6.031,360.794 5.355 C 359.497 4.679,357.810 4.123,357.044 4.120 C 356.279 4.118,355.424 3.745,355.144 3.292 C 354.864 2.840,353.707 2.469,352.572 2.469 C 351.437 2.469,349.700 2.028,348.711 1.488 C 346.493 0.277,331.678 -0.109,329.709 0.992 " stroke="none" fill="#000000" fill-rule="evenodd"></path></g></svg>